<?xml version="1.0" encoding="iso-8859-1"?>
<!-- Generator: Adobe Illustrator 19.0.0, SVG Export Plug-In . SVG Version: 6.00 Build 0)  -->
<svg version="1.1" id="Capa_1" xmlns="http://www.w3.org/2000/svg" xmlns:xlink="http://www.w3.org/1999/xlink" x="0px" y="0px"
	 viewBox="0 0 512 512" style="enable-background:new 0 0 512 512;" xml:space="preserve">
<path style="fill:#CCCCCC;" d="M486.4,465.067V123.733c0-14.14-11.46-25.6-25.6-25.6H51.2c-14.14,0-25.6,11.46-25.6,25.6v341.333
	H486.4z"/>
<path style="fill:#29ABE2;" d="M68.267,140.8h375.467v247.467H68.267V140.8z"/>
<path style="fill:#E6E6E6;" d="M145.067,21.333h221.867c14.14,0,25.6,11.46,25.6,25.6v341.333H119.467V46.933
	C119.467,32.794,130.927,21.333,145.067,21.333z"/>
<path style="fill:#999999;" d="M503.467,439.467v25.6c0,14.14-11.46,25.6-25.6,25.6H34.133c-14.14,0-25.6-11.46-25.6-25.6v-25.6
	H179.2l17.067,17.067h119.467l17.067-17.067H503.467z"/>
<path style="fill:#C69C6D;" d="M238.933,328.533h34.133v59.733h-34.133V328.533z"/>
<circle style="fill:#29ABE2;" cx="256" cy="209.067" r="76.8"/>
<path style="fill:#0071BC;" d="M145.067,21.333h221.867c14.14,0,25.6,11.46,25.6,25.6V89.6H119.467V46.933
	C119.467,32.794,130.927,21.333,145.067,21.333z"/>
<path d="M204.8,209.067h17.067c0-18.85,15.283-34.133,34.133-34.133v-17.067C227.738,157.892,204.826,180.804,204.8,209.067z"/>
<path d="M503.467,430.933h-8.533v-307.2c0-18.85-15.283-34.133-34.133-34.133h-59.733V46.933c0-18.85-15.283-34.133-34.133-34.133
	H145.067c-18.85,0-34.133,15.283-34.133,34.133V89.6H51.2c-18.85,0-34.133,15.283-34.133,34.133v307.2H8.533
	c-4.71,0-8.533,3.823-8.533,8.533v25.6c0,18.85,15.283,34.133,34.133,34.133h443.733c18.85,0,34.133-15.283,34.133-34.133v-25.6
	C512,434.756,508.177,430.933,503.467,430.933z M401.067,149.333H435.2v230.4h-34.133V149.333z M128,46.933
	c0-9.429,7.637-17.067,17.067-17.067h221.867c9.429,0,17.067,7.637,17.067,17.067v34.133H128V46.933z M128,98.133h256v281.6H281.6
	v-51.2c0-4.71-3.823-8.533-8.533-8.533h-8.533v-26.035c46.891-4.71,81.084-46.549,76.373-93.44
	c-4.71-46.891-46.549-81.084-93.44-76.373c-46.891,4.71-81.084,46.549-76.373,93.44c4.062,40.38,35.994,72.311,76.373,76.373V320
	h-8.533c-4.71,0-8.533,3.823-8.533,8.533v51.2H128V98.133z M264.533,337.067v42.667h-17.067v-42.667H264.533z M256,277.333
	c-37.7,0-68.267-30.566-68.267-68.267S218.3,140.8,256,140.8s68.267,30.566,68.267,68.267
	C324.224,246.75,293.683,277.291,256,277.333z M34.133,123.733c0-9.429,7.637-17.067,17.067-17.067h59.733v25.6H68.267
	c-4.71,0-8.533,3.823-8.533,8.533v247.467c0,4.71,3.823,8.533,8.533,8.533h375.467c4.71,0,8.533-3.823,8.533-8.533V140.8
	c0-4.71-3.823-8.533-8.533-8.533h-42.667v-25.6H460.8c9.429,0,17.067,7.637,17.067,17.067v307.2H332.8
	c-2.261,0-4.429,0.896-6.033,2.492L312.201,448H199.799l-14.566-14.575c-1.604-1.596-3.772-2.492-6.033-2.492H34.133L34.133,123.733
	z M110.933,149.333v230.4H76.8v-230.4H110.933z M494.933,465.067c0,9.429-7.637,17.067-17.067,17.067H34.133
	c-9.429,0-17.067-7.637-17.067-17.067V448h158.601l14.566,14.566c1.596,1.604,3.772,2.5,6.033,2.5h119.467
	c2.261,0,4.437-0.896,6.033-2.5L336.333,448h158.601V465.067z"/>
<path d="M247.467,413.867h17.067v17.067h-17.067V413.867z"/>
<path d="M145.067,46.933h17.067V64h-17.067V46.933z"/>
<path d="M179.2,46.933h17.067V64H179.2V46.933z"/>
<path d="M213.333,46.933H230.4V64h-17.067V46.933z"/>
<path d="M270.66,178.227c4.113,1.963,7.799,4.727,10.829,8.141l12.749-11.341c-4.523-5.12-10.044-9.267-16.213-12.203
	L270.66,178.227z"/>
<g>
</g>
<g>
</g>
<g>
</g>
<g>
</g>
<g>
</g>
<g>
</g>
<g>
</g>
<g>
</g>
<g>
</g>
<g>
</g>
<g>
</g>
<g>
</g>
<g>
</g>
<g>
</g>
<g>
</g>
</svg>
