<?xml version="1.0" encoding="iso-8859-1"?>
<!-- Generator: Adobe Illustrator 19.0.0, SVG Export Plug-In . SVG Version: 6.00 Build 0)  -->
<svg version="1.1" id="Layer_1" xmlns="http://www.w3.org/2000/svg" xmlns:xlink="http://www.w3.org/1999/xlink" x="0px" y="0px"
	 viewBox="0 0 504.123 504.123" style="enable-background:new 0 0 504.123 504.123;" xml:space="preserve">
<path style="fill:#324D5B;" d="M50.018,204.8h404.086c18.905,0,34.265,15.754,34.265,35.052v189.834
	c0,19.298-15.36,35.052-34.265,35.052H50.018c-18.905,0-34.265-15.754-34.265-35.052V239.852
	C15.754,220.554,31.114,204.8,50.018,204.8z"/>
<path style="fill:#2D4552;" d="M15.754,252.062h472.615v15.754H15.754V252.062z"/>
<path style="fill:#3B5665;" d="M498.609,122.092c-10.634-10.634-17.723-16.935-27.963-27.569c-3.545-3.545-9.846-7.877-13.391-7.877
	H47.262c-4.332,0-9.846,4.332-13.391,7.877c-9.058,9.058-17.329,16.935-27.963,27.569C2.363,125.243,0,133.12,0,138.24v98.068
	c0,8.665,7.089,15.754,15.754,15.754h472.615c8.665,0,15.754-7.089,15.754-15.754V138.24
	C504.123,133.908,501.76,125.637,498.609,122.092z"/>
<path style="fill:#4F6775;" d="M488.369,236.308H15.754C7.089,236.308,0,229.218,0,220.554v15.754
	c0,8.665,7.089,15.754,15.754,15.754h472.615c8.665,0,15.754-7.089,15.754-15.754v-15.36
	C504.123,229.218,497.034,236.308,488.369,236.308z M502.548,129.969c-0.788-3.151-2.363-6.302-4.332-7.877
	c-10.634-10.634-17.723-16.935-27.963-27.569c-3.545-3.545-9.846-7.877-13.391-7.877h-409.6c-4.332,0-9.846,4.332-13.391,7.877
	c-9.058,9.058-17.329,16.935-27.963,27.569c-1.969,1.575-3.545,4.726-4.332,7.877H502.548z"/>
<path style="fill:#D07C40;" d="M82.708,129.969v222.917c0,11.422,8.665,28.751,19.298,28.751s20.086-17.329,20.086-28.751V129.969
	l23.631-43.323h-38.597L82.708,129.969z M396.997,86.646H358.4l23.631,43.323v222.917c0,11.422,9.452,28.751,20.086,28.751
	s19.298-17.329,19.298-28.751V129.969L396.997,86.646z"/>
<path style="fill:#622A02;" d="M102.4,185.108c-4.332,0-7.877,3.545-7.877,7.877s3.545,7.877,7.877,7.877s7.877-3.545,7.877-7.877
	C110.277,188.652,106.732,185.108,102.4,185.108z M102.4,224.492c-4.332,0-7.877,3.545-7.877,7.877s3.545,7.877,7.877,7.877
	s7.877-3.545,7.877-7.877S106.732,224.492,102.4,224.492z M102.4,263.877c-4.332,0-7.877,3.545-7.877,7.877s3.545,7.877,7.877,7.877
	s7.877-3.545,7.877-7.877C110.277,267.422,106.732,263.877,102.4,263.877z M401.723,200.862c4.332,0,7.877-3.545,7.877-7.877
	s-3.545-7.877-7.877-7.877s-7.877,3.545-7.877,7.877C393.846,197.317,397.391,200.862,401.723,200.862z M401.723,224.492
	c-4.332,0-7.877,3.545-7.877,7.877s3.545,7.877,7.877,7.877s7.877-3.545,7.877-7.877S406.055,224.492,401.723,224.492z
	 M401.723,263.877c-4.332,0-7.877,3.545-7.877,7.877s3.545,7.877,7.877,7.877s7.877-3.545,7.877-7.877
	C409.6,267.422,406.055,263.877,401.723,263.877z"/>
<path style="fill:#E4E7E7;" d="M126.031,307.2H78.769c-4.332,0-7.877,3.545-7.877,7.877v15.754c0,4.332,3.545,7.877,7.877,7.877
	h47.262c4.332,0,7.877-3.545,7.877-7.877v-15.754C133.908,310.745,130.363,307.2,126.031,307.2z M425.354,307.2h-47.262
	c-4.332,0-7.877,3.545-7.877,7.877v15.754c0,4.332,3.545,7.877,7.877,7.877h47.262c4.332,0,7.877-3.545,7.877-7.877v-15.754
	C433.231,310.745,429.686,307.2,425.354,307.2z"/>
<path style="fill:#2D4552;" d="M191.015,94.523c-11.815,0-21.662,5.12-21.662,11.815s9.846,11.815,21.662,11.815
	s21.662-5.12,21.662-11.815C212.677,100.037,202.831,94.523,191.015,94.523z M313.108,94.523c-11.815,0-21.662,5.12-21.662,11.815
	s9.846,11.815,21.662,11.815c11.815,0,21.662-5.12,21.662-11.815C334.769,100.037,324.923,94.523,313.108,94.523z"/>
<path style="fill:#E4E7E7;" d="M313.108,39.385H191.015c-7.483,0-13.785,6.302-13.785,13.785v49.23
	c0,4.332,6.302,7.877,13.785,7.877s13.785-3.545,13.785-7.877V66.954h94.523V102.4c0,4.332,6.302,7.877,13.785,7.877
	s13.785-3.545,13.785-7.877V53.169C326.892,45.686,320.591,39.385,313.108,39.385z"/>
<path style="fill:#D58953;" d="M82.708,129.969h39.385l23.631-43.323h-38.597L82.708,129.969z M396.997,86.646H358.4l23.631,43.323
	h39.385L396.997,86.646z"/>
<g>
</g>
<g>
</g>
<g>
</g>
<g>
</g>
<g>
</g>
<g>
</g>
<g>
</g>
<g>
</g>
<g>
</g>
<g>
</g>
<g>
</g>
<g>
</g>
<g>
</g>
<g>
</g>
<g>
</g>
</svg>
