<?xml version="1.0" encoding="iso-8859-1"?>
<!-- Generator: Adobe Illustrator 19.0.0, SVG Export Plug-In . SVG Version: 6.00 Build 0)  -->
<svg version="1.1" id="Capa_1" xmlns="http://www.w3.org/2000/svg" xmlns:xlink="http://www.w3.org/1999/xlink" x="0px" y="0px"
	 viewBox="0 0 512 512" style="enable-background:new 0 0 512 512;" xml:space="preserve">
<path style="fill:#62BEFF;" d="M282.483,68.467c62.464,0.044,120.258,33.077,152.011,86.863
	c-17.117-3.143-32.945-11.211-45.55-23.217c-3.708-3.531-7.592-6.886-11.564-9.975c-29.475-23.446-66.057-36.149-103.724-36.017
	h-35.31c-37.667-0.132-74.249,12.57-103.724,36.017c-3.972,3.178-7.857,6.532-11.564,9.975
	c-12.606,12.006-28.434,20.074-45.55,23.217c31.753-53.786,89.547-86.819,152.011-86.863
	C229.517,68.467,282.483,68.467,282.483,68.467z"/>
<g>
	<path style="fill:#002874;" d="M476.69,245.018v211.862h-17.655V245.018c0.026-24.373-5.032-48.481-14.83-70.797
		c2.03,0.088,3.972,0.177,6.003,0.177v-17.655l4.061-2.119C469.036,182.466,476.734,213.504,476.69,245.018z"/>
	<path style="fill:#002874;" d="M450.207,156.743v17.655c-2.03,0-3.972-0.088-6.003-0.177c-2.834-6.497-6.073-12.809-9.71-18.891
		C439.676,156.292,444.937,156.76,450.207,156.743z"/>
	<path style="fill:#002874;" d="M388.943,132.114c12.606,12.006,28.434,20.074,45.55,23.217c3.637,6.082,6.877,12.394,9.71,18.891
		c-25.238-1.492-49.134-11.873-67.443-29.308c-3.266-3.09-6.797-6.091-10.328-8.916c-26.359-20.974-59.092-32.344-92.778-32.221
		h-35.31c-33.686-0.124-66.419,11.246-92.778,32.221c-3.619,2.825-7.062,5.826-10.328,8.916
		c-18.3,17.452-42.196,27.833-67.443,29.308c2.834-6.497,6.073-12.809,9.71-18.891c17.117-3.143,32.945-11.211,45.55-23.217
		c3.708-3.443,7.592-6.797,11.564-9.975c29.475-23.446,66.057-36.149,103.724-36.017h35.31
		c37.667-0.132,74.249,12.57,103.724,36.017C381.352,125.228,385.236,128.583,388.943,132.114z"/>
	<path style="fill:#002874;" d="M282.483,50.812c72.086,0.062,138.214,40.024,171.785,103.812l-4.061,2.119
		c-5.27,0.018-10.531-0.45-15.713-1.412c-31.753-53.786-89.547-86.819-152.011-86.863h-52.966
		c-62.464,0.044-120.258,33.077-152.011,86.863c-5.182,0.962-10.443,1.43-15.713,1.412l-4.061-2.119
		C91.304,90.836,157.431,50.873,229.517,50.812H282.483z"/>
	<path style="fill:#002874;" d="M77.506,155.33c-3.637,6.082-6.877,12.394-9.71,18.891c-2.03,0.088-3.972,0.177-6.003,0.177v-17.655
		C67.063,156.76,72.324,156.292,77.506,155.33z"/>
	<path style="fill:#002874;" d="M61.793,174.398c2.03,0,3.972-0.088,6.003-0.177c-9.799,22.316-14.857,46.424-14.83,70.797v211.862
		H35.31V245.018c-0.044-31.514,7.654-62.552,22.422-90.394l4.061,2.119V174.398z"/>
	<path style="fill:#002874;" d="M459.034,306.812h35.31c9.754,0,17.655,7.901,17.655,17.655v114.759
		c0,9.754-7.901,17.655-17.655,17.655h-35.31c-14.627,0-26.483-11.855-26.483-26.483v-97.103
		C432.552,318.667,444.407,306.812,459.034,306.812z"/>
	<path style="fill:#002874;" d="M17.655,306.812h35.31c14.627,0,26.483,11.855,26.483,26.483v97.103
		c0,14.627-11.855,26.483-26.483,26.483h-35.31C7.901,456.881,0,448.98,0,439.225V324.467C0,314.712,7.901,306.812,17.655,306.812z"
		/>
</g>
<g>
	<path style="fill:#FFCD61;" d="M163.151,461.188l-12.473-12.5c34.472-34.472,34.472-90.368,0-124.84l12.482-12.482
		c41.375,41.366,41.375,108.438,0.009,149.813C163.169,461.18,163.16,461.188,163.151,461.188L163.151,461.188z"/>
	<path style="fill:#FFCD61;" d="M138.196,436.206l-12.482-12.482c20.683-20.683,20.692-54.219,0.009-74.902c0,0,0,0-0.009-0.009
		l12.482-12.482C165.773,363.908,165.773,408.62,138.196,436.206L138.196,436.206z"/>
	<path style="fill:#FFCD61;" d="M113.24,411.224l-12.482-12.482c6.894-6.894,6.894-18.07,0-24.964l12.482-12.482
		C127.029,375.084,127.029,397.436,113.24,411.224z"/>
	<path style="fill:#FFCD61;" d="M348.849,461.188c-41.375-41.366-41.375-108.438-0.009-149.813l0.009-0.009l12.482,12.482
		c-34.472,34.472-34.472,90.368,0,124.84L348.849,461.188z"/>
	<path style="fill:#FFCD61;" d="M373.804,436.206c-27.577-27.577-27.577-72.289,0-99.875l0,0l12.482,12.482
		c-20.683,20.683-20.692,54.219-0.009,74.902c0,0,0,0,0.009,0.009L373.804,436.206z"/>
	<path style="fill:#FFCD61;" d="M398.76,411.224c-13.789-13.789-13.789-36.14,0-49.929l12.482,12.482
		c-6.894,6.894-6.894,18.07,0,24.964L398.76,411.224z"/>
</g>
<g>
</g>
<g>
</g>
<g>
</g>
<g>
</g>
<g>
</g>
<g>
</g>
<g>
</g>
<g>
</g>
<g>
</g>
<g>
</g>
<g>
</g>
<g>
</g>
<g>
</g>
<g>
</g>
<g>
</g>
</svg>
