<?xml version="1.0" encoding="iso-8859-1"?>
<!-- Generator: Adobe Illustrator 19.0.0, SVG Export Plug-In . SVG Version: 6.00 Build 0)  -->
<svg xmlns="http://www.w3.org/2000/svg" xmlns:xlink="http://www.w3.org/1999/xlink" version="1.1" id="Layer_1" x="0px" y="0px" viewBox="0 0 511.994 511.994" style="enable-background:new 0 0 511.994 511.994;" xml:space="preserve" width="512" height="512">
<g id="XMLID_1696_">
	<g id="XMLID_232_">
		<path id="XMLID_233_" style="fill:#E2FFFE;" d="M504.497,62.315v398.14c0,5.008-4.06,9.068-9.068,9.068H16.565    c-5.008,0-9.068-4.06-9.068-9.068V62.304c0-10.955,8.881-19.836,19.836-19.836h457.329    C495.611,42.469,504.497,51.355,504.497,62.315z"/>
		<path id="XMLID_234_" style="fill:#B0D1CF;" d="M504.497,62.315v70.932h-497V62.315c0-10.96,8.886-19.847,19.836-19.847h457.329    C495.611,42.469,504.497,51.355,504.497,62.315z"/>
		<path id="XMLID_1650_" style="fill:#5089DD;" d="M504.494,117.382H7.5V62.31c0-10.956,8.882-19.838,19.838-19.838h457.318    c10.956,0,19.838,8.882,19.838,19.838V117.382z"/>
		<path id="XMLID_1648_" style="fill:#72F2EB;" d="M398.944,331.938H121.7c-11.69,0-21.167-9.477-21.167-21.167v0    c0-11.69,9.477-21.167,21.167-21.167h277.244c11.69,0,21.167,9.477,21.167,21.167v0    C420.111,322.461,410.634,331.938,398.944,331.938z"/>
	</g>
	<g id="XMLID_200_">
		<path id="XMLID_169_" d="M484.656,34.972H146.973c-4.143,0-7.5,3.358-7.5,7.5s3.357,7.5,7.5,7.5h337.684    c6.803,0,12.338,5.535,12.338,12.338v47.418c-12.891-0.217-25.591-0.167-37.846,0.157c-4.141,0.109-7.408,3.555-7.299,7.695    c0.109,4.142,3.598,7.413,7.695,7.3c12.12-0.32,24.688-0.367,37.449-0.15v335.725c0,0.864-0.703,1.567-1.567,1.567H16.567    c-0.864,0-1.567-0.703-1.567-1.567V124.864c136.585-0.365,274.954-0.361,411.425,0.018c0.007,0,0.014,0,0.021,0    c4.133,0,7.488-3.344,7.5-7.479c0.012-4.142-3.337-7.509-7.479-7.521c-136.482-0.379-274.868-0.383-411.466-0.018V62.31    c0-6.803,5.535-12.338,12.338-12.338h89.017c4.143,0,7.5-3.358,7.5-7.5s-3.357-7.5-7.5-7.5H27.338C12.264,34.972,0,47.236,0,62.31    v398.145c0,9.135,7.432,16.567,16.567,16.567h478.859c9.136,0,16.567-7.432,16.567-16.567V62.31    C511.994,47.236,499.73,34.972,484.656,34.972z"/>
		<path id="XMLID_287_" d="M66.658,81.312c0,4.142,3.357,7.5,7.5,7.5h267.531c4.143,0,7.5-3.358,7.5-7.5s-3.357-7.5-7.5-7.5H74.158    C70.016,73.812,66.658,77.169,66.658,81.312z"/>
		<path id="XMLID_288_" d="M385.46,80.578v-1.303c0-4.142-3.357-7.5-7.5-7.5s-7.5,3.358-7.5,7.5v1.303c0,4.142,3.357,7.5,7.5,7.5    S385.46,84.72,385.46,80.578z"/>
		<path id="XMLID_167_" d="M415.397,80.578v-1.303c0-4.142-3.357-7.5-7.5-7.5s-7.5,3.358-7.5,7.5v1.303c0,4.142,3.357,7.5,7.5,7.5    S415.397,84.72,415.397,80.578z"/>
		<path id="XMLID_166_" d="M437.836,88.078c4.143,0,7.5-3.358,7.5-7.5v-1.303c0-4.142-3.357-7.5-7.5-7.5s-7.5,3.358-7.5,7.5v1.303    C430.336,84.72,433.693,88.078,437.836,88.078z"/>
		<path id="XMLID_296_" d="M112.186,364.157v1.302c0,4.142,3.357,7.5,7.5,7.5s7.5-3.358,7.5-7.5v-1.302c0-4.142-3.357-7.5-7.5-7.5    S112.186,360.015,112.186,364.157z"/>
		<path id="XMLID_298_" d="M142.123,364.157v1.302c0,4.142,3.357,7.5,7.5,7.5s7.5-3.358,7.5-7.5v-1.302c0-4.142-3.357-7.5-7.5-7.5    S142.123,360.015,142.123,364.157z"/>
		<path id="XMLID_300_" d="M334.129,212.924c0-4.142-3.357-7.5-7.5-7.5H194.015c-4.143,0-7.5,3.358-7.5,7.5s3.357,7.5,7.5,7.5    h132.614C330.771,220.424,334.129,217.066,334.129,212.924z"/>
		<path id="XMLID_301_" d="M230.852,238.335c-4.143,0-7.5,3.358-7.5,7.5s3.357,7.5,7.5,7.5h58.94c4.143,0,7.5-3.358,7.5-7.5    s-3.357-7.5-7.5-7.5H230.852z"/>
		<path id="XMLID_324_" d="M370.268,357.308c-4.143,0-7.5,3.358-7.5,7.5s3.357,7.5,7.5,7.5h20.959c4.143,0,7.5-3.358,7.5-7.5    s-3.357-7.5-7.5-7.5H370.268z"/>
		<path id="XMLID_165_" d="M427.61,310.771c0-15.807-12.859-28.667-28.666-28.667H121.699c-15.807,0-28.666,12.86-28.666,28.667    c0,15.807,12.859,28.667,28.666,28.667h82.655c4.143,0,7.5-3.358,7.5-7.5s-3.357-7.5-7.5-7.5h-82.655    c-7.535,0-13.666-6.131-13.666-13.667c0-7.536,6.131-13.667,13.666-13.667h277.245c7.535,0,13.666,6.131,13.666,13.667    c0,7.536-6.131,13.667-13.666,13.667H234.973c-4.143,0-7.5,3.358-7.5,7.5s3.357,7.5,7.5,7.5h163.972    C414.751,339.438,427.61,326.578,427.61,310.771z"/>
	</g>
</g>















</svg>
