<?xml version="1.0" encoding="iso-8859-1"?>
<!-- Generator: Adobe Illustrator 19.0.0, SVG Export Plug-In . SVG Version: 6.00 Build 0)  -->
<svg version="1.1" id="Layer_1" xmlns="http://www.w3.org/2000/svg" xmlns:xlink="http://www.w3.org/1999/xlink" x="0px" y="0px"
	 viewBox="0 0 503.729 503.729" style="enable-background:new 0 0 503.729 503.729;" xml:space="preserve">
<path style="fill:#2B414D;" d="M51.003,330.585H39.188c-0.394,45.292-7.877,63.015-7.877,63.015l43.323,7.877
	C74.634,401.477,51.003,371.938,51.003,330.585z M51.003,232.123H39.188v90.585h11.815V232.123z M51.003,330.585H39.188
	c-0.394,45.292-7.877,63.015-7.877,63.015l43.323,7.877C74.634,401.477,51.003,371.938,51.003,330.585z M51.003,232.123H39.188
	v90.585h11.815V232.123z"/>
<path style="fill:#475F6C;" d="M45.095,310.892c11.815,0,21.662,9.846,21.662,21.662c0,11.815-9.846,21.662-21.662,21.662
	s-21.662-9.452-21.662-21.662C23.434,320.738,33.28,310.892,45.095,310.892z"/>
<path style="fill:#2B414D;" d="M5.317,215.582l233.551-110.671c7.089-3.545,18.905-3.545,25.994,0l233.551,110.671
	c7.089,3.545,7.089,9.846,0,13.391l-233.551,110.67c-7.089,3.545-18.905,3.545-25.994,0L5.317,228.972
	C-1.772,225.428-1.772,219.126,5.317,215.582z M251.865,274.658c74.043,0,133.908,26.782,133.908,59.471
	S325.908,393.6,251.865,393.6s-133.908-26.782-133.908-59.471S177.822,274.658,251.865,274.658z"/>
<path style="fill:#455E6B;" d="M373.957,243.545c0-27.963-54.351-50.806-121.698-50.806c-66.954,0-121.305,22.449-121.698,50.412
	c0,0-12.997,91.372-12.603,91.372c0-26.782,56.32-59.471,134.302-59.471c72.468,0,126.425,33.871,133.514,59.077
	C385.772,334.129,373.957,243.545,373.957,243.545z"/>
<path style="fill:#4B6370;" d="M259.742,192.738v82.708c68.529,2.363,118.942,34.658,126.031,59.077l-11.815-90.978
	C373.957,216.369,323.545,194.708,259.742,192.738z"/>
<g>
</g>
<g>
</g>
<g>
</g>
<g>
</g>
<g>
</g>
<g>
</g>
<g>
</g>
<g>
</g>
<g>
</g>
<g>
</g>
<g>
</g>
<g>
</g>
<g>
</g>
<g>
</g>
<g>
</g>
</svg>
