<svg height="511pt" viewBox="-42 0 511 511.99969" width="511pt" xmlns="http://www.w3.org/2000/svg"><path d="m256.511719 324.257812h93.875c37.703125 0 68.269531 30.5625 68.269531 68.269532v110.9375h-409.621094v-110.9375c0-37.707032 30.5625-68.269532 68.269532-68.269532zm0 0" fill="#c38325"/><path d="m287.292969 137.589844c18.253906-4.714844 36.875 6.261718 41.585937 24.515625.722656 2.792969 1.085938 5.660156 1.085938 8.542969 28.25-.003907 51.15625 22.890624 51.160156 51.140624.003906 13.027344-4.964844 25.5625-13.886719 35.050782 13.664063 30.03125.394531 65.449218-29.636719 79.113281-17.890624 8.136719-38.636718 6.953125-55.488281-3.160156h-148.425781c-28.226562 17.035156-64.917969 7.964843-81.953125-20.261719-10.199219-16.898438-11.386719-37.742188-3.171875-55.691406-19.351562-20.578125-18.355469-52.953125 2.226562-72.304688 9.488282-8.921875 22.023438-13.886718 35.046876-13.886718-.003907-18.851563 15.277343-34.136719 34.128906-34.140626 5.996094-.003906 11.882812 1.574219 17.074218 4.570313zm0 0" fill="#a8a8a8"/><path d="m137.039062 255.984375v-145.074219h153.609376v145.074219l-34.136719 17.070313h-93.871094zm0 0" fill="#fdc9a6"/><path d="m137.039062 59.710938h153.609376v59.734374h-153.609376zm0 0" fill="#176177"/><path d="m213.84375 8.507812-119.472656 42.667969 119.472656 34.132813 119.472656-34.132813zm0 0" fill="#1f6c8c"/><path d="m171.175781 213.316406c-4.714843 0-8.535156-3.820312-8.535156-8.53125v-8.535156c0-4.714844 3.820313-8.535156 8.535156-8.535156 4.714844 0 8.535157 3.820312 8.535157 8.535156v8.535156c0 4.710938-3.824219 8.53125-8.535157 8.53125zm0 0" fill="#834b10"/><path d="m256.511719 213.316406c-4.710938 0-8.53125-3.820312-8.53125-8.53125v-8.535156c0-4.714844 3.820312-8.535156 8.53125-8.535156 4.714843 0 8.535156 3.820312 8.535156 8.535156v8.535156c0 4.710938-3.820313 8.53125-8.535156 8.53125zm0 0" fill="#834b10"/><path d="m247.980469 162.113281h-68.269531c-4.714844 0-8.535157-3.820312-8.535157-8.53125 0-4.714843 3.820313-8.535156 8.535157-8.535156h68.269531c4.710937 0 8.53125 3.820313 8.53125 8.535156 0 4.710938-3.820313 8.53125-8.53125 8.53125zm0 0" fill="#eeb58e"/><path d="m230.910156 435.195312h-34.132812l-8.535156-34.132812h51.203124zm0 0" fill="#c7463b"/><path d="m239.445312 503.464844h-51.203124l8.535156-68.269532h34.132812zm0 0" fill="#dc4d41"/><path d="m316.25 477.863281h-42.667969c-4.714843 0-8.535156-3.820312-8.535156-8.53125 0-4.714843 3.820313-8.535156 8.535156-8.535156h42.667969c4.710938 0 8.535156 3.820313 8.535156 8.535156 0 4.710938-3.824218 8.53125-8.535156 8.53125zm0 0" fill="#a45e14"/><path d="m154.109375 477.863281h-42.671875c-4.710938 0-8.53125-3.820312-8.53125-8.53125 0-4.714843 3.820312-8.535156 8.53125-8.535156h42.671875c4.710937 0 8.53125 3.820313 8.53125 8.535156 0 4.710938-3.820313 8.53125-8.53125 8.53125zm0 0" fill="#a45e14"/><path d="m9.035156 469.332031h68.269532v34.132813h-68.269532zm0 0" fill="#fdc9a6"/><path d="m350.386719 469.332031h68.269531v34.132813h-68.269531zm0 0" fill="#fdc9a6"/><path d="m179.710938 392.527344-34.136719-42.667969 8.535156 85.335937 51.199219-34.132812zm0 0" fill="#a45e14"/><path d="m247.980469 392.527344 34.132812-42.667969-8.53125 85.335937-51.203125-34.132812zm0 0" fill="#a45e14"/><path d="m256.511719 264.519531-42.667969-8.535156-42.667969 8.535156-34.136719-14.625v73.996094c-.101562 42.417969 34.203126 76.886719 76.621094 76.988281 42.417969.101563 76.886719-34.203125 76.988282-76.621094v-79.246093zm0 0" fill="#b9b9b9"/><path d="m213.84375 303.136719c-6.621094.007812-13.152344-1.527344-19.082031-4.480469l-1.800781-.855469c-4.21875-2.105469-5.929688-7.234375-3.820313-11.453125 2.105469-4.214844 7.234375-5.929687 11.449219-3.820312l1.800781.902344c7.214844 3.585937 15.691406 3.585937 22.90625 0l1.800781-.902344c4.21875-2.109375 9.34375-.394532 11.453125 3.820312 2.105469 4.21875.394531 9.347656-3.824219 11.453125l-1.800781.855469c-5.925781 2.953125-12.460937 4.488281-19.082031 4.480469zm0 0" fill="#834b10"/><path d="m213.84375 264.519531c-2.261719 0-4.433594-.898437-6.03125-2.5l-17.070312-17.066406c-3.328126-3.332031-3.328126-8.734375 0-12.066406l17.070312-17.070313c3.390625-3.273437 8.792969-3.179687 12.066406.210938 3.195313 3.308594 3.195313 8.550781 0 11.859375l-11.035156 11.03125 11.035156 11.035156c3.332032 3.332031 3.332032 8.738281-.003906 12.070313-1.597656 1.597656-3.769531 2.496093-6.03125 2.496093zm0 0" fill="#834b10"/><path d="m171.175781 213.316406c4.714844 0 8.535157-3.820312 8.535157-8.53125v-8.535156c0-4.714844-3.820313-8.535156-8.535157-8.535156-4.714843 0-8.535156 3.820312-8.535156 8.535156v8.535156c0 4.710938 3.820313 8.53125 8.535156 8.53125zm0 0"/><path d="m247.980469 196.25v8.535156c0 4.710938 3.820312 8.53125 8.53125 8.53125 4.714843 0 8.535156-3.820312 8.535156-8.53125v-8.535156c0-4.714844-3.820313-8.535156-8.535156-8.535156-4.710938 0-8.53125 3.820312-8.53125 8.535156zm0 0"/><path d="m179.710938 162.113281h68.269531c4.710937 0 8.53125-3.820312 8.53125-8.53125 0-4.714843-3.820313-8.535156-8.53125-8.535156h-68.269531c-4.714844 0-8.535157 3.820313-8.535157 8.535156 0 4.710938 3.820313 8.53125 8.535157 8.53125zm0 0"/><path d="m227.097656 282.441406-1.800781.902344c-7.214844 3.585938-15.691406 3.585938-22.90625 0l-1.800781-.902344c-4.21875-2.105468-9.34375-.394531-11.449219 3.824219-2.109375 4.21875-.398437 9.34375 3.820313 11.449219l1.800781.855468c12.019531 5.972657 26.144531 5.972657 38.164062 0l1.800781-.855468c4.21875-2.105469 5.929688-7.234375 3.824219-11.449219-2.109375-4.21875-7.234375-5.929687-11.453125-3.824219zm0 0"/><path d="m370.328125 318.359375c11.496094-17.804687 14-39.960937 6.777344-59.882813 20.253906-26.003906 15.59375-63.503906-10.410157-83.761718-8.398437-6.542969-18.394531-10.71875-28.949218-12.097656-3.683594-18.808594-19.457032-32.851563-38.5625-34.339844v-58.472656l36.472656-10.429688c4.523438-1.316406 7.125-6.054688 5.808594-10.578125-.761719-2.613281-2.722656-4.707031-5.28125-5.636719l-119.472656-42.667968c-1.855469-.65625-3.878907-.65625-5.734376 0l-119.472656 42.671874c-4.429687 1.609376-6.714844 6.503907-5.105468 10.933594.929687 2.558594 3.023437 4.519532 5.632812 5.277344l36.476562 10.429688v59.128906c-22.769531-4.9375-45.226562 9.519531-50.164062 32.285156-.101562.464844-.195312.929688-.28125 1.398438-32.683594 4.261718-55.722656 34.207031-51.464844 66.890624 1.378906 10.5625 5.558594 20.566407 12.109375 28.96875-7.710937 21.242188-4.316406 44.929688 9.054688 63.152344-28.636719 11.910156-47.285157 39.886719-47.261719 70.898438v110.9375c0 4.714844 3.820312 8.535156 8.535156 8.535156h409.621094c4.710938 0 8.535156-3.820312 8.535156-8.535156v-110.9375c-.054687-34.71875-23.351562-65.101563-56.863281-74.167969zm39.792969 74.167969v68.269531h-51.203125v-25.601563c0-4.714843-3.820313-8.535156-8.53125-8.535156-4.714844 0-8.535157 3.820313-8.535157 8.535156v59.738282h-94.871093l-7.40625-59.21875 2.773437-11.09375 26.453125 17.664062c3.921875 2.617188 9.21875 1.558594 11.835938-2.359375.777343-1.164062 1.253906-2.496093 1.394531-3.886719l7.199219-71.988281c2.789062-5.28125 5.003906-10.84375 6.617187-16.589843 21.578125 5.960937 44.710938.617187 61.492188-14.203126 30.070312 3.527344 52.75 28.992188 52.78125 59.269532zm-210.945313 17.066406h29.339844l-4.269531 17.066406h-20.804688zm-44.511719-51.441406c-.324218-1.132813-.890624-2.183594-1.65625-3.082032-4.882812-9.539062-7.429687-20.097656-7.433593-30.8125v-61.445312l22.238281 9.53125c1.585938.683594 3.34375.867188 5.035156.523438l40.960938-8.195313 40.964844 8.195313c.570312.125 1.152343.1875 1.738281.1875 1.496093.003906 2.96875-.382813 4.269531-1.128907l21.332031-12.210937v64.542968c.007813 11.128907-2.726562 22.085938-7.960937 31.90625-.359375.507813-.664063 1.050782-.90625 1.621094-18.425782 32.8125-59.964844 44.476563-92.78125 26.046875-10.78125-6.054687-19.714844-14.933593-25.835938-25.679687zm93.015626 44.980468c.050781-.195312 0-.398437 0-.597656 7.976562-3.480468 15.371093-8.160156 21.933593-13.875l-3.15625 31.574219-19.714843-13.199219zm34.433593-163.070312-27.058593 15.464844-37.003907-7.402344-9.207031-9.207031 11.035156-11.035157c3.273438-3.386718 3.179688-8.792968-.210937-12.066406-3.308594-3.191406-8.550781-3.191406-11.855469 0l-17.070312 17.070313c-3.328126 3.332031-3.328126 8.734375 0 12.066406l5.796874 5.792969-24.441406 4.882812-26.523437-11.359375v-116.289062h136.539062zm-102.15625 162.472656v.597656l.980469 3.910157-19.765625 13.175781-3.148437-31.574219c6.5625 5.71875 13.957031 10.40625 21.933593 13.890625zm24.355469 41.195313h19.0625l6.402344 51.203125h-31.867188zm117.117188-273.082031c0 4.714843 3.820312 8.535156 8.535156 8.535156 23.535156-.027344 42.636718 19.03125 42.664062 42.570312.011719 10.886719-4.144531 21.363282-11.609375 29.28125-2.378906 2.523438-2.992187 6.234375-1.554687 9.390625 3.054687 6.636719 4.636718 13.855469 4.632812 21.160157.261719 28.019531-22.238281 50.945312-50.257812 51.203124-5.070313.050782-10.121094-.664062-14.980469-2.113281.160156-2.125.324219-4.269531.324219-6.417969v-178.871093c12.699218 1.652343 22.210937 12.453125 22.246094 25.261719zm-107.585938-153.078126 91.566406 32.699219-91.566406 26.164063-91.566406-26.164063zm-2.335938 75.949219c1.527344.445313 3.148438.445313 4.675782 0l65.929687-18.84375v36.234375h-136.539062v-36.234375zm-125.671874 85.664063c4.714843 0 8.535156-3.820313 8.535156-8.535156-.246094-13.890626 10.816406-25.355469 24.707031-25.601563 3.21875-.054687 6.421875.503906 9.429687 1.65625v177.554687c0 .535157.066407 1.046876.074219 1.585938-24.390625 14.226562-55.695312 5.984375-69.917969-18.40625-8.378906-14.359375-9.25-31.894531-2.335937-47.015625 1.4375-3.152344.824219-6.863281-1.554687-9.386719-16.144532-17.125-15.351563-44.097656 1.773437-60.242187 7.921875-7.46875 18.402344-11.625 29.289063-11.609375zm-25.027344 156.039062c19.898437 15.75 46.929687 19.066406 70.042968 8.59375 1.648438 7.042969 4.191407 13.84375 7.5625 20.242188l.957032 9.566406 6.246094 62.425781c.46875 4.6875 4.652343 8.109375 9.34375 7.636719 1.386718-.140625 2.722656-.617188 3.882812-1.390625l26.496094-17.675781 2.773437 11.09375-7.40625 59.21875h-94.871093v-59.738282c0-4.714843-3.820313-8.535156-8.53125-8.535156-4.714844 0-8.535157 3.820313-8.535157 8.535156v25.601563h-51.203125v-68.269531c.007813-26.613282 17.652344-49.996094 43.242188-57.304688zm-43.242188 142.640625h51.203125v17.070313h-51.203125zm341.351563 17.070313v-17.070313h51.203125v17.070313zm0 0"/><path d="m316.25 460.796875h-42.667969c-4.714843 0-8.535156 3.820313-8.535156 8.535156 0 4.710938 3.820313 8.53125 8.535156 8.53125h42.667969c4.710938 0 8.535156-3.820312 8.535156-8.53125 0-4.714843-3.824218-8.535156-8.535156-8.535156zm0 0"/><path d="m111.4375 477.863281h42.671875c4.710937 0 8.53125-3.820312 8.53125-8.53125 0-4.714843-3.820313-8.535156-8.53125-8.535156h-42.671875c-4.710938 0-8.53125 3.820313-8.53125 8.535156 0 4.710938 3.820312 8.53125 8.53125 8.53125zm0 0"/></svg>