<svg height="512pt" viewBox="0 0 512 512" width="512pt" xmlns="http://www.w3.org/2000/svg"><path d="m185.378906 423.722656h141.242188v70.621094h-141.242188zm0 0" fill="#7f8c8d"/><path d="m512 353.101562v52.96875c0 19.5-15.808594 35.308594-35.308594 35.308594h-441.382812c-19.5 0-35.308594-15.808594-35.308594-35.308594v-52.96875zm0 0" fill="#95a5a5"/><path d="m141.242188 476.691406h229.515624c14.625 0 26.484376 11.855469 26.484376 26.480469v8.828125h-282.484376v-8.828125c0-14.625 11.859376-26.480469 26.484376-26.480469zm0 0" fill="#95a5a5"/><path d="m512 35.308594v335.449218h-512v-335.449218c0-19.5 15.808594-35.308594 35.308594-35.308594h441.382812c19.5 0 35.308594 15.808594 35.308594 35.308594zm0 0" fill="#2980ba"/><path d="m501.140625 9.796875c-246.996094 52.4375-456.296875 300.582031-501.140625 356.902344v-331.390625c0-19.5 15.808594-35.308594 35.308594-35.308594h441.382812c9.101563.0273438 17.847656 3.53125 24.449219 9.796875zm0 0" fill="#3b97d3"/><path d="m316.644531 243.023438-30.101562 52.699218c-1.582031 2.742188-4.511719 4.429688-7.679688 4.414063h-63.382812c-3.164063.015625-6.097657-1.671875-7.679688-4.414063l-30.101562-52.699218c-1.597657-2.878907-1.496094-6.398438.265625-9.179688l60.378906-88.453125 8.828125-12.976563 8.828125 12.976563 60.378906 88.453125c1.761719 2.78125 1.863282 6.300781.265625 9.179688zm0 0" fill="#e6e7e8"/><path d="m256 145.390625v66.472656c0 4.875-3.953125 8.828125-8.828125 8.828125s-8.828125-3.953125-8.828125-8.828125v-66.472656l8.828125-12.976563zm0 0" fill="#bdc3c7"/><path d="m264.828125 229.515625c0 9.753906-7.90625 17.65625-17.65625 17.65625s-17.65625-7.902344-17.65625-17.65625c0-9.75 7.90625-17.652344 17.65625-17.652344s17.65625 7.902344 17.65625 17.652344zm0 0" fill="#95a5a5"/><path d="m282.484375 344.277344h-70.621094c-4.875 0-8.828125-3.953125-8.828125-8.828125s3.953125-8.828125 8.828125-8.828125h70.621094c4.875 0 8.824219 3.953125 8.824219 8.828125s-3.949219 8.828125-8.824219 8.828125zm0 0" fill="#e6e7e8"/><path d="m394.847656 194.207031c-4.273437-.007812-7.929687-3.074219-8.675781-7.28125-10.46875-58.113281-55.953125-103.59375-114.0625-114.0625-3.191406-.457031-5.878906-2.621093-7.011719-5.640625-1.128906-3.015625-.527344-6.414062 1.578125-8.855468 2.101563-2.445313 5.371094-3.546876 8.523438-2.878907 65.390625 11.773438 116.574219 62.957031 128.34375 128.347657.851562 4.796874-2.34375 9.375-7.140625 10.230468-.511719.09375-1.03125.140625-1.554688.140625zm0 0" fill="#e6e7e8"/><path d="m99.496094 194.207031c-.523438 0-1.042969-.046875-1.554688-.140625-4.796875-.855468-7.992187-5.433594-7.140625-10.230468 11.773438-65.390626 62.953125-116.574219 128.34375-128.347657 3.152344-.667969 6.421875.433594 8.527344 2.878907 2.101563 2.441406 2.707031 5.839843 1.574219 8.855468-1.132813 3.019532-3.820313 5.183594-7.011719 5.640625-58.109375 10.46875-103.59375 55.949219-114.0625 114.0625-.746094 4.207031-4.402344 7.273438-8.675781 7.28125zm0 0" fill="#e6e7e8"/><path d="m220.691406 70.621094h-88.277344c-4.875 0-8.828124-3.953125-8.828124-8.828125s3.953124-8.828125 8.828124-8.828125h88.277344c4.875 0 8.824219 3.953125 8.824219 8.828125s-3.949219 8.828125-8.824219 8.828125zm0 0" fill="#2c3e50"/><path d="m361.929688 70.621094h-88.273438c-4.875 0-8.828125-3.953125-8.828125-8.828125s3.953125-8.828125 8.828125-8.828125h88.273438c4.875 0 8.828124 3.953125 8.828124 8.828125s-3.953124 8.828125-8.828124 8.828125zm0 0" fill="#2c3e50"/><g fill="#f0c419"><path d="m229.515625 35.308594h35.3125c4.875 0 8.828125 3.953125 8.828125 8.828125v35.3125c0 4.875-3.953125 8.828125-8.828125 8.828125h-35.3125c-4.875 0-8.824219-3.953125-8.824219-8.828125v-35.3125c0-4.875 3.949219-8.828125 8.824219-8.828125zm0 0"/><path d="m79.449219 185.378906h35.308593c4.875 0 8.828126 3.953125 8.828126 8.828125v35.308594c0 4.878906-3.953126 8.828125-8.828126 8.828125h-35.308593c-4.875 0-8.828125-3.949219-8.828125-8.828125v-35.308594c0-4.875 3.953125-8.828125 8.828125-8.828125zm0 0"/><path d="m379.585938 185.378906h35.3125c4.875 0 8.824218 3.953125 8.824218 8.828125v35.308594c0 4.878906-3.949218 8.828125-8.824218 8.828125h-35.3125c-4.875 0-8.828126-3.949219-8.828126-8.828125v-35.308594c0-4.875 3.953126-8.828125 8.828126-8.828125zm0 0"/><path d="m132.414062 61.792969c0 9.75-7.90625 17.65625-17.65625 17.65625s-17.65625-7.90625-17.65625-17.65625 7.90625-17.65625 17.65625-17.65625 17.65625 7.90625 17.65625 17.65625zm0 0"/><path d="m397.242188 61.792969c0 9.75-7.90625 17.65625-17.65625 17.65625s-17.65625-7.90625-17.65625-17.65625 7.90625-17.65625 17.65625-17.65625 17.65625 7.90625 17.65625 17.65625zm0 0"/></g></svg>