<?xml version="1.0" encoding="iso-8859-1"?>
<!-- Generator: Adobe Illustrator 19.0.0, SVG Export Plug-In . SVG Version: 6.00 Build 0)  -->
<svg version="1.1" id="Layer_1" xmlns="http://www.w3.org/2000/svg" xmlns:xlink="http://www.w3.org/1999/xlink" x="0px" y="0px"
	 viewBox="0 0 512 512" style="enable-background:new 0 0 512 512;" xml:space="preserve">
<path style="fill:#1E0478;" d="M511.997,165.197c0.097,5.906-2.153,11.455-6.328,15.62l-41.04,41.051
	c-4.24,4.229-9.768,6.371-15.306,6.371c-5.246,0-10.503-1.925-14.657-5.787C386.053,177.356,322.611,152.52,256,152.52
	c-66.601,0-130.054,24.836-178.655,69.932c-8.545,7.929-21.721,7.669-29.974-0.584l-41.04-41.051
	c-4.175-4.165-6.425-9.714-6.328-15.62c0.087-5.928,2.52-11.423,6.847-15.479c139.713-131.222,358.586-131.222,498.299,0
	c2.163,2.034,3.851,4.413,5.008,7.042C511.326,159.378,511.953,162.233,511.997,165.197z M490.373,165.522l-0.032-0.043
	c-131.406-123.412-337.276-123.412-468.682,0l41.008,41.083c52.582-48.785,121.249-75.676,193.333-75.676
	s140.752,26.891,193.377,75.709L490.373,165.522z"/>
<path style="fill:#9B8CCC;" d="M490.341,165.479l0.032,0.043l-40.997,41.072C396.751,157.777,328.085,130.886,256,130.886
	s-140.752,26.891-193.333,75.676l-41.008-41.083C153.065,42.067,358.935,42.067,490.341,165.479z"/>
<path style="fill:#1E0478;" d="M399.283,277.597c0.173,5.939-2.142,11.758-6.339,15.955l-41.126,41.126
	c-4.24,4.229-9.746,6.382-15.285,6.382c-4.922,0-9.844-1.698-13.911-5.116c-9.27-7.81-19.828-13.867-31.121-17.967
	c-11.282-4.1-23.3-6.252-35.502-6.252c-24.403,0-48.071,8.6-66.612,24.219c-8.654,7.28-21.201,6.728-29.206-1.266l-41.127-41.126
	c-4.197-4.197-6.512-10.017-6.339-15.955c0.173-5.906,2.791-11.542,7.193-15.458c37.416-33.306,85.747-51.652,136.09-51.652
	s98.673,18.346,136.09,51.652C396.492,266.066,399.11,271.691,399.283,277.597z M336.554,319.395l41.094-41.137
	c-33.403-29.736-76.617-46.135-121.649-46.135s-88.246,16.399-121.703,46.178l41.181,41.072
	c22.413-18.876,51.024-29.282,80.522-29.282C285.498,290.091,314.109,300.497,336.554,319.395z"/>
<path style="fill:#9B8CCC;" d="M377.649,278.257l-41.094,41.137c-22.445-18.897-51.057-29.303-80.555-29.303
	s-58.109,10.406-80.522,29.282l-41.181-41.072c33.457-29.779,76.671-46.178,121.703-46.178S344.245,248.521,377.649,278.257z"/>
<path style="fill:#1E0478;" d="M298.078,397.764c2.261,5.452,3.44,11.347,3.44,17.426c0,12.169-4.727,23.592-13.327,32.192
	c-8.881,8.881-20.531,13.316-32.192,13.316s-23.311-4.435-32.192-13.316c-17.751-17.751-17.751-46.622,0-64.372
	c8.6-8.6,20.033-13.337,32.192-13.337s23.592,4.738,32.192,13.337C292.497,387.304,295.828,392.312,298.078,397.764z
	 M279.884,415.191c0-6.371-2.477-12.375-6.988-16.885c-2.25-2.261-4.889-4.002-7.745-5.192c-2.867-1.179-5.96-1.806-9.151-1.806
	c-6.382,0-12.375,2.488-16.896,6.999c-9.314,9.313-9.314,24.468,0,33.782c9.324,9.313,24.479,9.313,33.793,0
	C277.407,427.576,279.884,421.573,279.884,415.191z"/>
<path style="fill:#9B8CCC;" d="M272.896,398.305c4.511,4.511,6.988,10.514,6.988,16.885c0,6.382-2.477,12.386-6.988,16.896
	c-9.313,9.313-24.468,9.313-33.793,0c-9.314-9.313-9.314-24.468,0-33.782c4.522-4.511,10.514-6.999,16.896-6.999
	c3.191,0,6.285,0.627,9.151,1.806C268.007,394.303,270.646,396.044,272.896,398.305z"/>
<g>
</g>
<g>
</g>
<g>
</g>
<g>
</g>
<g>
</g>
<g>
</g>
<g>
</g>
<g>
</g>
<g>
</g>
<g>
</g>
<g>
</g>
<g>
</g>
<g>
</g>
<g>
</g>
<g>
</g>
</svg>
