<?xml version="1.0" encoding="iso-8859-1"?>
<!-- Generator: Adobe Illustrator 19.0.0, SVG Export Plug-In . SVG Version: 6.00 Build 0)  -->
<svg version="1.1" id="Capa_1" xmlns="http://www.w3.org/2000/svg" xmlns:xlink="http://www.w3.org/1999/xlink" x="0px" y="0px"
	 viewBox="0 0 512 512" style="enable-background:new 0 0 512 512;" xml:space="preserve">
<path style="fill:#ABB0B7;" d="M64.318,449.449v-55.781V106.786c0-26.239,21.271-47.51,47.51-47.51h335.73
	c-1.685-24.708-22.249-44.233-47.385-44.233H86.417C44.213,15.043,10,49.256,10,91.461v313.755c0,26.239,21.271,47.51,47.51,47.51
	h6.932C64.369,451.642,64.318,450.551,64.318,449.449L64.318,449.449z"/>
<g>
	<path style="fill:#E5EAED;" d="M493.112,477.1c-1.517,2.114-3.192,4.107-5.027,5.943C489.92,481.208,491.595,479.215,493.112,477.1
		z"/>
	<path style="fill:#E5EAED;" d="M104.592,496.411c-1.573-0.24-3.12-0.558-4.638-0.948
		C101.472,495.854,103.02,496.171,104.592,496.411z"/>
	<path style="fill:#E5EAED;" d="M502,449.449L502,449.449c0,5.197-0.846,10.194-2.389,14.875
		C501.154,459.643,502,454.646,502,449.449z"/>
	<path style="fill:#E5EAED;" d="M99.954,495.463c-2.277-0.586-4.488-1.336-6.62-2.238C95.466,494.127,97.677,494.877,99.954,495.463
		z"/>
	<path style="fill:#E5EAED;" d="M78.233,483.043c-2.149-2.149-4.094-4.504-5.801-7.031C74.139,478.54,76.083,480.894,78.233,483.043
		z"/>
	<path style="fill:#E5EAED;" d="M93.335,493.225c-3.553-1.503-6.884-3.425-9.933-5.705C86.45,489.8,89.782,491.723,93.335,493.225z"
		/>
	<path style="fill:#E5EAED;" d="M482.142,488.071c-2.219,1.592-4.573,3.007-7.054,4.203
		C477.569,491.078,479.923,489.662,482.142,488.071z"/>
	<path style="fill:#E5EAED;" d="M111.828,496.959L111.828,496.959c-1.64,0-3.26-0.083-4.858-0.245
		C108.567,496.876,110.188,496.959,111.828,496.959z"/>
	<path style="fill:#E5EAED;" d="M498.602,467.091c-0.547,1.368-1.156,2.703-1.824,4.004
		C497.445,469.794,498.054,468.459,498.602,467.091z"/>
	<path style="fill:#E5EAED;" d="M472.373,493.466c-1.229,0.5-2.478,0.96-3.755,1.357
		C469.895,494.425,471.144,493.965,472.373,493.466z"/>
	<path style="fill:#E5EAED;" d="M454.49,59.276h-6.932h-335.73c-26.239,0-47.51,21.271-47.51,47.51v286.882l116.111-196.875
		c11.383-19.301,39.465-18.821,50.182,0.858l80.948,148.638c9.461,17.372,32.427,21.784,47.652,9.155l44.971-37.306
		c11.096-9.204,27.283-8.804,37.911,0.938L502,373.99V106.786C502,80.547,480.729,59.276,454.49,59.276z M379.879,224.137
		c-22.94,0-41.537-18.597-41.537-41.537s18.597-41.537,41.537-41.537s41.537,18.597,41.537,41.537S402.819,224.137,379.879,224.137z
		"/>
	<path style="fill:#E5EAED;" d="M64.318,449.449L64.318,449.449c0,1.103,0.051,2.193,0.125,3.277
		c0.586,8.588,3.44,16.553,7.989,23.286C67.309,468.429,64.318,459.288,64.318,449.449z"/>
</g>
<path style="fill:#4CC1EB;" d="M442.092,319.075c-10.627-9.742-26.815-10.142-37.911-0.938l-44.971,37.306
	c-15.224,12.629-38.191,8.217-47.652-9.155L230.61,197.65c-10.717-19.679-38.798-20.159-50.182-0.858L64.318,393.668v55.781
	c0,9.84,2.991,18.981,8.114,26.563c1.708,2.528,3.652,4.882,5.801,7.031c1.612,1.612,3.339,3.109,5.169,4.477
	c3.049,2.28,6.38,4.203,9.933,5.705c2.131,0.902,4.343,1.652,6.62,2.238c1.518,0.391,3.065,0.708,4.638,0.948
	c0.786,0.12,1.579,0.221,2.378,0.302c1.597,0.162,3.218,0.245,4.858,0.245H454.49c0.82,0,1.635-0.021,2.445-0.062
	c2.429-0.123,4.81-0.429,7.13-0.903c1.546-0.316,3.065-0.708,4.553-1.171c1.277-0.397,2.526-0.857,3.755-1.357
	c0.918-0.373,1.827-0.764,2.715-1.192c2.482-1.196,4.835-2.612,7.054-4.203c2.115-1.517,4.107-3.192,5.943-5.027
	c1.835-1.835,3.511-3.828,5.027-5.943c1.364-1.902,2.59-3.908,3.666-6.005c0.668-1.302,1.277-2.637,1.824-4.004
	c0.364-0.909,0.701-1.832,1.01-2.767c1.542-4.681,2.389-9.678,2.389-14.875V373.99L442.092,319.075z"/>
<circle style="fill:#F8C55A;" cx="379.88" cy="182.601" r="41.537"/>
<path d="M379.879,234.137c28.417,0,51.537-23.119,51.537-51.537s-23.119-51.537-51.537-51.537s-51.537,23.12-51.537,51.537
	S351.461,234.137,379.879,234.137z M379.879,151.063c17.389,0,31.537,14.147,31.537,31.537c0,17.389-14.147,31.537-31.537,31.537
	s-31.537-14.147-31.537-31.537S362.489,151.063,379.879,151.063z"/>
<path d="M380.23,451.181c-0.25-0.61-0.56-1.19-0.92-1.73c-0.36-0.55-0.78-1.06-1.24-1.52s-0.97-0.88-1.52-1.24
	c-0.54-0.36-1.12-0.67-1.73-0.92c-0.6-0.25-1.23-0.45-1.87-0.57c-1.29-0.26-2.61-0.26-3.9,0c-0.64,0.12-1.27,0.32-1.87,0.57
	c-0.61,0.25-1.19,0.56-1.73,0.92c-0.55,0.36-1.06,0.78-1.52,1.24s-0.88,0.97-1.24,1.52c-0.36,0.54-0.67,1.12-0.92,1.73
	c-0.25,0.6-0.45,1.23-0.57,1.87c-0.13,0.64-0.2,1.3-0.2,1.95c0,0.65,0.07,1.31,0.2,1.95c0.12,0.64,0.32,1.27,0.57,1.87
	c0.25,0.61,0.56,1.19,0.92,1.73c0.36,0.55,0.78,1.06,1.24,1.52c0.229,0.229,0.471,0.448,0.723,0.655
	c0.255,0.208,0.521,0.405,0.797,0.585c0.54,0.36,1.12,0.67,1.73,0.92c0.6,0.25,1.23,0.45,1.87,0.57c0.64,0.13,1.3,0.2,1.95,0.2
	c0.65,0,1.31-0.07,1.95-0.2c0.64-0.12,1.27-0.32,1.87-0.57c0.61-0.25,1.19-0.56,1.73-0.92c0.276-0.181,0.542-0.377,0.797-0.585
	c0.253-0.207,0.494-0.426,0.723-0.655c0.46-0.46,0.88-0.97,1.24-1.52c0.36-0.54,0.67-1.12,0.92-1.73c0.25-0.6,0.45-1.23,0.58-1.87
	c0.13-0.64,0.19-1.3,0.19-1.95c0-0.65-0.06-1.31-0.19-1.95C380.68,452.411,380.48,451.781,380.23,451.181z"/>
<path d="M204.39,63.101c0.25,0.6,0.55,1.18,0.91,1.73c0.37,0.54,0.79,1.06,1.25,1.52s0.97,0.88,1.52,1.24
	c0.54,0.36,1.12,0.67,1.72,0.92c0.61,0.25,1.24,0.44,1.88,0.57s1.3,0.2,1.95,0.2s1.31-0.07,1.95-0.2s1.27-0.32,1.87-0.57
	c0.61-0.25,1.19-0.56,1.73-0.92c0.55-0.36,1.06-0.78,1.52-1.24s0.88-0.98,1.24-1.52c0.36-0.55,0.67-1.13,0.92-1.73
	s0.45-1.23,0.57-1.87c0.13-0.65,0.2-1.3,0.2-1.95c0-0.66-0.07-1.31-0.2-1.96c-0.12-0.64-0.32-1.27-0.57-1.87s-0.56-1.18-0.92-1.73
	c-0.36-0.54-0.78-1.06-1.24-1.52s-0.97-0.88-1.52-1.24c-0.54-0.36-1.12-0.67-1.73-0.92c-0.6-0.25-1.23-0.44-1.87-0.57
	c-1.29-0.26-2.61-0.26-3.9,0c-0.64,0.13-1.27,0.32-1.88,0.57c-0.6,0.25-1.18,0.56-1.72,0.92c-0.55,0.36-1.06,0.78-1.52,1.24
	s-0.88,0.98-1.25,1.52c-0.36,0.55-0.66,1.13-0.91,1.73s-0.45,1.23-0.57,1.87c-0.13,0.65-0.2,1.3-0.2,1.96c0,0.65,0.07,1.3,0.2,1.95
	C203.94,61.871,204.14,62.501,204.39,63.101z"/>
<path d="M456.128,49.318c-5.996-25.349-28.8-44.274-55.956-44.274H86.417C38.767,5.043,0,43.81,0,91.46v313.755
	c0,31.161,24.917,56.595,55.872,57.468c5.996,25.349,28.8,44.274,55.956,44.274H454.49c31.711,0,57.51-25.799,57.51-57.51v-75.458
	V106.786C512,75.625,487.083,50.191,456.128,49.318z M492,449.449c0,20.683-16.827,37.51-37.51,37.51H111.828
	c-16.01,0-29.702-10.085-35.075-24.233c-1.569-4.13-2.435-8.603-2.435-13.277v-6.723v-46.329l114.725-194.524
	c3.493-5.922,9.722-9.38,16.556-9.27c6.875,0.118,12.942,3.792,16.23,9.831l49.396,90.702l71.801,131.843
	c1.814,3.332,5.247,5.219,8.791,5.219c1.616,0,3.255-0.393,4.774-1.22c4.85-2.642,6.641-8.715,4-13.565l-23.3-42.785
	c10.23,0.472,20.292-2.841,28.305-9.488l44.971-37.306c7.212-5.983,17.861-5.72,24.769,0.613l2.348,2.152l20,18.333L492,378.389
	V449.449z M492,351.258l-34.317-31.458l-20-15.229c-13.031-5.45-28.525-3.554-39.886,5.87l-44.971,37.306
	c-4.946,4.104-11.404,5.762-17.716,4.549c-6.312-1.212-11.695-5.146-14.769-10.79l-31.552-57.936l-17.618-32.351v-0.001
	l-31.777-58.35c-6.778-12.445-19.284-20.02-33.453-20.262c-14.165-0.222-26.926,6.901-34.125,19.107L74.317,357.027V106.786
	c0-20.683,16.827-37.51,37.51-37.51h61.792c5.523,0,10-4.477,10-10s-4.477-10-10-10h-61.792c-31.711,0-57.51,25.799-57.51,57.51
	v286.882v48.912C35.124,440.953,20,424.823,20,405.216V91.46c0-36.623,29.795-66.417,66.417-66.417h313.755
	c16.01,0,29.702,10.085,35.075,24.233H253.619c-5.523,0-10,4.477-10,10s4.477,10,10,10h184.063l20,0.146
	C476.876,71.049,492,87.179,492,106.786V351.258z"/>
<g>
</g>
<g>
</g>
<g>
</g>
<g>
</g>
<g>
</g>
<g>
</g>
<g>
</g>
<g>
</g>
<g>
</g>
<g>
</g>
<g>
</g>
<g>
</g>
<g>
</g>
<g>
</g>
<g>
</g>
</svg>
