<?xml version="1.0" encoding="iso-8859-1"?>
<!-- Generator: Adobe Illustrator 19.0.0, SVG Export Plug-In . SVG Version: 6.00 Build 0)  -->
<svg version="1.1" id="Capa_1" xmlns="http://www.w3.org/2000/svg" xmlns:xlink="http://www.w3.org/1999/xlink" x="0px" y="0px"
	 viewBox="0 0 512 512" style="enable-background:new 0 0 512 512;" xml:space="preserve">
<path style="fill:#EF2648;" d="M187.733,204.8v-51.2c0-18.85,15.283-34.133,34.133-34.133l0,0c21.487,10.743,46.78,10.743,68.267,0
	l0,0c18.85,0,34.133,15.283,34.133,34.133v51.2c0,9.429-7.637,17.067-17.067,17.067H204.8
	C195.371,221.867,187.733,214.229,187.733,204.8z"/>
<circle style="fill:#FFD4B0;" cx="256" cy="51.2" r="42.667"/>
<g>
	<path style="fill:#FFDC13;" d="M59.733,264.533c-4.71,0-8.533-3.823-8.533-8.533c-0.077-82.176,49.015-156.416,124.655-188.527
		c4.335-1.843,9.353,0.171,11.196,4.506c1.843,4.335-0.171,9.353-4.506,11.196l0,0C113.203,112.606,68.198,180.668,68.267,256
		C68.267,260.71,64.444,264.533,59.733,264.533z"/>
	<path style="fill:#FFDC13;" d="M452.267,264.533c-4.71,0-8.533-3.823-8.533-8.533c0.068-75.332-44.937-143.394-114.278-172.826
		c-4.335-1.843-6.349-6.861-4.506-11.196s6.861-6.349,11.196-4.506C411.785,99.584,460.877,173.824,460.8,256
		C460.8,260.71,456.977,264.533,452.267,264.533z"/>
	<path style="fill:#FFDC13;" d="M256,460.8c-27.537,0.051-54.801-5.487-80.145-16.273c-4.335-1.843-6.349-6.861-4.506-11.196
		c1.843-4.335,6.861-6.349,11.196-4.506c46.976,19.78,99.934,19.78,146.91,0c4.335-1.843,9.353,0.171,11.196,4.506
		s-0.171,9.353-4.506,11.196C310.801,455.313,283.537,460.851,256,460.8z"/>
	<path style="fill:#FFDC13;" d="M196.267,477.867c-3.183,0.009-6.101-1.758-7.578-4.582l-17.067-32.657
		c-2.185-4.173-0.563-9.335,3.61-11.511c0.495-0.256,1.024-0.469,1.562-0.631l34.133-10.01c4.523-1.323,9.267,1.271,10.59,5.794
		s-1.271,9.267-5.794,10.59l-24.158,7.083l12.262,23.441c2.185,4.181,0.563,9.335-3.61,11.511
		C198.997,477.534,197.641,477.867,196.267,477.867z"/>
	<path style="fill:#FFDC13;" d="M452.267,264.533c-2.261,0-4.437-0.896-6.033-2.5l-25.6-25.6c-3.277-3.388-3.183-8.789,0.213-12.066
		c3.311-3.191,8.55-3.191,11.853,0l19.567,19.567l19.567-19.567c3.388-3.277,8.789-3.183,12.066,0.213
		c3.191,3.311,3.191,8.55,0,11.853l-25.6,25.6C456.704,263.637,454.528,264.533,452.267,264.533z"/>
	<path style="fill:#FFDC13;" d="M162.133,119.467c-1.28,0-2.534-0.29-3.686-0.853c-4.241-2.039-6.033-7.134-3.994-11.383
		l13.303-27.767l-26.223-11.947c-4.207-2.125-5.897-7.253-3.78-11.46c2.005-3.977,6.741-5.743,10.863-4.053l34.133,15.59
		c4.284,1.971,6.153,7.04,4.181,11.324c-0.017,0.034-0.034,0.068-0.051,0.102l-17.067,35.61
		C168.397,117.581,165.41,119.458,162.133,119.467z"/>
</g>
<path style="fill:#EDC4A2;" d="M281.498,17.169c14.182,18.697,10.522,45.346-8.166,59.529c-15.181,11.52-36.181,11.52-51.362,0
	c14.02,18.859,40.67,22.784,59.529,8.772c18.859-14.012,22.784-40.67,8.772-59.529C287.787,22.605,284.834,19.644,281.498,17.169z"
	/>
<circle style="fill:#FFD4B0;" cx="435.2" cy="332.8" r="42.667"/>
<path style="fill:#EDC4A2;" d="M460.698,298.769c14.182,18.697,10.522,45.346-8.166,59.529c-15.181,11.52-36.181,11.52-51.362,0
	c14.02,18.859,40.67,22.784,59.529,8.772c18.859-14.012,22.784-40.67,8.772-59.529C466.987,304.205,464.034,301.244,460.698,298.769
	z"/>
<circle style="fill:#FFD4B0;" cx="76.8" cy="332.8" r="42.667"/>
<path style="fill:#EDC4A2;" d="M102.298,298.769c14.182,18.697,10.522,45.346-8.166,59.529c-15.181,11.52-36.181,11.52-51.362,0
	c14.02,18.859,40.67,22.784,59.529,8.772c18.859-14.02,22.784-40.67,8.772-59.529C108.587,304.205,105.634,301.244,102.298,298.769z
	"/>
<path style="fill:#B20D24;" d="M187.733,204.8c0,9.429,7.637,17.067,17.067,17.067h102.4c9.429,0,17.067-7.637,17.067-17.067v-51.2
	c-0.034-5.939-1.63-11.759-4.634-16.879C289.28,179.43,240.128,204.8,187.733,204.8z"/>
<path style="fill:#FFA511;" d="M8.533,486.4v-51.2c0-18.85,15.283-34.133,34.133-34.133l0,0c21.487,10.743,46.78,10.743,68.267,0
	l0,0c18.85,0,34.133,15.283,34.133,34.133v51.2c0,9.429-7.637,17.067-17.067,17.067H25.6C16.171,503.467,8.533,495.829,8.533,486.4z
	"/>
<path style="fill:#F08015;" d="M8.533,486.4c0,9.429,7.637,17.067,17.067,17.067H128c9.429,0,17.067-7.637,17.067-17.067v-51.2
	c-0.034-5.939-1.63-11.759-4.634-16.879C110.08,461.03,60.928,486.4,8.533,486.4z"/>
<path style="fill:#4DB5FF;" d="M366.933,486.4v-51.2c0-18.85,15.283-34.133,34.133-34.133l0,0c21.487,10.743,46.78,10.743,68.267,0
	l0,0c18.85,0,34.133,15.283,34.133,34.133v51.2c0,9.429-7.637,17.067-17.067,17.067H384
	C374.571,503.467,366.933,495.829,366.933,486.4z"/>
<path style="fill:#3596D8;" d="M366.933,486.4c0,9.429,7.637,17.067,17.067,17.067h102.4c9.429,0,17.067-7.637,17.067-17.067v-51.2
	c-0.034-5.939-1.63-11.759-4.634-16.879C468.48,461.03,419.328,486.4,366.933,486.4z"/>
<path d="M307.2,51.2C307.2,22.921,284.279,0,256,0c-28.279,0-51.2,22.921-51.2,51.2s22.921,51.2,51.2,51.2
	C284.262,102.374,307.174,79.462,307.2,51.2z M221.867,51.2c0-18.85,15.283-34.133,34.133-34.133
	c18.85,0,34.133,15.283,34.133,34.133S274.85,85.333,256,85.333C237.15,85.333,221.867,70.05,221.867,51.2z"/>
<path d="M179.2,153.6v51.2c0,14.14,11.46,25.6,25.6,25.6h102.4c14.14,0,25.6-11.46,25.6-25.6v-51.2
	c-0.026-23.552-19.115-42.641-42.667-42.667h-2.014l-1.801,0.896c-19.098,9.506-41.54,9.506-60.638,0l-1.801-0.896h-2.014
	C198.315,110.959,179.226,130.048,179.2,153.6z M196.267,153.6c0-13.431,10.385-24.576,23.782-25.532
	c22.801,10.581,49.101,10.581,71.902,0c13.397,0.956,23.782,12.1,23.782,25.532v51.2c0,4.71-3.823,8.533-8.533,8.533H204.8
	c-4.71,0-8.533-3.823-8.533-8.533V153.6z"/>
<path d="M435.2,281.6c-28.279,0-51.2,22.921-51.2,51.2s22.921,51.2,51.2,51.2c28.279,0,51.2-22.921,51.2-51.2
	C486.374,304.538,463.462,281.626,435.2,281.6z M435.2,366.933c-18.85,0-34.133-15.283-34.133-34.133s15.283-34.133,34.133-34.133
	s34.133,15.283,34.133,34.133S454.05,366.933,435.2,366.933z"/>
<path d="M469.333,392.533h-2.014l-1.801,0.853c-19.098,9.506-41.54,9.506-60.638,0l-1.801-0.853h-2.014
	c-23.552,0.026-42.641,19.115-42.667,42.667v51.2c0,14.14,11.46,25.6,25.6,25.6h102.4c14.14,0,25.6-11.46,25.6-25.6v-51.2
	C511.974,411.648,492.885,392.559,469.333,392.533z M494.933,486.4c0,4.71-3.823,8.533-8.533,8.533H384
	c-4.71,0-8.533-3.823-8.533-8.533v-51.2c0-13.431,10.385-24.576,23.782-25.532c22.801,10.581,49.101,10.581,71.902,0
	c13.397,0.956,23.782,12.1,23.782,25.532V486.4z"/>
<path d="M76.8,281.6c-28.279,0-51.2,22.921-51.2,51.2S48.521,384,76.8,384s51.2-22.921,51.2-51.2
	C127.974,304.538,105.062,281.626,76.8,281.6z M76.8,366.933c-18.85,0-34.133-15.283-34.133-34.133S57.95,298.667,76.8,298.667
	s34.133,15.283,34.133,34.133S95.65,366.933,76.8,366.933z"/>
<path d="M25.6,512H128c14.14,0,25.6-11.46,25.6-25.6v-51.2c-0.026-23.552-19.115-42.641-42.667-42.667h-2.014l-1.801,0.853
	c-19.098,9.506-41.54,9.506-60.638,0l-1.801-0.853h-2.014C19.115,392.559,0.026,411.648,0,435.2v51.2C0,500.54,11.46,512,25.6,512z
	 M17.067,435.2c0-13.431,10.385-24.576,23.782-25.532c22.801,10.581,49.101,10.581,71.902,0c13.397,0.956,23.782,12.1,23.782,25.532
	v51.2c0,4.71-3.823,8.533-8.533,8.533H25.6c-4.71,0-8.533-3.823-8.533-8.533V435.2z"/>
<g>
</g>
<g>
</g>
<g>
</g>
<g>
</g>
<g>
</g>
<g>
</g>
<g>
</g>
<g>
</g>
<g>
</g>
<g>
</g>
<g>
</g>
<g>
</g>
<g>
</g>
<g>
</g>
<g>
</g>
</svg>
