<svg height="511pt" viewBox="-17 1 511 511.99953" width="511pt" xmlns="http://www.w3.org/2000/svg"><path d="m401.667969 34.136719h68.265625v68.265625h-68.265625zm0 0" fill="#dc4d41"/><path d="m273.664062 110.933594h-68.261718c-4.710938 0-8.53125-3.820313-8.53125-8.535156v-68.265626c0-4.710937 3.820312-8.53125 8.53125-8.53125h68.261718c4.71875 0 8.535157 3.820313 8.535157 8.53125v68.265626c0 4.714843-3.816407 8.535156-8.535157 8.535156zm-59.726562-17.066406h51.195312v-51.199219h-51.195312zm0 0"/><path d="m205.402344 34.136719h68.265625v68.265625h-68.265625zm0 0" fill="#f7ba61"/><path d="m205.402344 460.800781h68.265625v42.664063h-68.265625zm0 0" fill="#b9b9b9"/><path d="m43.269531 196.269531h392.53125v273.0625h-392.53125zm0 0" fill="#cdcdcd"/><path d="m43.269531 196.269531h392.53125v221.863281h-392.53125zm0 0" fill="#b3e4e8"/><path d="m188.335938 256 51.199218 25.601562 51.199219-25.601562-51.199219-17.066406zm0 0" fill="#ea6b65"/><path d="m188.335938 256v59.734375l51.199218 25.597656 51.199219-25.597656v-59.734375l-51.199219 25.601562zm0 0" fill="#f3af3e"/><path d="m188.335938 315.734375v-59.734375l51.199218 25.601562v59.730469zm0 0" fill="#85bc94"/><path d="m231 375.46875h17.066406v17.066406h-17.066406zm0 0" fill="#6fbbc6"/><path d="m316.335938 332.800781h17.066406v17.066407h-17.066406zm0 0" fill="#6fbbc6"/><path d="m316.335938 221.867188h17.066406v17.066406h-17.066406zm0 0" fill="#6fbbc6"/><path d="m145.667969 332.800781h17.066406v17.066407h-17.066406zm0 0" fill="#6fbbc6"/><path d="m145.667969 221.867188h17.066406v17.066406h-17.066406zm0 0" fill="#6fbbc6"/><path d="m137.136719 494.933594h213.332031v17.066406h-213.332031zm0 0" fill="#a8a8a8"/><path d="m231 59.734375h17.066406v17.066406h-17.066406zm0 0" fill="#a8a8a8"/><path d="m307.800781 42.667969v-17.066407h-25.597656v-25.601562h-17.066406v25.601562h-17.066407v-25.601562h-17.066406v25.601562h-17.066406v-25.601562h-17.066406v25.601562h-25.601563v17.066407h25.601563v17.066406h-25.601563v17.066406h25.601563v17.066407h-25.601563v17.066406h25.601563v25.601562h17.066406v-25.601562h17.066406v25.601562h17.066406v-25.601562h17.066407v25.601562h17.066406v-25.601562h25.597656v-17.066406h-25.597656v-17.066407h25.597656v-17.066406h-25.597656v-17.066406zm-42.664062 51.199219h-51.203125v-51.199219h51.203125zm0 0" fill="#b9b9b9"/><g fill="#f7ba61"><path d="m231 153.601562h17.066406v17.066407h-17.066406zm0 0"/><path d="m51.804688 128h17.066406v17.066406h-17.066406zm0 0"/><path d="m94.46875 153.601562h17.066406v17.066407h-17.066406zm0 0"/><path d="m410.203125 128h17.066406v17.066406h-17.066406zm0 0"/><path d="m367.535156 153.601562h17.066406v17.066407h-17.066406zm0 0"/></g><path d="m393.132812 435.199219h17.070313v17.066406h-17.070313zm0 0" fill="#a8a8a8"/><path d="m469.933594 59.734375h-25.597656v-25.597656h-17.066407v25.597656h-25.601562v17.066406h25.601562v25.601563h17.066407v-25.601563h25.597656zm0 0" fill="#b9b9b9"/><path d="m435.800781 42.667969c-2.851562 0-5.515625-1.425781-7.097656-3.796875l-17.070313-25.601563c-2.613281-3.917969-1.554687-9.21875 2.367188-11.832031 3.917969-2.617188 9.21875-1.558594 11.832031 2.363281l9.96875 14.972657 9.964844-14.949219c2.617187-3.9218752 7.917969-4.980469 11.835937-2.363281 3.921876 2.617187 4.980469 7.914062 2.363282 11.835937l-17.066406 25.601563c-1.585938 2.359374-4.25 3.777343-7.097657 3.769531zm0 0" fill="#b9b9b9"/><path d="m85.9375 51.203125c0-14.140625-11.464844-25.601563-25.601562-25.601563-14.136719 0-25.601563 11.460938-25.601563 25.601563-14.136719 0-25.597656 11.460937-25.597656 25.597656 0 14.140625 11.460937 25.601563 25.597656 25.601563h51.203125c14.136719 0 25.597656-11.460938 25.597656-25.601563 0-14.136719-11.460937-25.597656-25.597656-25.597656zm0 0" fill="#b3e4e8"/><path d="m299.269531 255.394531c0-.195312-.09375-.367187-.128906-.5625-.0625-.511719-.175781-1.019531-.332031-1.511719-.097656-.289062-.207032-.574218-.335938-.851562-.199218-.429688-.433594-.84375-.699218-1.238281-.167969-.261719-.355469-.511719-.554688-.75-.3125-.351563-.652344-.679688-1.015625-.980469-.246094-.199219-.46875-.410156-.734375-.589844-.074219-.050781-.144531-.128906-.230469-.1875-.414062-.234375-.847656-.429687-1.296875-.589844-.167968-.066406-.304687-.1875-.484375-.246093l-51.199219-17.066407c-1.75-.585937-3.644531-.585937-5.394531 0l-51.199219 17.066407c-.1875.066406-.332031.1875-.511718.261719-.441406.152343-.867188.34375-1.273438.574218-.085937.058594-.152344.136719-.230468.1875-.261719.179688-.484376.390625-.734376.597656-.363281.292969-.703124.621094-1.015624.972657-.195313.238281-.382813.488281-.554688.75-.261719.394531-.496094.808593-.699219 1.238281-.125.277344-.234375.5625-.332031.851562-.15625.492188-.269531 1-.332031 1.511719 0 .1875-.109375.367188-.128907.5625-.015624.195313 0 .171875 0 .257813v.347656 59.734375c.019532 1.011719.222657 2.011719.597657 2.953125.09375.257812.203125.507812.332031.75.34375.71875.792969 1.382812 1.332031 1.972656.128907.144532.222657.304688.359375.441406.617188.609376 1.324219 1.125 2.097656 1.519532l51.199219 25.601562c.070313 0 .164063 0 .230469.050782 2.257812 1.125 4.914062 1.125 7.167969 0 .070312 0 .164062 0 .230469-.050782l51.199218-25.601562c2.875-1.460938 4.679688-4.414063 4.667969-7.636719v-59.734375c0-.117188-.042969-.230469-.042969-.347656 0-.121094.046875-.171875.046875-.257813zm-68.269531 72.132813-34.132812-17.066406v-40.652344l34.132812 17.066406zm8.535156-55.46875-28.960937-14.503906 28.960937-9.625 28.960938 9.648437zm42.667969 38.402344-34.136719 17.066406v-40.652344l34.136719-17.066406zm0 0"/><path d="m231 375.46875h17.066406v17.066406h-17.066406zm0 0"/><path d="m316.335938 332.800781h17.066406v17.066407h-17.066406zm0 0"/><path d="m316.335938 221.867188h17.066406v17.066406h-17.066406zm0 0"/><path d="m145.667969 332.800781h17.066406v17.066407h-17.066406zm0 0"/><path d="m145.667969 221.867188h17.066406v17.066406h-17.066406zm0 0"/><path d="m231 59.734375h17.066406v17.066406h-17.066406zm0 0"/><path d="m137.136719 494.933594v17.066406h213.332031v-17.066406h-68.265625v-17.066406h153.597656c4.714844 0 8.535157-3.820313 8.535157-8.535157v-273.0625c0-4.714843-3.820313-8.535156-8.535157-8.535156h-392.53125c-4.710937 0-8.535156 3.820313-8.535156 8.535156v273.0625c0 4.714844 3.824219 8.535157 8.535156 8.535157h153.597657v17.066406zm128 0h-51.203125v-17.066406h51.203125zm-213.332031-290.132813h375.464843v204.800781h-375.464843zm0 256v-34.132812h375.464843v34.132812zm0 0"/><path d="m196.867188 136.535156h17.066406v-25.601562h17.066406v25.601562h17.066406v-25.601562h17.070313v25.601562h17.066406v-25.601562h25.597656v-17.066406h-25.597656v-17.066407h25.597656v-17.066406h-25.597656v-17.066406h25.597656v-17.066407h-25.597656v-25.601562h-17.066406v25.601562h-17.070313v-25.601562h-17.066406v25.601562h-17.066406v-25.601562h-17.066406v25.601562h-25.597657v17.066407h25.597657v17.066406h-25.597657v17.066406h25.597657v17.066407h-25.597657v17.066406h25.597657zm17.066406-93.867187h51.203125v51.199219h-51.203125zm0 0"/><path d="m231 153.601562h17.066406v17.066407h-17.066406zm0 0"/><path d="m51.804688 128h17.066406v17.066406h-17.066406zm0 0"/><path d="m94.46875 153.601562h17.066406v17.066407h-17.066406zm0 0"/><path d="m410.203125 128h17.066406v17.066406h-17.066406zm0 0"/><path d="m367.535156 153.601562h17.066406v17.066407h-17.066406zm0 0"/><path d="m393.132812 435.199219h17.070313v17.066406h-17.070313zm0 0"/><path d="m401.667969 110.933594h68.265625c4.714844 0 8.535156-3.820313 8.535156-8.53125v-68.265625c0-4.714844-3.820312-8.535157-8.535156-8.535157h-18.191406l8.226562-12.332031c2.613281-3.917969 1.554688-9.21875-2.363281-11.832031-3.921875-2.617188-9.222657-1.558594-11.835938 2.363281l-9.96875 14.972657-9.964843-14.972657c-2.617188-3.921875-7.917969-4.980469-11.835938-2.363281-3.921875 2.613281-4.980469 7.914062-2.363281 11.832031l8.226562 12.332031h-18.195312c-4.710938 0-8.53125 3.820313-8.53125 8.535157v68.265625c-.003907 4.710937 3.816406 8.53125 8.53125 8.53125zm42.667969-68.265625h17.066406v17.066406h-17.066406zm0 34.132812h17.066406v17.066407h-17.066406zm-34.132813-34.132812h17.066406v17.066406h-17.066406zm0 34.132812h17.066406v17.066407h-17.066406zm0 0"/><path d="m34.734375 110.933594h51.203125c18.847656.054687 34.175781-15.183594 34.226562-34.035156.046876-15.964844-10.980468-29.828126-26.546874-33.375-4.191407-18.382813-22.484376-29.886719-40.867188-25.695313-12.789062 2.914063-22.777344 12.902344-25.695312 25.695313-18.378907 4.1875-29.882813 22.480468-25.695313 40.863281 3.546875 15.566406 17.410156 26.59375 33.375 26.546875zm0-51.199219c4.714844 0 8.535156-3.820313 8.535156-8.53125 0-9.425781 7.640625-17.066406 17.066407-17.066406 9.425781 0 17.066406 7.640625 17.066406 17.066406 0 4.710937 3.820312 8.53125 8.535156 8.53125 9.425781 0 17.066406 7.640625 17.066406 17.066406s-7.640625 17.066407-17.066406 17.066407h-51.203125c-9.421875 0-17.066406-7.640626-17.066406-17.066407s7.644531-17.066406 17.066406-17.066406zm0 0"/></svg>