<?xml version="1.0" encoding="iso-8859-1"?>
<!-- Generator: Adobe Illustrator 19.0.0, SVG Export Plug-In . SVG Version: 6.00 Build 0)  -->
<svg version="1.1" id="Capa_1" xmlns="http://www.w3.org/2000/svg" xmlns:xlink="http://www.w3.org/1999/xlink" x="0px" y="0px"
	 viewBox="0 0 512 512" style="enable-background:new 0 0 512 512;" xml:space="preserve">
<path style="fill:#00B7A0;" d="M464.5,107c0,5.52,2.24,10.52,5.86,14.14s8.62,5.86,14.14,5.86h20v258h-20c-11.05,0-20,8.95-20,20
	c0,5.52,2.24,10.52,5.86,14.14s8.62,5.86,14.14,5.86h20v79.5H7.5V425h20c5.52,0,10.52-2.24,14.14-5.86
	c3.62-3.62,5.86-8.62,5.86-14.14c0-11.05-8.95-20-20-20h-20V127h20c5.52,0,10.52-2.24,14.14-5.86c3.62-3.62,5.86-8.62,5.86-14.14
	c0-11.05-8.95-20-20-20h-20V7.5h497V87h-20C473.45,87,464.5,95.95,464.5,107z"/>
<g>
	<circle style="fill:#CAEEFC;" cx="48.5" cy="46" r="15"/>
	<circle style="fill:#CAEEFC;" cx="463.5" cy="46" r="15"/>
	<circle style="fill:#CAEEFC;" cx="48.5" cy="467" r="15"/>
	<circle style="fill:#CAEEFC;" cx="463.5" cy="467" r="15"/>
</g>
<rect x="96" y="96" style="fill:#444B66;" width="320" height="320"/>
<rect x="386" y="96" style="fill:#3D435C;" width="30" height="320"/>
<rect x="126" y="126" style="fill:#CBDAE0;" width="260" height="260"/>
<rect x="356" y="126" style="fill:#A8B5BA;" width="30" height="260"/>
<polygon style="fill:#6E6B87;" points="157.77,314.287 157.77,355.472 202.752,355.472 "/>
<rect x="123.5" y="7.5" style="fill:#FAD87C;" width="265" height="30"/>
<rect x="358.5" y="7.5" style="fill:#FEBE40;" width="30" height="30"/>
<rect x="123.5" y="474.5" style="fill:#FAD87C;" width="265" height="30"/>
<rect x="358.5" y="474.5" style="fill:#FEBE40;" width="30" height="30"/>
<path d="M484.5,94.5h20c4.142,0,7.5-3.358,7.5-7.5V7.5c0-4.142-3.358-7.5-7.5-7.5l0,0H108.167l0,0c-4.142,0-7.5,3.358-7.5,7.5
	s3.358,7.5,7.5,7.5H116v22.5c0,4.142,3.358,7.5,7.5,7.5h265c4.142,0,7.5-3.358,7.5-7.5V15h101v64.5h-12.5
	c-15.164,0-27.5,12.336-27.5,27.5c0,7.342,2.861,14.247,8.057,19.443c5.195,5.195,12.101,8.057,19.443,8.057H497v243h-12.5
	c-15.164,0-27.5,12.336-27.5,27.5c0,7.342,2.861,14.247,8.057,19.443c5.195,5.195,12.101,8.057,19.443,8.057H497V497H396v-22.5
	c0-4.142-3.358-7.5-7.5-7.5h-36c-4.142,0-7.5,3.358-7.5,7.5s3.358,7.5,7.5,7.5H381v15H131v-15h189c4.142,0,7.5-3.358,7.5-7.5
	s-3.358-7.5-7.5-7.5H123.5c-4.142,0-7.5,3.358-7.5,7.5V497H15v-64.5h12.5c7.343,0,14.248-2.861,19.444-8.057
	C52.139,419.247,55,412.342,55,405c0-15.164-12.336-27.5-27.5-27.5H15v-243h12.5c7.343,0,14.248-2.861,19.444-8.057
	C52.139,121.247,55,114.342,55,107c0-15.164-12.336-27.5-27.5-27.5H15V15h61c4.142,0,7.5-3.358,7.5-7.5S80.142,0,76,0H7.5
	C3.358,0,0,3.358,0,7.5V87c0,4.142,3.358,7.5,7.5,7.5h20c6.893,0,12.5,5.607,12.5,12.5c0,3.336-1.301,6.475-3.663,8.837
	c-2.362,2.362-5.5,3.663-8.837,3.663h-20c-4.142,0-7.5,3.358-7.5,7.5v258c0,4.142,3.358,7.5,7.5,7.5h20
	c6.893,0,12.5,5.607,12.5,12.5c0,3.336-1.301,6.475-3.663,8.837c-2.362,2.362-5.5,3.663-8.837,3.663h-20c-4.142,0-7.5,3.358-7.5,7.5
	v79.5c0,4.142,3.358,7.5,7.5,7.5l0,0h497l0,0c4.142,0,7.5-3.358,7.5-7.5V425c0-4.142-3.358-7.5-7.5-7.5h-20
	c-3.336,0-6.475-1.301-8.836-3.663C473.301,411.475,472,408.336,472,405c0-6.893,5.607-12.5,12.5-12.5h20c4.142,0,7.5-3.358,7.5-7.5
	V127c0-4.142-3.358-7.5-7.5-7.5h-20c-3.336,0-6.475-1.301-8.836-3.663C473.301,113.475,472,110.336,472,107
	C472,100.107,477.607,94.5,484.5,94.5z M381,30H131V15h250V30z"/>
<path d="M48.5,23.5C36.093,23.5,26,33.593,26,46s10.093,22.5,22.5,22.5S71,58.407,71,46S60.907,23.5,48.5,23.5z M48.5,53.5
	c-4.136,0-7.5-3.364-7.5-7.5s3.364-7.5,7.5-7.5S56,41.864,56,46S52.636,53.5,48.5,53.5z"/>
<path d="M486,46c0-12.407-10.093-22.5-22.5-22.5S441,33.593,441,46s10.093,22.5,22.5,22.5S486,58.407,486,46z M456,46
	c0-4.136,3.364-7.5,7.5-7.5s7.5,3.364,7.5,7.5s-3.364,7.5-7.5,7.5S456,50.136,456,46z"/>
<path d="M26,467c0,12.407,10.093,22.5,22.5,22.5S71,479.407,71,467s-10.093-22.5-22.5-22.5S26,454.593,26,467z M56,467
	c0,4.136-3.364,7.5-7.5,7.5S41,471.136,41,467s3.364-7.5,7.5-7.5S56,462.864,56,467z"/>
<path d="M463.5,489.5c12.407,0,22.5-10.093,22.5-22.5s-10.093-22.5-22.5-22.5S441,454.593,441,467S451.093,489.5,463.5,489.5z
	 M463.5,459.5c4.136,0,7.5,3.364,7.5,7.5s-3.364,7.5-7.5,7.5s-7.5-3.364-7.5-7.5S459.364,459.5,463.5,459.5z"/>
<path d="M126,393.5h260c4.142,0,7.5-3.358,7.5-7.5V126c0-4.142-3.358-7.5-7.5-7.5H191.667c-4.142,0-7.5,3.358-7.5,7.5
	s3.358,7.5,7.5,7.5H378.5v245h-245v-245H160c4.142,0,7.5-3.358,7.5-7.5s-3.358-7.5-7.5-7.5h-34c-4.142,0-7.5,3.358-7.5,7.5v260
	C118.5,390.142,121.858,393.5,126,393.5z"/>
<path d="M76,107.5c-4.142,0-7.5,3.358-7.5,7.5s3.358,7.5,7.5,7.5h12.5v16.333H76c-4.142,0-7.5,3.358-7.5,7.5s3.358,7.5,7.5,7.5h12.5
	v16.333H76c-4.142,0-7.5,3.358-7.5,7.5s3.358,7.5,7.5,7.5h12.5V201.5H76c-4.142,0-7.5,3.358-7.5,7.5s3.358,7.5,7.5,7.5h12.5v16.333
	H76c-4.142,0-7.5,3.358-7.5,7.5s3.358,7.5,7.5,7.5h12.5v16.333H76c-4.142,0-7.5,3.358-7.5,7.5s3.358,7.5,7.5,7.5h12.5V295.5H76
	c-4.142,0-7.5,3.358-7.5,7.5s3.358,7.5,7.5,7.5h12.5v16.333H76c-4.142,0-7.5,3.358-7.5,7.5s3.358,7.5,7.5,7.5h12.5v16.333H76
	c-4.142,0-7.5,3.358-7.5,7.5s3.358,7.5,7.5,7.5h12.5V389.5H76c-4.142,0-7.5,3.358-7.5,7.5s3.358,7.5,7.5,7.5h12.5V416
	c0,4.142,3.358,7.5,7.5,7.5h11.5V436c0,4.142,3.358,7.5,7.5,7.5s7.5-3.358,7.5-7.5v-12.5h16.333V436c0,4.142,3.358,7.5,7.5,7.5
	s7.5-3.358,7.5-7.5v-12.5h16.333V436c0,4.142,3.358,7.5,7.5,7.5s7.5-3.358,7.5-7.5v-12.5H201.5V436c0,4.142,3.358,7.5,7.5,7.5
	s7.5-3.358,7.5-7.5v-12.5h16.333V436c0,4.142,3.358,7.5,7.5,7.5s7.5-3.358,7.5-7.5v-12.5h16.333V436c0,4.142,3.358,7.5,7.5,7.5
	s7.5-3.358,7.5-7.5v-12.5H295.5V436c0,4.142,3.358,7.5,7.5,7.5s7.5-3.358,7.5-7.5v-12.5h16.333V436c0,4.142,3.358,7.5,7.5,7.5
	s7.5-3.358,7.5-7.5v-12.5h16.333V436c0,4.142,3.358,7.5,7.5,7.5s7.5-3.358,7.5-7.5v-12.5H389.5V436c0,4.142,3.358,7.5,7.5,7.5
	s7.5-3.358,7.5-7.5v-12.5H416c4.142,0,7.5-3.358,7.5-7.5v-11.5H436c4.142,0,7.5-3.358,7.5-7.5s-3.358-7.5-7.5-7.5h-12.5v-16.333H436
	c4.142,0,7.5-3.358,7.5-7.5s-3.358-7.5-7.5-7.5h-12.5v-16.333H436c4.142,0,7.5-3.358,7.5-7.5s-3.358-7.5-7.5-7.5h-12.5V310.5H436
	c4.142,0,7.5-3.358,7.5-7.5s-3.358-7.5-7.5-7.5h-12.5v-16.333H436c4.142,0,7.5-3.358,7.5-7.5s-3.358-7.5-7.5-7.5h-12.5v-16.333H436
	c4.142,0,7.5-3.358,7.5-7.5s-3.358-7.5-7.5-7.5h-12.5V216.5H436c4.142,0,7.5-3.358,7.5-7.5s-3.358-7.5-7.5-7.5h-12.5v-16.333H436
	c4.142,0,7.5-3.358,7.5-7.5s-3.358-7.5-7.5-7.5h-12.5v-16.333H436c4.142,0,7.5-3.358,7.5-7.5s-3.358-7.5-7.5-7.5h-12.5V122.5H436
	c4.142,0,7.5-3.358,7.5-7.5s-3.358-7.5-7.5-7.5h-12.5V96c0-4.142-3.358-7.5-7.5-7.5h-11.5V76c0-4.142-3.358-7.5-7.5-7.5
	s-7.5,3.358-7.5,7.5v12.5h-16.333V76c0-4.142-3.358-7.5-7.5-7.5s-7.5,3.358-7.5,7.5v12.5h-16.333V76c0-4.142-3.358-7.5-7.5-7.5
	s-7.5,3.358-7.5,7.5v12.5H310.5V76c0-4.142-3.358-7.5-7.5-7.5s-7.5,3.358-7.5,7.5v12.5h-16.333V76c0-4.142-3.358-7.5-7.5-7.5
	s-7.5,3.358-7.5,7.5v12.5h-16.333V76c0-4.142-3.358-7.5-7.5-7.5s-7.5,3.358-7.5,7.5v12.5H216.5V76c0-4.142-3.358-7.5-7.5-7.5
	s-7.5,3.358-7.5,7.5v12.5h-16.333V76c0-4.142-3.358-7.5-7.5-7.5s-7.5,3.358-7.5,7.5v12.5h-16.333V76c0-4.142-3.358-7.5-7.5-7.5
	s-7.5,3.358-7.5,7.5v12.5H122.5V76c0-4.142-3.358-7.5-7.5-7.5s-7.5,3.358-7.5,7.5v12.5H96c-4.142,0-7.5,3.358-7.5,7.5v11.5H76z
	 M103.5,103.5h305v305h-305V103.5z"/>
<path d="M249.417,161.85c4.142,0,7.5-3.358,7.5-7.5s-3.358-7.5-7.5-7.5h-26c-4.142,0-7.5,3.358-7.5,7.5v46
	c0,4.142,3.358,7.5,7.5,7.5h26c4.142,0,7.5-3.358,7.5-7.5s-3.358-7.5-7.5-7.5h-18.5v-31H249.417z"/>
<path d="M275.708,200.35v-15.184h18.5c4.142,0,7.5-3.358,7.5-7.5V154.35c0-4.142-3.358-7.5-7.5-7.5h-26c-4.142,0-7.5,3.358-7.5,7.5
	v46c0,4.142,3.358,7.5,7.5,7.5S275.708,204.492,275.708,200.35z M275.708,161.85h11v8.316h-11V161.85z"/>
<path d="M313,146.85c-4.142,0-7.5,3.358-7.5,7.5v46c0,4.142,3.358,7.5,7.5,7.5h26c4.142,0,7.5-3.358,7.5-7.5v-46
	c0-4.142-3.358-7.5-7.5-7.5s-7.5,3.358-7.5,7.5v38.5h-11v-38.5C320.5,150.208,317.142,146.85,313,146.85z"/>
<path d="M154.749,307.423c-2.721,1.198-4.478,3.891-4.478,6.864v41.185c0,4.142,3.358,7.5,7.5,7.5h44.981
	c3.094,0,5.87-1.899,6.991-4.783c1.121-2.883,0.356-6.159-1.926-8.249l-44.981-41.185
	C160.643,306.748,157.472,306.227,154.749,307.423z M165.271,331.323l18.184,16.649h-18.184V331.323z"/>
<g>
</g>
<g>
</g>
<g>
</g>
<g>
</g>
<g>
</g>
<g>
</g>
<g>
</g>
<g>
</g>
<g>
</g>
<g>
</g>
<g>
</g>
<g>
</g>
<g>
</g>
<g>
</g>
<g>
</g>
</svg>
