<?xml version="1.0" encoding="utf-8"?>
<!-- Generator: Adobe Illustrator 21.0.0, SVG Export Plug-In . SVG Version: 6.00 Build 0)  -->
<svg xmlns="http://www.w3.org/2000/svg" xmlns:xlink="http://www.w3.org/1999/xlink" version="1.1" id="Layer_1" x="0px" y="0px" viewBox="0 0 64 64" style="enable-background:new 0 0 64 64;" xml:space="preserve" width="512" height="512">
<style type="text/css">
	.st0{fill:#FECD0D;}
	.st1{fill:#27AE60;}
	.st2{fill:#FD614B;}
	.st3{fill:#8CE2FF;}
</style>
<g>
	<path class="st0" d="M22.6,49h2.8c2,0,3.6,1.6,3.6,3.6V61l0,0H19l0,0v-8.4C19,50.6,20.6,49,22.6,49L22.6,49z"/>
	<path class="st1" d="M38.6,49h2.8c2,0,3.6,1.6,3.6,3.6V61l0,0H35l0,0v-8.4C35,50.6,36.6,49,38.6,49L38.6,49z"/>
	<path class="st2" d="M54.6,49h2.8c2,0,3.6,1.6,3.6,3.6V61l0,0H51l0,0v-8.4C51,50.6,52.6,49,54.6,49L54.6,49z"/>
	<path class="st3" d="M6.6,49h2.8c2,0,3.6,1.6,3.6,3.6V61l0,0H3l0,0v-8.4C3,50.6,4.6,49,6.6,49L6.6,49z"/>
	<rect x="3" y="3" class="st1" width="58" height="24"/>
	<path class="st2" d="M32.9,10.9c-0.5-1-1.8-1.5-2.9-1.1l-10,5.2H13c-2.4,0-4.6,1.5-5.4,3.7L4.9,28c-0.4,1.1,0.1,2.4,1.3,2.8   c1.1,0.4,2.4-0.1,2.8-1.3c0,0,0,0,0,0l3-9.5v28h10V19l9.8-5.1c1.1-0.5,1.7-1.8,1.2-2.9C33,11,33,10.9,32.9,10.9z"/>
	<polygon class="st1" points="12,27 12,23.6 10,27  "/>
	<path class="st2" d="M52,45c0,2.2,1.8,4,4,4s4-1.8,4-4c0-2.2-1.8-4-4-4C53.8,41,52,42.8,52,45z"/>
	<path class="st1" d="M36,45c0,2.2,1.8,4,4,4s4-1.8,4-4c0-2.2-1.8-4-4-4C37.8,41,36,42.8,36,45z"/>
	<path class="st0" d="M20,45c0,2.2,1.8,4,4,4s4-1.8,4-4c0-2.2-1.8-4-4-4C21.8,41,20,42.8,20,45z"/>
	<path class="st3" d="M4,45c0,2.2,1.8,4,4,4s4-1.8,4-4c0-2.2-1.8-4-4-4C5.8,41,4,42.8,4,45z"/>
	<circle class="st2" cx="17" cy="10" r="4"/>
	<path d="M61,2H3C2.4,2,2,2.4,2,3c0,0,0,0,0,0v20h2V4h56v22H25v2h36c0.6,0,1-0.4,1-1c0,0,0,0,0,0V3C62,2.4,61.6,2,61,2   C61,2,61,2,61,2z"/>
	<rect x="35" y="7" width="20" height="2"/>
	<rect x="38" y="13" width="20" height="2"/>
	<rect x="34" y="19" width="20" height="2"/>
	<path d="M3,62h10c0.6,0,1-0.4,1-1c0,0,0,0,0,0v-8.4c0-1.4-0.7-2.8-1.8-3.6h7.6c-1.1,0.9-1.8,2.2-1.8,3.6V61c0,0.6,0.4,1,1,1   c0,0,0,0,0,0h10c0.6,0,1-0.4,1-1c0,0,0,0,0,0v-8.4c0-1.7-1-3.3-2.5-4.1c2-1.9,2-5.1,0.1-7.1c-1.2-1.2-2.9-1.7-4.6-1.4V19.6l9.2-4.8   c1.6-0.7,2.4-2.6,1.7-4.2c-0.7-1.6-2.6-2.4-4.2-1.7c0,0-0.1,0-0.1,0l-8.1,4.2c0.3-0.7,0.5-1.4,0.5-2.1c0-2.8-2.2-5-5-5s-5,2.2-5,5   c0,1.1,0.4,2.1,1,3h0c-2.8,0-5.4,1.8-6.4,4.4l-2.7,9.2c-0.6,1.7,0.2,3.5,1.8,4.1c0.8,0.3,1.6,0.3,2.3,0c0.9-0.3,1.5-1,1.8-1.9   l1-3.3V41c-0.9-0.7-1.9-1-3-1c-2.8,0-5,2.2-5,5c0,1.4,0.5,2.6,1.5,3.6C3,49.3,2,50.9,2,52.6V61C2,61.6,2.4,62,3,62C3,62,3,62,3,62z    M28,60h-8v-7.4c0-1.4,1.2-2.6,2.6-2.6h2.8c1.4,0,2.6,1.2,2.6,2.6V60z M27,45c0,1.7-1.3,3-3,3s-3-1.3-3-3s1.3-3,3-3   C25.7,42,27,43.3,27,45z M14,11c0-1.7,1.3-3,3-3s3,1.3,3,3s-1.3,3-3,3C15.3,14,14,12.7,14,11z M8.1,29.2c-0.2,0.6-0.9,0.9-1.5,0.7   c0,0-0.1,0-0.1-0.1c-0.6-0.3-0.8-1-0.6-1.6l2.7-9.2C9.2,17.2,11,16,13,16h7.1c0.2,0,0.3,0,0.5-0.1l9.9-5.2c0.6-0.2,1.3,0,1.6,0.6   c0.2,0.3,0.2,0.7,0.1,1c-0.1,0.3-0.4,0.6-0.8,0.7l-9.8,5.1C21.2,18.3,21,18.6,21,19v22c-1.9,1.4-2.5,3.9-1.6,6H18V30h-2v17h-3.4   c0.3-0.6,0.4-1.3,0.4-2h0V20c0-0.6-0.4-1-1-1c-0.4,0-0.8,0.3-1,0.7L8.1,29.2z M8,42c1.7,0,3,1.3,3,3s-1.3,3-3,3s-3-1.3-3-3   C5,43.3,6.3,42,8,42z M4,52.6C4,51.2,5.2,50,6.6,50h2.8c1.4,0,2.6,1.2,2.6,2.6V60H4V52.6z"/>
	<path d="M34,52.6V61c0,0.6,0.4,1,1,1c0,0,0,0,0,0h10c0.6,0,1-0.4,1-1c0,0,0,0,0,0v-8.4c0-1.7-1-3.3-2.5-4.1c2-1.9,2-5.1,0-7.1   c-1.9-2-5.1-2-7.1,0c-2,1.9-2,5.1,0,7.1c0,0,0,0,0,0C35,49.3,34,50.9,34,52.6z M40,42c1.7,0,3,1.3,3,3s-1.3,3-3,3s-3-1.3-3-3   C37,43.3,38.3,42,40,42z M36,52.6c0-1.4,1.2-2.6,2.6-2.6h2.8c1.4,0,2.6,1.2,2.6,2.6V60h-8V52.6z"/>
	<path d="M59.5,48.5c2-1.9,2-5.1,0.1-7.1c-1.9-2-5.1-2-7.1-0.1c-2,1.9-2,5.1-0.1,7.1c0,0,0.1,0.1,0.1,0.1C51,49.3,50,50.9,50,52.6   V61c0,0.6,0.4,1,1,1c0,0,0,0,0,0h10c0.6,0,1-0.4,1-1c0,0,0,0,0,0v-8.4C62,50.9,61,49.3,59.5,48.5z M56,42c1.7,0,3,1.3,3,3   s-1.3,3-3,3s-3-1.3-3-3C53,43.3,54.3,42,56,42z M60,60h-8v-7.4c0-1.4,1.2-2.6,2.6-2.6h2.8c1.4,0,2.6,1.2,2.6,2.6V60z"/>
</g>
</svg>
