<?xml version="1.0" encoding="iso-8859-1"?>
<!-- Generator: Adobe Illustrator 19.0.0, SVG Export Plug-In . SVG Version: 6.00 Build 0)  -->
<svg version="1.1" id="Capa_1" xmlns="http://www.w3.org/2000/svg" xmlns:xlink="http://www.w3.org/1999/xlink" x="0px" y="0px"
	 viewBox="0 0 512 512" style="enable-background:new 0 0 512 512;" xml:space="preserve">
<rect x="217.97" y="374.37" style="fill:#DCE1EB;" width="76.06" height="82.59"/>
<rect x="256" y="374.37" style="fill:#CDD2E1;" width="38.03" height="82.59"/>
<rect y="37.38" style="fill:#CBF7F7;" width="512" height="348.88"/>
<rect x="256" y="37.38" style="fill:#96EBE6;" width="256" height="348.88"/>
<rect y="320.12" style="fill:#BEC3D2;" width="512" height="66.15"/>
<rect x="256" y="320.12" style="fill:#AFB4C8;" width="256" height="66.15"/>
<rect x="149.95" y="444.62" style="fill:#BEC3D2;" width="212.1" height="30"/>
<rect x="256" y="444.62" style="fill:#AFB4C8;" width="106.05" height="30"/>
<g>
	<polygon style="fill:#F2F6FC;" points="311.712,221.827 268.274,178.389 311.712,134.952 332.925,156.165 310.701,178.389 
		332.925,200.614 	"/>
	<polygon style="fill:#F2F6FC;" points="407.671,221.827 386.458,200.614 408.683,178.389 386.458,156.165 407.671,134.952 
		451.11,178.389 	"/>
	
		<rect x="344.697" y="128.055" transform="matrix(-0.9745 -0.2244 0.2244 -0.9745 670.1915 432.9375)" style="fill:#F2F6FC;" width="30" height="100.66"/>
</g>
<polygon style="fill:#9430A1;" points="210.01,227.781 128.822,269.72 47.635,227.781 47.635,128.996 128.822,87.058 
	210.01,128.996 "/>
<polygon style="fill:#D261E8;" points="210.01,227.781 128.822,269.72 128.822,170.935 210.01,128.996 "/>
<polygon style="fill:#DE78F0;" points="47.635,128.996 128.822,170.935 210.01,128.996 128.822,87.058 "/>
<g>
</g>
<g>
</g>
<g>
</g>
<g>
</g>
<g>
</g>
<g>
</g>
<g>
</g>
<g>
</g>
<g>
</g>
<g>
</g>
<g>
</g>
<g>
</g>
<g>
</g>
<g>
</g>
<g>
</g>
</svg>
