<?xml version="1.0" encoding="iso-8859-1"?>
<!-- Generator: Adobe Illustrator 19.0.0, SVG Export Plug-In . SVG Version: 6.00 Build 0)  -->
<svg version="1.1" id="Capa_1" xmlns="http://www.w3.org/2000/svg" xmlns:xlink="http://www.w3.org/1999/xlink" x="0px" y="0px"
	 viewBox="0 0 512 512" style="enable-background:new 0 0 512 512;" xml:space="preserve">
<circle style="fill:#01579A;" cx="256" cy="256" r="256"/>
<path style="fill:#004777;" d="M262.631,511.916c136.117-3.461,245.823-113.168,249.284-249.285L329.284,80l-5.988,53.297L270,80
	l-8.901,50.383L210.716,80l-2.298,108.087L80,210.715l49.204,49.204L80,270l50.542,50.542L80,329.284L262.631,511.916z"/>
<rect x="242" y="80" style="fill:#CED7DB;" width="28" height="77.81"/>
<rect x="255.57" y="80" style="fill:#AFBDC4;" width="14.429" height="77.81"/>
<rect x="242" y="354.19" style="fill:#CED7DB;" width="28" height="77.81"/>
<g>
	<rect x="255.57" y="354.19" style="fill:#AFBDC4;" width="14.429" height="77.81"/>
	<rect x="301.28" y="80" style="fill:#AFBDC4;" width="28" height="77.81"/>
	<rect x="301.28" y="354.19" style="fill:#AFBDC4;" width="28" height="77.81"/>
</g>
<g>
	<rect x="182.72" y="80" style="fill:#CED7DB;" width="28" height="77.81"/>
	<rect x="182.72" y="354.19" style="fill:#CED7DB;" width="28" height="77.81"/>
</g>
<rect x="354.19" y="242" style="fill:#AFBDC4;" width="77.81" height="28"/>
<rect x="80" y="242" style="fill:#CED7DB;" width="77.81" height="28"/>
<rect x="354.19" y="301.29" style="fill:#AFBDC4;" width="77.81" height="28"/>
<rect x="80" y="301.28" style="fill:#CED7DB;" width="77.81" height="28"/>
<rect x="354.19" y="182.72" style="fill:#AFBDC4;" width="77.81" height="28"/>
<rect x="80" y="182.72" style="fill:#CED7DB;" width="77.81" height="28"/>
<rect x="138" y="138" style="fill:#FFFFFF;" width="236" height="236"/>
<rect x="255.57" y="138" style="fill:#E6E6E6;" width="118.43" height="236"/>
<path style="fill:#17CE59;" d="M318.223,346.904H193.777c-15.84,0-28.681-12.841-28.681-28.681V193.777
	c0-15.84,12.841-28.681,28.681-28.681h124.446c15.84,0,28.681,12.841,28.681,28.681v124.446
	C346.904,334.063,334.063,346.904,318.223,346.904z"/>
<path style="fill:#10BB67;" d="M318.223,165.096h-62.651v181.808h62.651c15.84,0,28.681-12.841,28.681-28.681V193.777
	C346.904,177.937,334.063,165.096,318.223,165.096z"/>
<g>
</g>
<g>
</g>
<g>
</g>
<g>
</g>
<g>
</g>
<g>
</g>
<g>
</g>
<g>
</g>
<g>
</g>
<g>
</g>
<g>
</g>
<g>
</g>
<g>
</g>
<g>
</g>
<g>
</g>
</svg>
