<?xml version="1.0" encoding="iso-8859-1"?>
<!-- Generator: Adobe Illustrator 19.0.0, SVG Export Plug-In . SVG Version: 6.00 Build 0)  -->
<svg version="1.1" id="Capa_1" xmlns="http://www.w3.org/2000/svg" xmlns:xlink="http://www.w3.org/1999/xlink" x="0px" y="0px"
	 viewBox="0 0 511.874 511.874" style="enable-background:new 0 0 511.874 511.874;" xml:space="preserve">
<path id="SVGCleanerId_0" style="fill:#5D9CEC;" d="M483.88,67.905v247.939H27.993V67.905h31.992h31.992h31.992h31.992h31.992
	h175.956h15.996h15.996h15.996h15.996h23.994h15.996H483.88z M411.898,179.877v-47.988h-31.992v-15.996h-31.992l-7.998,15.996
	v47.988H411.898z M383.906,299.848l-15.996-23.994h-14.395l6.396-31.992h-39.99l6.396,31.992h-22.393v7.998l-19.996-39.99
	l-19.994,39.99v-7.998h-19.995c5.838-7.842,5.28-19.034-1.839-26.157c-7.838-7.757-20.476-7.757-28.313,0
	c-7.119,7.123-7.678,18.315-1.839,26.157h-19.995v-31.992h-39.99v31.992h-7.998l-15.996,23.994H383.906z M291.927,179.877v-47.988
	h-31.992v-15.996h-31.991l-7.998,15.996v47.988H291.927z M171.958,179.877v-47.988h-31.992v-15.996h-31.992l-7.998,15.996v47.988
	H171.958z"/>
<g>
	<path id="SVGCleanerId_0_1_" style="fill:#5D9CEC;" d="M483.88,67.905v247.939H27.993V67.905h31.992h31.992h31.992h31.992h31.992
		h175.956h15.996h15.996h15.996h15.996h23.994h15.996H483.88z M411.898,179.877v-47.988h-31.992v-15.996h-31.992l-7.998,15.996
		v47.988H411.898z M383.906,299.848l-15.996-23.994h-14.395l6.396-31.992h-39.99l6.396,31.992h-22.393v7.998l-19.996-39.99
		l-19.994,39.99v-7.998h-19.995c5.838-7.842,5.28-19.034-1.839-26.157c-7.838-7.757-20.476-7.757-28.313,0
		c-7.119,7.123-7.678,18.315-1.839,26.157h-19.995v-31.992h-39.99v31.992h-7.998l-15.996,23.994H383.906z M291.927,179.877v-47.988
		h-31.992v-15.996h-31.991l-7.998,15.996v47.988H291.927z M171.958,179.877v-47.988h-31.992v-15.996h-31.992l-7.998,15.996v47.988
		H171.958z"/>
</g>
<path style="fill:#E6E9ED;" d="M367.91,275.854l15.996,23.994H127.969l15.996-23.994h7.998v7.998h39.99v-7.998h19.995
	c0.558,0.719,1.121,1.438,1.839,2.155c7.838,7.764,20.476,7.764,28.313,0c0.719-0.718,1.281-1.437,1.839-2.155h19.995v7.998h39.99
	v-7.998h22.393l1.602,7.998h23.994l1.602-7.998H367.91z"/>
<polygon style="fill:#ED5564;" points="191.953,275.854 191.953,283.852 151.963,283.852 151.963,275.854 151.963,243.862 
	191.953,243.862 "/>
<g style="opacity:0.2;">
	<polygon style="fill:#FFFFFF;" points="159.961,243.862 151.963,243.862 151.963,275.854 151.963,283.852 159.961,283.852 
		159.961,275.854 	"/>
</g>
<path style="fill:#48CFAD;" d="M242.101,249.697c7.119,7.123,7.678,18.315,1.839,26.157h-0.078
	c-0.562,0.719-1.121,1.438-1.762,2.155c-7.838,7.764-20.476,7.764-28.313,0c-0.641-0.718-1.199-1.437-1.761-2.155h-0.078
	c-5.839-7.842-5.28-19.034,1.839-26.157C221.625,241.94,234.263,241.94,242.101,249.697z"/>
<g style="opacity:0.2;">
	<path style="fill:#FFFFFF;" d="M221.785,278.009c-0.641-0.718-1.199-1.437-1.761-2.155h-0.078
		c-5.839-7.842-5.28-19.034,1.839-26.157c2.894-2.859,6.44-4.647,10.158-5.405c-6.358-1.281-13.208,0.508-18.156,5.405
		c-7.119,7.123-7.678,18.315-1.839,26.157h0.078c0.562,0.719,1.12,1.438,1.761,2.155c4.948,4.897,11.798,6.687,18.156,5.405
		C228.225,282.665,224.679,280.876,221.785,278.009z"/>
</g>
<polygon style="fill:#656D78;" points="359.912,243.862 353.515,275.854 351.914,283.852 327.919,283.852 326.318,275.854 
	319.921,243.862 "/>
<g style="opacity:0.2;">
	<polygon style="fill:#FFFFFF;" points="327.919,243.862 319.921,243.862 326.318,275.854 327.919,283.852 335.917,283.852 
		334.316,275.854 	"/>
</g>
<polygon style="fill:#AC92EC;" points="283.929,243.862 303.925,283.852 263.935,283.852 "/>
<g style="opacity:0.2;">
	<polygon style="fill:#FFFFFF;" points="283.929,243.862 263.935,283.852 271.933,283.852 287.929,251.86 	"/>
</g>
<g style="opacity:0.1;">
	<path d="M483.88,371.987v-0.156v-31.992h23.994v31.992v0.156c0,13.2-10.793,23.994-23.994,23.994h-23.994
		C473.087,395.981,483.88,385.187,483.88,371.987z"/>
</g>
<rect x="27.997" y="51.909" style="fill:#AAB2BC;" width="31.992" height="15.996"/>
<g>
	<rect x="59.987" y="51.909" style="fill:#CCD1D9;" width="31.992" height="15.996"/>
	<rect x="91.977" y="51.909" style="fill:#CCD1D9;" width="31.992" height="15.996"/>
	<rect x="123.967" y="51.909" style="fill:#CCD1D9;" width="31.992" height="15.996"/>
	<rect x="155.967" y="51.909" style="fill:#CCD1D9;" width="31.992" height="15.996"/>
	<rect x="187.957" y="51.909" style="fill:#CCD1D9;" width="175.96" height="15.996"/>
</g>
<g>
	<rect x="467.887" y="51.909" style="fill:#AAB2BC;" width="15.996" height="15.996"/>
	<rect x="451.887" y="51.909" style="fill:#AAB2BC;" width="15.996" height="15.996"/>
	<rect x="427.897" y="51.909" style="fill:#AAB2BC;" width="23.994" height="15.996"/>
</g>
<g>
	<rect x="411.897" y="51.909" style="fill:#CCD1D9;" width="15.996" height="15.996"/>
	<rect x="395.897" y="51.909" style="fill:#CCD1D9;" width="15.996" height="15.996"/>
	<rect x="379.907" y="51.909" style="fill:#CCD1D9;" width="15.996" height="15.996"/>
	<rect x="363.907" y="51.909" style="fill:#CCD1D9;" width="15.996" height="15.996"/>
</g>
<polygon style="fill:#F6BB42;" points="379.906,115.893 379.906,131.889 339.916,131.889 347.914,115.893 "/>
<polygon style="fill:#FFCE54;" points="411.898,131.889 411.898,179.877 339.916,179.877 339.916,131.889 379.906,131.889 "/>
<g>
	<polygon style="fill:#F6BB42;" points="139.966,115.893 139.966,131.889 99.976,131.889 107.974,115.893 	"/>
	<polygon style="fill:#F6BB42;" points="259.935,115.893 259.935,131.889 219.946,131.889 227.944,115.893 	"/>
</g>
<g>
	<polygon style="fill:#FFCE54;" points="291.927,131.889 291.927,179.877 219.946,179.877 219.946,131.889 259.935,131.889 	"/>
	<polygon style="fill:#FFCE54;" points="171.958,131.889 171.958,179.877 99.976,179.877 99.976,131.889 139.966,131.889 	"/>
</g>
<g style="opacity:0.3;">
	<polygon style="fill:#FFFFFF;" points="123.97,115.893 107.974,115.893 99.976,131.889 99.976,179.877 115.972,179.877 
		115.972,131.889 	"/>
</g>
<g style="opacity:0.3;">
	<polygon style="fill:#FFFFFF;" points="243.94,115.893 227.944,115.893 219.946,131.889 219.946,179.877 235.942,179.877 
		235.942,131.889 	"/>
</g>
<g style="opacity:0.3;">
	<polygon style="fill:#FFFFFF;" points="363.91,115.893 347.914,115.893 339.916,131.889 339.916,179.877 355.912,179.877 
		355.912,131.889 	"/>
</g>
<g style="opacity:0.2;">
	<rect x="27.997" y="67.905" style="fill:#FFFFFF;" width="15.996" height="247.94"/>
</g>
<g style="opacity:0.2;">
	<rect x="467.887" y="67.905" width="15.996" height="247.94"/>
</g>
<path style="fill:#5D9CEC;" d="M255.937,355.834c6.639,0,11.996,5.358,11.996,11.997s-5.357,11.997-11.996,11.997
	c-6.639,0-11.997-5.358-11.997-11.997S249.298,355.834,255.937,355.834z"/>
<g>
	<path style="fill:#CCD1D9;" d="M507.875,371.987v15.84c0,13.513-10.48,23.994-23.994,23.994c-5.678,0-85.018,0-176.035,0
		c-34.068,0-69.744,0-103.817,0c-91.017,0-170.357,0-176.035,0C14.478,411.821,4,401.34,4,387.827v-15.84
		c0,13.2,10.798,23.994,23.994,23.994h227.943H483.88C497.082,395.981,507.875,385.187,507.875,371.987z"/>
	<path style="fill:#CCD1D9;" d="M307.845,411.821l15.996,71.982H188.032l15.996-71.982
		C238.102,411.821,273.777,411.821,307.845,411.821z"/>
</g>
<g style="opacity:0.5;">
	<polygon style="fill:#FFFFFF;" points="200.478,427.817 188.032,483.803 204.028,483.803 216.474,427.817 	"/>
</g>
<g style="opacity:0.1;">
	<polygon points="311.392,427.817 323.841,483.803 307.845,483.803 295.396,427.817 	"/>
</g>
<g style="opacity:0.5;">
	<path style="fill:#FFFFFF;" d="M29.45,395.981h-1.457c-13.196,0-23.994-10.794-23.994-23.994v15.84
		c0,13.513,10.478,23.994,23.994,23.994c1.73,0,10.357,0,23.994,0C41.369,411.821,32.711,405.306,29.45,395.981z"/>
</g>
<g style="opacity:0.1;">
	<path d="M482.427,395.981h1.453c13.201,0,23.994-10.794,23.994-23.994v15.84c0,13.513-10.48,23.994-23.994,23.994
		c-1.734,0-10.355,0-23.994,0C470.509,411.821,479.164,405.306,482.427,395.981z"/>
</g>
<g>
	<path style="fill:#F5F7FA;" d="M507.875,339.838v32.148c0,13.2-10.793,23.994-23.994,23.994H255.937v-16.152
		c6.639,0,11.996-5.358,11.996-11.997s-5.357-11.997-11.996-11.997v-15.996L507.875,339.838L507.875,339.838z"/>
	<path style="fill:#F5F7FA;" d="M255.937,379.829v16.152H27.993c-13.196,0-23.994-10.794-23.994-23.994v-0.156v-31.992h251.938
		v15.996c-6.639,0-11.997,5.358-11.997,11.997S249.298,379.829,255.937,379.829z"/>
</g>
<path style="fill:#FFFFFF;" d="M27.993,371.987v-0.156v-31.992H3.999v31.992v0.156c0,13.2,10.798,23.994,23.994,23.994h23.994
	C38.791,395.981,27.993,385.187,27.993,371.987z"/>
<path style="fill:#656D78;" d="M507.875,52.065v287.773H255.937H3.999V52.065c0-13.191,10.798-23.994,23.994-23.994H483.88
	C497.082,28.071,507.875,38.874,507.875,52.065z M483.88,315.844V67.905V51.909h-15.996h-15.996h-23.994h-15.996h-15.996h-15.996
	H363.91H187.954h-31.992H123.97H91.978H59.985H27.993v15.996v247.939L483.88,315.844L483.88,315.844z"/>
<g style="opacity:0.2;">
	<path style="fill:#FFFFFF;" d="M27.993,67.905v-15.84v-0.156h0.016c0.09-13.121,10.837-23.838,23.979-23.838H27.993
		c-13.196,0-23.994,10.803-23.994,23.994v287.773h23.994v-23.994V67.905z"/>
</g>
<g style="opacity:0.3;">
	<path d="M483.88,67.905v-15.84v-0.156h-0.016c-0.094-13.121-10.84-23.838-23.979-23.838h23.994
		c13.201,0,23.994,10.803,23.994,23.994v287.773h-23.994v-23.994V67.905H483.88z"/>
</g>
<g style="opacity:0.1;">
	<path d="M311.4,427.817l-3.555-15.996c-34.068,0-69.744,0-103.817,0l-3.554,15.996H311.4z"/>
</g>
<g>
	<path style="fill:#3A3847;" d="M507.875,343.837H3.999c-2.21,0-3.999-1.789-3.999-3.999s1.789-3.999,3.999-3.999h503.875
		c2.211,0,4,1.789,4,3.999S510.085,343.837,507.875,343.837z"/>
	<path style="fill:#3A3847;" d="M255.937,383.828c-8.822,0-15.996-7.178-15.996-15.996c0-8.826,7.174-15.996,15.996-15.996
		c8.826,0,15.996,7.17,15.996,15.996C271.933,376.65,264.763,383.828,255.937,383.828z M255.937,359.833
		c-4.409,0-7.998,3.585-7.998,7.998c0,4.405,3.589,7.998,7.998,7.998c4.408,0,7.998-3.593,7.998-7.998
		C263.935,363.418,260.345,359.833,255.937,359.833z"/>
	<path style="fill:#3A3847;" d="M188.036,487.802c-0.289,0-0.578-0.031-0.871-0.094c-2.156-0.484-3.515-2.617-3.038-4.772
		l15.996-71.982c0.48-2.155,2.644-3.491,4.772-3.038c2.156,0.477,3.515,2.616,3.039,4.771l-15.997,71.982
		C191.523,486.529,189.867,487.802,188.036,487.802z"/>
	<path style="fill:#3A3847;" d="M323.841,487.802c-1.834,0-3.49-1.273-3.904-3.133l-15.996-71.982
		c-0.477-2.155,0.883-4.295,3.039-4.771c2.146-0.461,4.295,0.883,4.771,3.038l15.996,71.982c0.477,2.155-0.883,4.288-3.039,4.772
		C324.419,487.771,324.123,487.802,323.841,487.802z"/>
	<path style="fill:#3A3847;" d="M335.917,487.802h-159.96c-2.211,0-3.999-1.789-3.999-3.999c0-2.211,1.788-3.999,3.999-3.999h159.96
		c2.211,0,3.998,1.788,3.998,3.999C339.916,486.013,338.128,487.802,335.917,487.802z"/>
	<path style="fill:#3A3847;" d="M483.88,319.843H27.993c-2.21,0-3.999-1.789-3.999-3.999V51.909c0-2.21,1.789-3.999,3.999-3.999
		H483.88c2.211,0,4,1.789,4,3.999v263.936C487.88,318.054,486.091,319.843,483.88,319.843z M31.992,311.845h447.89V55.908H31.992
		V311.845z"/>
	<path style="fill:#3A3847;" d="M483.88,71.904H27.993c-2.21,0-3.999-1.788-3.999-3.999c0-2.21,1.789-3.999,3.999-3.999H483.88
		c2.211,0,4,1.789,4,3.999C487.88,70.116,486.091,71.904,483.88,71.904z"/>
	<path style="fill:#3A3847;" d="M59.985,71.904c-2.21,0-3.999-1.788-3.999-3.999V51.909c0-2.21,1.789-3.999,3.999-3.999
		s3.999,1.789,3.999,3.999v15.996C63.984,70.116,62.196,71.904,59.985,71.904z"/>
	<path style="fill:#3A3847;" d="M91.978,71.904c-2.21,0-3.999-1.788-3.999-3.999V51.909c0-2.21,1.789-3.999,3.999-3.999
		c2.21,0,3.999,1.789,3.999,3.999v15.996C95.977,70.116,94.187,71.904,91.978,71.904z"/>
	<path style="fill:#3A3847;" d="M123.97,71.904c-2.21,0-3.999-1.788-3.999-3.999V51.909c0-2.21,1.789-3.999,3.999-3.999
		c2.21,0,3.999,1.789,3.999,3.999v15.996C127.969,70.116,126.18,71.904,123.97,71.904z"/>
	<path style="fill:#3A3847;" d="M155.962,71.904c-2.211,0-3.999-1.788-3.999-3.999V51.909c0-2.21,1.788-3.999,3.999-3.999
		c2.21,0,3.999,1.789,3.999,3.999v15.996C159.961,70.116,158.172,71.904,155.962,71.904z"/>
	<path style="fill:#3A3847;" d="M187.954,71.904c-2.211,0-3.999-1.788-3.999-3.999V51.909c0-2.21,1.788-3.999,3.999-3.999
		c2.21,0,3.999,1.789,3.999,3.999v15.996C191.953,70.116,190.164,71.904,187.954,71.904z"/>
	<path style="fill:#3A3847;" d="M467.884,71.904c-2.209,0-3.998-1.788-3.998-3.999V51.909c0-2.21,1.789-3.999,3.998-3.999
		c2.211,0,4,1.789,4,3.999v15.996C471.884,70.116,470.095,71.904,467.884,71.904z"/>
	<path style="fill:#3A3847;" d="M451.888,71.904c-2.209,0-3.998-1.788-3.998-3.999V51.909c0-2.21,1.789-3.999,3.998-3.999
		c2.211,0,4,1.789,4,3.999v15.996C455.888,70.116,454.099,71.904,451.888,71.904z"/>
	<path style="fill:#3A3847;" d="M427.894,71.904c-2.209,0-3.998-1.788-3.998-3.999V51.909c0-2.21,1.789-3.999,3.998-3.999
		c2.211,0,4,1.789,4,3.999v15.996C431.894,70.116,430.105,71.904,427.894,71.904z"/>
	<path style="fill:#3A3847;" d="M411.898,71.904c-2.209,0-3.998-1.788-3.998-3.999V51.909c0-2.21,1.789-3.999,3.998-3.999
		c2.211,0,4,1.789,4,3.999v15.996C415.898,70.116,414.109,71.904,411.898,71.904z"/>
	<path style="fill:#3A3847;" d="M395.902,71.904c-2.209,0-3.998-1.788-3.998-3.999V51.909c0-2.21,1.789-3.999,3.998-3.999
		c2.211,0,4,1.789,4,3.999v15.996C399.902,70.116,398.113,71.904,395.902,71.904z"/>
	<path style="fill:#3A3847;" d="M379.906,71.904c-2.209,0-3.998-1.788-3.998-3.999V51.909c0-2.21,1.789-3.999,3.998-3.999
		c2.211,0,4,1.789,4,3.999v15.996C383.906,70.116,382.117,71.904,379.906,71.904z"/>
	<path style="fill:#3A3847;" d="M363.91,71.904c-2.209,0-3.998-1.788-3.998-3.999V51.909c0-2.21,1.789-3.999,3.998-3.999
		c2.211,0,4,1.789,4,3.999v15.996C367.91,70.116,366.121,71.904,363.91,71.904z"/>
	<path style="fill:#3A3847;" d="M191.953,279.853c-2.211,0-3.999-1.789-3.999-3.999v-27.993h-31.992v27.993
		c0,2.21-1.789,3.999-3.999,3.999c-2.211,0-3.999-1.789-3.999-3.999v-31.992c0-2.21,1.788-3.999,3.999-3.999h39.99
		c2.21,0,3.999,1.789,3.999,3.999v31.992C195.952,278.064,194.163,279.853,191.953,279.853z"/>
	<path style="fill:#3A3847;" d="M303.925,287.851c-1.469,0-2.875-0.812-3.578-2.211l-16.418-32.835l-16.416,32.835
		c-0.992,1.977-3.391,2.773-5.367,1.789c-1.977-0.992-2.775-3.39-1.789-5.365l19.996-39.991c1.359-2.71,5.795-2.71,7.154,0
		l19.994,39.991c0.984,1.976,0.188,4.373-1.787,5.365C305.144,287.71,304.535,287.851,303.925,287.851z"/>
	<path style="fill:#3A3847;" d="M353.523,279.853c-0.266,0-0.531-0.023-0.797-0.078c-2.156-0.438-3.562-2.538-3.133-4.71
		l5.445-27.204h-30.244l5.445,27.204c0.43,2.172-0.977,4.272-3.133,4.71c-2.188,0.445-4.279-0.977-4.709-3.14l-6.398-31.992
		c-0.234-1.172,0.07-2.391,0.828-3.319c0.766-0.922,1.891-1.461,3.094-1.461h39.99c1.203,0,2.328,0.539,3.092,1.461
		c0.758,0.929,1.062,2.147,0.828,3.319l-6.396,31.992C357.052,278.541,355.38,279.853,353.523,279.853z"/>
	<path style="fill:#3A3847;" d="M242.101,282.009c-1.023,0-2.046-0.391-2.827-1.172c-1.562-1.562-1.562-4.093,0-5.655
		c0.594-0.593,1.05-1.194,1.507-1.78c4.694-6.304,4.065-15.301-1.507-20.878c-6.245-6.171-16.414-6.187-22.674,0.016
		c-5.557,5.562-6.186,14.559-1.445,20.925c0.41,0.523,0.867,1.125,1.46,1.718c1.562,1.562,1.562,4.093,0,5.655s-4.093,1.562-5.655,0
		c-0.844-0.844-1.512-1.688-2.171-2.531c-7.143-9.591-6.19-23.08,2.171-31.438c9.373-9.278,24.604-9.271,33.952-0.016
		c8.377,8.373,9.33,21.862,2.234,31.391c-0.707,0.906-1.375,1.75-2.219,2.594C244.147,281.619,243.124,282.009,242.101,282.009z"/>
	<path style="fill:#3A3847;" d="M384.062,303.847c-0.047-0.008-0.109-0.008-0.156,0H127.969c-1.477,0-2.832-0.812-3.526-2.117
		c-0.695-1.296-0.617-2.874,0.199-4.1l15.996-23.994c0.742-1.117,1.992-1.781,3.328-1.781h7.998c2.21,0,3.999,1.789,3.999,3.999
		v3.999h31.992v-3.999c0-2.21,1.788-3.999,3.999-3.999h19.995c1.229,0,2.468,0.562,3.226,1.531c0.598,0.766,1.066,1.366,1.597,1.968
		c5.733,5.647,16.441,5.827,22.518-0.188c0.359-0.414,0.828-1.015,1.292-1.616c0.757-0.969,2.05-1.695,3.281-1.695h20.073
		c2.211,0,3.998,1.789,3.998,3.999v3.999h31.992v-3.999c0-2.21,1.789-3.999,4-3.999h22.393c1.906,0,3.547,1.344,3.922,3.21
		l0.961,4.788h17.432l0.961-4.788c0.375-1.866,2.016-3.21,3.922-3.21h14.395c1.336,0,2.586,0.664,3.326,1.781l15.482,23.213
		c0.826,0.734,1.342,1.804,1.342,2.999C388.06,302.058,386.273,303.847,384.062,303.847z M135.439,295.849h241l-10.67-15.996h-8.982
		l-0.953,4.78c-0.375,1.874-2.014,3.218-3.92,3.218H327.92c-1.906,0-3.547-1.344-3.922-3.218l-0.951-4.78h-15.123v3.999
		c0,2.21-1.787,3.999-3.998,3.999h-39.99c-2.211,0-4-1.789-4-3.999v-3.999h-14.144c-0.234,0.281-0.465,0.547-0.707,0.82
		c-9.427,9.365-25.025,9.178-34.108,0.18c-0.324-0.359-0.609-0.688-0.871-1h-14.152v3.999c0,2.21-1.789,3.999-3.999,3.999h-39.99
		c-2.211,0-3.999-1.789-3.999-3.999v-3.999h-1.859L135.439,295.849z"/>
	<path style="fill:#3A3847;" d="M171.958,183.876H99.976c-2.21,0-3.999-1.788-3.999-3.999v-47.988c0-2.21,1.789-3.999,3.999-3.999
		c2.21,0,3.999,1.789,3.999,3.999v43.989h63.984v-39.99h-27.993c-2.211,0-3.999-1.788-3.999-3.999c0-2.21,1.788-3.999,3.999-3.999
		h31.992c2.21,0,3.999,1.789,3.999,3.999v47.988C175.957,182.088,174.168,183.876,171.958,183.876z"/>
	<path style="fill:#3A3847;" d="M139.966,135.888h-39.99c-1.387,0-2.671-0.719-3.401-1.897c-0.73-1.18-0.797-2.656-0.176-3.89
		l7.998-15.996c0.679-1.359,2.062-2.211,3.577-2.211h31.992c2.21,0,3.999,1.789,3.999,3.999v15.996
		C143.965,134.1,142.176,135.888,139.966,135.888z M106.446,127.89h29.521v-7.998h-25.521L106.446,127.89z"/>
	<path style="fill:#3A3847;" d="M163.96,199.873h-55.986c-2.21,0-3.999-1.788-3.999-3.999c0-2.21,1.789-3.999,3.999-3.999h55.986
		c2.21,0,3.999,1.789,3.999,3.999C167.959,198.084,166.17,199.873,163.96,199.873z"/>
	<path style="fill:#3A3847;" d="M291.927,183.876h-71.981c-2.211,0-3.999-1.788-3.999-3.999v-47.988c0-2.21,1.788-3.999,3.999-3.999
		c2.21,0,3.999,1.789,3.999,3.999v43.989h63.984v-39.99h-27.994c-2.209,0-3.998-1.788-3.998-3.999c0-2.21,1.789-3.999,3.998-3.999
		h31.992c2.211,0,4,1.789,4,3.999v47.988C295.927,182.088,294.138,183.876,291.927,183.876z"/>
	<path style="fill:#3A3847;" d="M259.935,135.888h-39.989c-1.387,0-2.672-0.719-3.402-1.897c-0.73-1.18-0.796-2.656-0.176-3.89
		l7.998-15.996c0.679-1.359,2.062-2.211,3.578-2.211h31.991c2.211,0,4,1.789,4,3.999v15.996
		C263.935,134.1,262.146,135.888,259.935,135.888z M226.417,127.89h29.52v-7.998h-25.521L226.417,127.89z"/>
	<path style="fill:#3A3847;" d="M283.929,199.873h-55.985c-2.211,0-3.999-1.788-3.999-3.999c0-2.21,1.788-3.999,3.999-3.999h55.985
		c2.211,0,4,1.789,4,3.999S286.14,199.873,283.929,199.873z"/>
	<path style="fill:#3A3847;" d="M411.898,183.876h-71.982c-2.209,0-3.998-1.788-3.998-3.999v-47.988c0-2.21,1.789-3.999,3.998-3.999
		c2.211,0,4,1.789,4,3.999v43.989H407.9v-39.99h-27.994c-2.209,0-3.998-1.788-3.998-3.999c0-2.21,1.789-3.999,3.998-3.999h31.992
		c2.211,0,4,1.789,4,3.999v47.988C415.898,182.088,414.109,183.876,411.898,183.876z"/>
	<path style="fill:#3A3847;" d="M379.906,135.888h-39.99c-1.389,0-2.67-0.719-3.404-1.897c-0.727-1.18-0.797-2.656-0.172-3.89
		l7.998-15.996c0.68-1.359,2.062-2.211,3.576-2.211h31.992c2.211,0,4,1.789,4,3.999v15.996
		C383.906,134.1,382.117,135.888,379.906,135.888z M346.384,127.89h29.523v-7.998h-25.525L346.384,127.89z"/>
	<path style="fill:#3A3847;" d="M403.9,199.873h-55.986c-2.209,0-3.998-1.788-3.998-3.999c0-2.21,1.789-3.999,3.998-3.999H403.9
		c2.211,0,4,1.789,4,3.999S406.111,199.873,403.9,199.873z"/>
	<path style="fill:#3A3847;" d="M483.88,399.98H27.993C12.559,399.98,0,387.42,0,371.987c0-0.023,0-0.055,0-0.078s0-0.055,0-0.078
		V52.065c0-15.434,12.56-27.993,27.993-27.993H483.88c15.434,0,27.994,12.56,27.994,27.993v319.922
		C511.875,387.42,499.314,399.98,483.88,399.98z M7.998,371.909c0,0.023,0,0.055,0,0.078c0,11.028,8.971,19.995,19.995,19.995
		H483.88c11.029,0,19.996-8.967,19.996-19.995V52.065c0-11.021-8.967-19.995-19.996-19.995H27.993
		c-11.024,0-19.995,8.975-19.995,19.995v319.766C7.998,371.854,7.998,371.885,7.998,371.909z"/>
	<path style="fill:#3A3847;" d="M483.88,415.82H27.993C12.298,415.82,0,403.518,0,387.827v-15.84c0-2.21,1.789-4.077,3.999-4.077
		s3.999,1.711,3.999,3.921v15.996c0,11.396,8.596,19.995,19.995,19.995H483.88c11.404,0,19.996-8.6,19.996-19.995v-15.84
		c0-2.21,1.789-3.999,3.998-3.999c2.211,0,4,1.789,4,3.999v15.84C511.875,403.518,499.58,415.82,483.88,415.82z"/>
	<path style="fill:#3A3847;" d="M44.228,63.906c-2.207,0-4.038-1.788-4.038-3.999c0-2.21,1.75-3.999,3.96-3.999h0.078
		c2.21,0,3.999,1.789,3.999,3.999C48.227,62.118,46.437,63.906,44.228,63.906z"/>
</g>
<g>
</g>
<g>
</g>
<g>
</g>
<g>
</g>
<g>
</g>
<g>
</g>
<g>
</g>
<g>
</g>
<g>
</g>
<g>
</g>
<g>
</g>
<g>
</g>
<g>
</g>
<g>
</g>
<g>
</g>
</svg>
