<?xml version="1.0" encoding="iso-8859-1"?>
<!-- Generator: Adobe Illustrator 19.0.0, SVG Export Plug-In . SVG Version: 6.00 Build 0)  -->
<svg version="1.1" id="Capa_1" xmlns="http://www.w3.org/2000/svg" xmlns:xlink="http://www.w3.org/1999/xlink" x="0px" y="0px"
	 viewBox="0 0 512 512" style="enable-background:new 0 0 512 512;" xml:space="preserve">
<path style="fill:#2E6FBC;" d="M174.826,111.378c0.168-0.138,34.494-26.047,81.816-26.047c47.45,0,80.547,26.054,80.547,26.054l0,0
	c10.22-52.486-9.358-80.825-9.358-80.825S303.785,9.447,256.642,9.447s-72.47,21.113-72.47,21.113S164.609,58.901,174.826,111.378z"
	/>
<path style="fill:#235F9B;" d="M256.709,61.895c-40.402,0-72.221,17.061-84.737,24.925c0.261,7.485,1.122,15.666,2.854,24.558
	c0.168-0.138,34.494-26.047,81.816-26.047c47.45,0,80.547,26.054,80.547,26.054c1.741-8.938,2.601-17.158,2.857-24.674
	C327.789,78.796,296.919,61.895,256.709,61.895z"/>
<path style="fill:#4B87DD;" d="M445.627,427.02l0.003-0.004C96.997,179.508,184.171,30.56,184.171,30.56l-38.417,37.211
	c-38.391,37.191-37.936,78.411-37.936,78.411l-0.012,0.009c1.009,64.211,40.925,186.925,266.792,353.61
	c7.151,5.27,8.823,1.833,9.165-0.864l0.613-43.332c0.096-6.602,4.02-8.805,6.498-9.54l1.988-0.368h0.002l0,0l49.633-9.181l0,0
	C455.102,434.185,445.627,427.02,445.627,427.02z"/>
<path style="fill:#2E6FBC;" d="M127.807,125.077l0.012-0.009c0,0-0.347-31.701,25.459-64.585l-7.523,7.288
	c-38.391,37.191-37.936,78.411-37.936,78.411l-0.012,0.009c1.009,64.211,40.925,186.925,266.792,353.61
	c7.151,5.27,8.823,1.833,9.165-0.864l0.396-28.021C167.496,308.187,128.801,188.287,127.807,125.077z"/>
<path style="fill:#4BA7E0;" d="M66.375,427.02l-0.003-0.004C415.004,179.508,327.83,30.56,327.83,30.56l38.417,37.211
	c38.391,37.191,37.936,78.411,37.936,78.411l0.012,0.009c-1.009,64.211-40.925,186.925-266.792,353.61
	c-7.151,5.27-8.823,1.833-9.165-0.864l-0.613-43.332c-0.096-6.602-4.02-8.805-6.498-9.54l-1.988-0.368h-0.002l0,0l-49.633-9.181l0,0
	C56.899,434.185,66.375,427.02,66.375,427.02z"/>
<path style="fill:#4B87DD;" d="M354.786,56.669L327.83,30.56c0,0,87.174,148.948-261.458,396.456l0.003,0.004
	c0,0-9.476,7.165,3.129,9.496l0,0l21.401,3.959C381.796,233.244,366.948,95.404,354.786,56.669z"/>
<path d="M459.948,425.988c-48.008-33.541-90.537-67.136-126.55-99.942c25.531-32.574,45.003-64.528,58.295-95.745
	c1.623-3.811-0.151-8.216-3.962-9.838c-3.812-1.624-8.216,0.152-9.838,3.962c-43.904,103.113-151.825,198.391-242.257,265.41
	l-0.631-44.643c-0.05-3.576-2.619-6.619-6.135-7.269l-53.674-9.928c97.601-69.815,221.627-175.618,259.14-289.68
	c12.049-36.637,12.047-65,9.026-84.215l17.665,17.111c22.944,22.227,34.761,50.472,35.66,73.317
	c-0.277,15.106-2.775,31.188-7.428,47.807c-1.117,3.988,1.212,8.127,5.2,9.244c3.988,1.118,8.127-1.211,9.244-5.2
	c7.345-26.233,8.231-48.304,7.976-52.583c-0.066-5.322-1.857-46.199-40.215-83.359c-0.215-0.208-38.462-37.262-38.686-37.459
	C331.708,22.04,306.04,0,256.639,0c-50.426,0-77.331,22.912-77.331,22.912c-0.12,0.103-0.241,0.203-0.356,0.315l-38.42,37.211
	c-30.675,29.718-40.502,65.755-40.226,83.924c0.601,38.279,14.818,100.546,78.302,181.547
	C144.557,357,102.931,390.44,52.049,425.988c-5.442,3.801-3.6,12.315,2.931,13.523l65.112,12.043l0.75,53.044
	c0.087,6.07,7.001,9.53,11.911,5.96c46.88-34.091,88.007-67.779,123.294-100.956c35.266,33.185,76.667,67.12,123.197,100.956
	c4.903,3.565,11.824,0.113,11.911-5.96l0.75-53.044l65.112-12.043c2.973-0.55,5.325-2.832,5.965-5.786
	C463.622,430.77,462.426,427.72,459.948,425.988z M190.058,33.563c34.632-24.827,99.268-24.541,131.838-0.085
	c2.385,4.995,11.335,26.706,6.773,62.875c-10.792-6.719-29.511-16.036-54.183-19.295c-4.11-0.539-7.875,2.347-8.418,6.453
	c-0.542,4.106,2.347,7.876,6.453,8.418c26.819,3.543,45.938,15.334,53.349,20.599c-10.419,47.723-39.263,93.911-69.981,132.147
	c-43.815-54.61-62.458-99.388-69.722-132.068c7.604-5.223,26.898-16.779,53.382-20.509c4.102-0.578,6.958-4.371,6.381-8.473
	c-0.578-4.101-4.368-6.959-8.473-6.381c-24.392,3.435-43.273,12.741-54.122,19.334C178.705,60.48,187.627,38.677,190.058,33.563z
	 M115.317,144.178c-0.002-0.383,0.251-38.671,35.651-72.967l17.706-17.149c-11.102,70.667,32.193,146.634,77.471,202.424
	c-15.736,18.567-34.401,38.323-56.507,59.184C152.832,268.503,115.588,204.146,115.317,144.178z M383.128,437.923
	c-3.516,0.65-6.085,3.693-6.135,7.269l-0.631,44.641c-41.023-30.418-77.765-60.828-109.458-90.6
	c21.329-20.705,40.361-41.203,57.071-61.469c32.643,29.676,70.508,59.957,112.827,90.23L383.128,437.923z"/>
<g>
</g>
<g>
</g>
<g>
</g>
<g>
</g>
<g>
</g>
<g>
</g>
<g>
</g>
<g>
</g>
<g>
</g>
<g>
</g>
<g>
</g>
<g>
</g>
<g>
</g>
<g>
</g>
<g>
</g>
</svg>
