<svg xmlns="http://www.w3.org/2000/svg" height="512pt" version="1.1" viewBox="0 -20 512.00499 512" width="512pt">
<g id="surface1">
<path d="M 504.636719 455.179688 C 501.640625 453.667969 497.050781 453.464844 492.960938 453.464844 C 491.957031 453.464844 490.96875 453.476562 490.027344 453.488281 L 489.925781 453.488281 C 488.953125 453.503906 488.003906 453.515625 487.089844 453.515625 C 485.984375 453.515625 485.109375 453.496094 484.339844 453.453125 C 467.582031 452.472656 450.757812 451.582031 434.335938 450.8125 C 401.40625 449.246094 368.09375 448.019531 335.324219 447.160156 C 294.894531 446.101562 253.71875 445.566406 212.933594 445.566406 C 187.679688 445.566406 162.179688 445.773438 137.144531 446.179688 C 99.738281 446.792969 62.113281 447.863281 25.316406 449.351562 C 18.957031 449.597656 13.328125 450.042969 8.878906 453.019531 C 6.261719 454.78125 4.390625 457.851562 4.105469 460.867188 C 3.992188 462.175781 4.175781 463.382812 4.648438 464.460938 L 5.4375 466.238281 L 493.453125 468.148438 C 498.179688 468.148438 502.34375 467.957031 505.414062 465.632812 C 507.175781 464.289062 508.109375 462.1875 507.910156 459.992188 C 507.699219 457.882812 506.507812 456.132812 504.636719 455.179688 Z M 504.636719 455.179688 " style=" stroke:none;fill-rule:nonzero;fill:rgb(57.647059%,32.156863%,32.156863%);fill-opacity:1;" />
<path d="M 423.917969 309.175781 C 424.96875 310.355469 426.515625 310.515625 427.890625 310.515625 L 459.703125 309.917969 C 460.859375 309.882812 461.894531 309.796875 462.8125 309.070312 C 463.941406 308.152344 464.164062 306.761719 464.292969 305.402344 C 464.40625 304.128906 464.449219 302.792969 463.644531 301.789062 C 462.675781 300.496094 461.074219 300.320312 459.503906 300.320312 C 457.113281 300.304688 454.722656 300.296875 452.335938 300.296875 C 449.953125 300.296875 447.570312 300.304688 445.1875 300.308594 L 444.953125 300.308594 C 442.734375 300.316406 440.515625 300.324219 438.289062 300.324219 L 428.074219 300.308594 C 426.496094 300.308594 424.890625 300.472656 423.816406 301.699219 C 422.898438 302.773438 422.847656 304.195312 422.875 305.378906 C 422.875 306.746094 423.003906 308.15625 423.917969 309.175781 Z M 423.917969 309.175781 " style=" stroke:none;fill-rule:nonzero;fill:rgb(57.647059%,32.156863%,32.156863%);fill-opacity:1;" />
<path d="M 423.917969 396.789062 C 424.972656 397.96875 426.523438 398.128906 428.046875 398.128906 L 459.738281 397.527344 C 460.621094 397.503906 461.828125 397.472656 462.796875 396.695312 C 463.9375 395.789062 464.160156 394.382812 464.292969 393.015625 C 464.410156 391.742188 464.453125 390.410156 463.644531 389.398438 C 462.644531 388.0625 460.984375 387.941406 459.503906 387.929688 C 457.125 387.914062 454.746094 387.910156 452.363281 387.910156 C 449.988281 387.910156 447.613281 387.914062 445.234375 387.917969 L 444.777344 387.921875 C 441.652344 387.929688 438.527344 387.941406 435.414062 387.941406 L 428.074219 387.917969 C 426.515625 387.917969 424.929688 388.082031 423.816406 389.308594 C 422.894531 390.382812 422.847656 391.804688 422.875 392.988281 C 422.875 394.359375 423.003906 395.765625 423.917969 396.789062 Z M 423.917969 396.789062 " style=" stroke:none;fill-rule:nonzero;fill:rgb(57.647059%,32.156863%,32.156863%);fill-opacity:1;" />
<path d="M 371.761719 309.179688 C 372.808594 310.355469 374.351562 310.515625 375.730469 310.515625 L 407.527344 309.917969 C 408.664062 309.886719 409.679688 309.804688 410.566406 309.140625 L 410.652344 309.070312 C 411.800781 308.140625 412.011719 306.679688 412.121094 305.402344 C 412.242188 304.070312 412.28125 302.78125 411.484375 301.789062 C 410.46875 300.433594 408.796875 300.320312 407.332031 300.320312 C 404.945312 300.304688 402.5625 300.300781 400.175781 300.300781 C 397.792969 300.300781 395.410156 300.304688 393.023438 300.308594 L 392.804688 300.308594 C 390.582031 300.316406 388.351562 300.324219 386.125 300.324219 L 375.914062 300.308594 C 374.425781 300.308594 372.742188 300.417969 371.660156 301.695312 C 370.738281 302.765625 370.6875 304.191406 370.714844 305.378906 C 370.714844 306.660156 370.796875 308.109375 371.761719 309.179688 Z M 371.761719 309.179688 " style=" stroke:none;fill-rule:nonzero;fill:rgb(57.647059%,32.156863%,32.156863%);fill-opacity:1;" />
<path d="M 371.753906 396.792969 C 372.941406 398.128906 374.851562 398.128906 375.878906 398.128906 L 407.566406 397.527344 C 408.671875 397.5 409.738281 397.414062 410.660156 396.675781 C 411.800781 395.746094 412.015625 394.289062 412.121094 393.015625 C 412.246094 391.683594 412.285156 390.398438 411.484375 389.402344 C 410.484375 388.066406 408.816406 387.941406 407.335938 387.929688 C 404.957031 387.914062 402.582031 387.910156 400.203125 387.910156 C 397.832031 387.910156 395.457031 387.914062 393.078125 387.921875 L 392.617188 387.921875 C 389.496094 387.929688 386.371094 387.941406 383.253906 387.941406 L 375.917969 387.921875 C 374.335938 387.921875 372.726562 388.085938 371.65625 389.308594 C 370.738281 390.378906 370.691406 391.804688 370.714844 392.992188 C 370.714844 394.273438 370.796875 395.730469 371.753906 396.792969 Z M 371.753906 396.792969 " style=" stroke:none;fill-rule:nonzero;fill:rgb(57.647059%,32.156863%,32.156863%);fill-opacity:1;" />
<path d="M 218.308594 444.519531 L 221.277344 444.535156 L 222.394531 370.847656 C 222.433594 367.761719 222.757812 365.578125 224.234375 364.246094 C 225.78125 362.847656 228.3125 362.835938 230.167969 362.828125 L 257.804688 362.617188 L 257.832031 362.609375 L 288.449219 362.378906 C 291.21875 362.378906 293.320312 362.664062 294.601562 364.054688 C 295.457031 364.980469 295.875 366.390625 295.90625 368.445312 L 295.90625 369.152344 L 295.902344 369.230469 C 295.902344 369.542969 295.886719 369.835938 295.871094 370.109375 L 291.945312 445.167969 L 295.164062 445.234375 C 296.621094 445.261719 298.089844 445.289062 299.542969 445.308594 L 302.5 445.351562 L 304.589844 372.324219 L 304.597656 372.324219 L 304.636719 370.683594 L 304.664062 369.78125 L 304.671875 369.386719 L 304.671875 369.328125 C 304.789062 364.679688 304.671875 359.859375 301.84375 356.445312 C 298.363281 352.25 292.058594 351.765625 286.417969 351.640625 L 231.613281 350.449219 C 230.859375 350.433594 230.097656 350.421875 229.332031 350.421875 C 223.785156 350.421875 217.605469 350.988281 213.855469 355.179688 C 210.449219 358.992188 210.148438 364.5 210.125 370.285156 L 209.726562 444.5 L 212.746094 444.5 C 214.601562 444.5 216.453125 444.507812 218.308594 444.519531 Z M 218.308594 444.519531 " style=" stroke:none;fill-rule:nonzero;fill:rgb(57.647059%,32.156863%,32.156863%);fill-opacity:1;" />
<path d="M 102.972656 309.179688 C 104.015625 310.355469 105.5625 310.515625 106.9375 310.515625 L 138.734375 309.917969 C 139.875 309.886719 140.890625 309.804688 141.773438 309.140625 L 141.871094 309.066406 C 143.011719 308.136719 143.222656 306.679688 143.332031 305.402344 C 143.453125 304.070312 143.492188 302.78125 142.695312 301.789062 C 141.679688 300.433594 140.007812 300.320312 138.542969 300.320312 C 136.15625 300.304688 133.773438 300.300781 131.386719 300.300781 C 129.003906 300.300781 126.621094 300.304688 124.234375 300.308594 L 124.015625 300.308594 C 121.792969 300.316406 119.5625 300.324219 117.335938 300.324219 L 107.125 300.308594 C 105.632812 300.308594 103.953125 300.417969 102.871094 301.695312 C 101.949219 302.765625 101.898438 304.191406 101.925781 305.378906 C 101.925781 306.660156 102.007812 308.109375 102.972656 309.179688 Z M 102.972656 309.179688 " style=" stroke:none;fill-rule:nonzero;fill:rgb(57.647059%,32.156863%,32.156863%);fill-opacity:1;" />
<path d="M 102.972656 396.792969 C 104.167969 398.128906 106.066406 398.128906 107.09375 398.128906 L 138.773438 397.527344 C 139.878906 397.496094 140.945312 397.414062 141.871094 396.671875 C 143.011719 395.742188 143.222656 394.285156 143.332031 393.015625 C 143.453125 391.683594 143.492188 390.398438 142.695312 389.398438 C 141.691406 388.0625 140.027344 387.941406 138.542969 387.929688 C 136.167969 387.914062 133.789062 387.910156 131.410156 387.910156 C 129.035156 387.910156 126.660156 387.914062 124.285156 387.917969 L 123.828125 387.921875 C 120.703125 387.929688 117.578125 387.941406 114.464844 387.941406 L 107.125 387.917969 C 105.546875 387.917969 103.9375 388.085938 102.867188 389.308594 C 101.949219 390.378906 101.898438 391.800781 101.925781 392.988281 C 101.925781 394.269531 102.007812 395.722656 102.972656 396.792969 Z M 102.972656 396.792969 " style=" stroke:none;fill-rule:nonzero;fill:rgb(57.647059%,32.156863%,32.156863%);fill-opacity:1;" />
<path d="M 50.8125 309.183594 C 51.855469 310.355469 53.402344 310.515625 54.777344 310.515625 L 86.578125 309.917969 C 87.714844 309.886719 88.730469 309.804688 89.613281 309.140625 L 89.707031 309.070312 C 90.851562 308.140625 91.0625 306.679688 91.171875 305.402344 C 91.289062 304.113281 91.332031 302.871094 90.550781 301.8125 L 90.476562 301.710938 L 90.394531 301.621094 C 89.457031 300.542969 88.105469 300.320312 86.382812 300.320312 C 83.996094 300.304688 81.609375 300.300781 79.222656 300.300781 C 76.84375 300.300781 74.460938 300.304688 72.078125 300.3125 L 71.828125 300.3125 C 69.605469 300.320312 67.390625 300.324219 65.175781 300.324219 L 54.957031 300.308594 C 53.359375 300.308594 51.738281 300.476562 50.707031 301.699219 C 49.828125 302.726562 49.753906 304 49.753906 305.378906 L 49.757812 305.488281 C 49.78125 306.792969 49.882812 308.152344 50.8125 309.183594 Z M 50.8125 309.183594 " style=" stroke:none;fill-rule:nonzero;fill:rgb(57.647059%,32.156863%,32.156863%);fill-opacity:1;" />
<path d="M 50.816406 396.796875 C 52.007812 398.128906 53.910156 398.128906 54.933594 398.128906 L 86.613281 397.527344 C 87.71875 397.496094 88.785156 397.414062 89.710938 396.675781 C 90.824219 395.769531 91.039062 394.433594 91.171875 393.011719 C 91.285156 391.777344 91.332031 390.484375 90.554688 389.425781 L 90.480469 389.324219 L 90.394531 389.226562 C 89.371094 388.050781 87.789062 387.941406 86.382812 387.929688 C 84.007812 387.914062 81.628906 387.910156 79.25 387.910156 C 76.875 387.910156 74.5 387.914062 72.125 387.917969 L 71.671875 387.921875 C 68.546875 387.929688 65.421875 387.941406 62.304688 387.941406 L 54.957031 387.917969 C 53.378906 387.917969 51.777344 388.085938 50.707031 389.308594 C 49.828125 390.335938 49.753906 391.613281 49.753906 392.988281 L 49.757812 393.097656 C 49.78125 394.40625 49.886719 395.765625 50.816406 396.796875 Z M 50.816406 396.796875 " style=" stroke:none;fill-rule:nonzero;fill:rgb(57.647059%,32.156863%,32.156863%);fill-opacity:1;" />
<path d="M 329.628906 46.285156 L 327.9375 43.542969 L 298.8125 64.503906 L 304.832031 66.179688 C 305.488281 66.363281 306.15625 66.535156 306.820312 66.683594 C 309.976562 67.402344 313.398438 67.765625 316.988281 67.765625 C 324.636719 67.765625 332.160156 66.167969 338.511719 64.601562 L 343.578125 63.351562 L 339.953125 59.601562 C 336.09375 55.613281 332.621094 51.128906 329.628906 46.285156 Z M 329.628906 46.285156 " style=" stroke:none;fill-rule:nonzero;fill:rgb(35.686275%,81.568627%,98.823529%);fill-opacity:1;" />
<path d="M 319.453125 21.765625 C 315.921875 20.789062 312.128906 19.460938 308.171875 17.8125 L 306.808594 16.449219 L 258.003906 50.113281 L 258.054688 57.167969 L 261.953125 55.902344 C 264.238281 55.160156 266.765625 54.78125 269.460938 54.78125 C 272.226562 54.78125 275.195312 55.175781 278.292969 55.957031 L 279.640625 56.296875 L 325.507812 23.441406 Z M 319.453125 21.765625 " style=" stroke:none;fill-rule:nonzero;fill:rgb(35.686275%,81.568627%,98.823529%);fill-opacity:1;" />
<path d="M 286.449219 8.929688 C 285.277344 8.589844 284.230469 8.316406 283.242188 8.09375 C 280.378906 7.449219 277.550781 7.125 274.832031 7.125 C 268.523438 7.125 263.003906 8.859375 258.871094 12.140625 L 257.722656 13.050781 L 257.878906 32.949219 L 292.839844 10.78125 Z M 286.449219 8.929688 " style=" stroke:none;fill-rule:nonzero;fill:rgb(35.686275%,81.568627%,98.823529%);fill-opacity:1;" />
<path d="M 425.355469 360.160156 C 425.355469 361.792969 425.386719 363.429688 425.425781 365.039062 L 425.925781 389.882812 L 435.414062 389.898438 L 443.382812 389.890625 L 443.382812 389.898438 L 446.574219 389.890625 C 448.917969 389.882812 451.257812 389.878906 453.597656 389.878906 C 455.339844 389.878906 457.082031 389.882812 458.820312 389.890625 L 461.636719 389.90625 L 461.828125 387.09375 C 462.496094 377.285156 463 368.441406 462.449219 359.535156 L 462.394531 358.632812 L 462.445312 358.632812 L 462.316406 357.40625 L 462.273438 356.679688 L 462.246094 356.679688 L 462.109375 355.375 C 461.691406 351.292969 461.054688 347.550781 460.15625 343.9375 C 459.214844 340.136719 457.664062 335.386719 454.003906 332.363281 C 451.90625 330.636719 449.203125 329.636719 446.183594 329.464844 L 444.953125 329.394531 L 444.949219 329.023438 L 443.742188 329.328125 L 442.996094 329.285156 L 442.996094 329.511719 L 441.246094 329.949219 C 439.457031 330.398438 437.800781 331.113281 436.332031 332.074219 C 431.644531 335.117188 428.179688 340.488281 426.574219 347.203125 C 425.964844 349.800781 425.59375 352.671875 425.4375 355.980469 L 425.382812 357.203125 L 425.355469 357.203125 L 425.355469 357.773438 L 425.289062 359.164062 L 425.355469 359.164062 Z M 425.355469 360.160156 " style=" stroke:none;fill-rule:nonzero;fill:rgb(100%,100%,100%);fill-opacity:1;" />
<path d="M 425.355469 272.550781 C 425.355469 274.183594 425.386719 275.820312 425.425781 277.417969 L 425.925781 302.265625 C 425.925781 302.265625 436.945312 302.285156 437.71875 302.285156 L 445.34375 302.28125 L 445.34375 302.273438 L 446.371094 302.269531 C 448.761719 302.265625 451.152344 302.257812 453.539062 302.257812 C 455.300781 302.257812 457.058594 302.261719 458.820312 302.269531 L 461.636719 302.285156 L 461.828125 299.472656 C 462.496094 289.671875 463 280.832031 462.449219 271.925781 L 462.390625 271.023438 L 462.441406 271.023438 L 462.316406 269.796875 L 462.269531 269.070312 L 462.242188 269.070312 L 462.109375 267.765625 C 461.691406 263.683594 461.050781 259.941406 460.15625 256.328125 C 459.214844 252.527344 457.664062 247.777344 454 244.753906 C 451.90625 243.03125 449.203125 242.027344 446.183594 241.855469 L 444.953125 241.785156 L 444.949219 241.414062 L 443.738281 241.714844 L 442.992188 241.675781 L 442.992188 241.902344 L 441.246094 242.339844 C 439.457031 242.789062 437.800781 243.503906 436.328125 244.464844 C 431.640625 247.511719 428.175781 252.875 426.570312 259.585938 C 425.960938 262.191406 425.589844 265.066406 425.433594 268.371094 L 425.378906 269.59375 L 425.351562 269.59375 L 425.351562 270.164062 L 425.285156 271.558594 L 425.351562 271.558594 L 425.351562 272.550781 Z M 425.355469 272.550781 " style=" stroke:none;fill-rule:nonzero;fill:rgb(100%,100%,100%);fill-opacity:1;" />
<path d="M 401.84375 244.753906 C 399.746094 243.03125 397.042969 242.027344 394.027344 241.855469 L 392.792969 241.785156 L 392.789062 241.375 L 391.488281 241.710938 L 390.835938 241.675781 L 390.835938 241.878906 L 389.066406 242.335938 C 387.273438 242.796875 385.625 243.515625 384.171875 244.464844 C 379.46875 247.515625 376.003906 252.882812 374.417969 259.574219 C 373.800781 262.160156 373.4375 264.957031 373.277344 268.371094 L 373.222656 269.59375 L 373.195312 269.59375 L 373.195312 270.164062 L 373.128906 271.554688 L 373.195312 271.554688 L 373.195312 272.550781 C 373.195312 274.175781 373.222656 275.796875 373.253906 277.421875 L 373.765625 302.265625 C 373.765625 302.265625 384.777344 302.285156 385.550781 302.285156 L 393.183594 302.28125 L 393.183594 302.273438 L 394.210938 302.273438 C 396.601562 302.265625 398.988281 302.257812 401.375 302.257812 C 403.136719 302.257812 404.898438 302.261719 406.660156 302.273438 L 409.476562 302.285156 L 409.667969 299.476562 C 410.335938 289.671875 410.839844 280.828125 410.289062 271.925781 L 410.234375 271.023438 L 410.28125 271.023438 L 410.15625 269.800781 L 410.113281 269.070312 L 410.082031 269.070312 L 409.949219 267.765625 C 409.53125 263.683594 408.890625 259.941406 407.996094 256.320312 C 407.039062 252.511719 405.480469 247.753906 401.84375 244.753906 Z M 401.84375 244.753906 " style=" stroke:none;fill-rule:nonzero;fill:rgb(100%,100%,100%);fill-opacity:1;" />
<path d="M 384.171875 332.074219 C 379.472656 335.125 376.007812 340.496094 374.417969 347.191406 C 373.800781 349.78125 373.4375 352.574219 373.277344 355.980469 L 373.222656 357.199219 L 373.195312 357.199219 L 373.195312 357.769531 L 373.128906 359.164062 L 373.195312 359.160156 L 373.195312 360.160156 C 373.195312 361.773438 373.222656 363.382812 373.253906 365.039062 L 373.765625 389.882812 L 383.246094 389.898438 L 391.226562 389.890625 L 391.226562 389.898438 L 394.425781 389.890625 C 396.761719 389.882812 399.097656 389.878906 401.433594 389.878906 C 403.175781 389.878906 404.917969 389.882812 406.660156 389.890625 L 409.476562 389.90625 L 409.667969 387.09375 C 410.335938 377.285156 410.839844 368.4375 410.289062 359.535156 L 410.234375 358.632812 L 410.28125 358.632812 L 410.15625 357.40625 L 410.113281 356.679688 L 410.082031 356.679688 L 409.949219 355.375 C 409.53125 351.292969 408.890625 347.550781 407.996094 343.929688 C 407.039062 340.121094 405.476562 335.367188 401.839844 332.363281 C 399.746094 330.640625 397.042969 329.636719 394.023438 329.464844 L 392.792969 329.394531 L 392.789062 329.023438 L 391.582031 329.328125 L 390.835938 329.285156 L 390.835938 329.511719 L 389.085938 329.949219 C 387.296875 330.398438 385.640625 331.113281 384.171875 332.074219 Z M 384.171875 332.074219 " style=" stroke:none;fill-rule:nonzero;fill:rgb(100%,100%,100%);fill-opacity:1;" />
<path d="M 330.511719 35.914062 L 344.070312 24.035156 L 335.9375 24.140625 L 335.367188 24.140625 C 331.984375 24.140625 328.316406 23.746094 324.464844 22.960938 L 323.183594 22.699219 L 277.578125 55.359375 L 282.8125 57.34375 C 282.933594 57.390625 283.054688 57.433594 283.171875 57.472656 C 283.238281 57.496094 283.304688 57.519531 283.449219 57.574219 C 286.363281 58.648438 289.238281 59.941406 292.019531 61.1875 C 294.652344 62.367188 297.234375 63.511719 299.84375 64.511719 L 301.355469 65.089844 L 328.769531 45.351562 L 327.917969 43.183594 C 327.464844 42.03125 327.335938 41.011719 327.511719 40.085938 C 327.875 38.222656 329.460938 36.835938 330.511719 35.914062 Z M 330.511719 35.914062 " style=" stroke:none;fill-rule:nonzero;fill:rgb(100%,100%,100%);fill-opacity:1;" />
<path d="M 291.597656 10.664062 L 290.195312 10.132812 L 259.679688 29.484375 L 259.273438 29.601562 L 257.867188 31.078125 L 258.027344 52.484375 L 308.191406 17.886719 L 301.558594 14.902344 C 297.886719 13.25 294.820312 11.886719 291.597656 10.664062 Z M 291.597656 10.664062 " style=" stroke:none;fill-rule:nonzero;fill:rgb(100%,100%,100%);fill-opacity:1;" />
<path d="M 221.671875 220.4375 C 214.105469 235.304688 216.882812 254.886719 228.277344 266.996094 C 235.808594 275.007812 246.734375 279.601562 258.25 279.601562 C 263.871094 279.601562 269.433594 278.4375 274.335938 276.234375 C 289.660156 269.347656 299.519531 252.253906 297.777344 235.597656 C 296.390625 222.246094 288.652344 211.761719 273.421875 202.609375 C 268.296875 199.523438 262.839844 197.960938 257.207031 197.960938 C 251.132812 197.960938 244.800781 199.78125 238.382812 203.367188 C 231.15625 207.398438 225.21875 213.460938 221.671875 220.4375 Z M 221.671875 220.4375 " style=" stroke:none;fill-rule:nonzero;fill:rgb(100%,100%,100%);fill-opacity:1;" />
<path d="M 141.5 271.921875 L 141.441406 271.023438 L 141.492188 271.019531 L 141.367188 269.796875 L 141.324219 269.070312 L 141.292969 269.070312 L 141.160156 267.761719 C 140.742188 263.679688 140.101562 259.941406 139.207031 256.320312 C 138.25 252.507812 136.6875 247.753906 133.054688 244.75 C 130.957031 243.027344 128.253906 242.023438 125.238281 241.851562 L 124.003906 241.785156 L 124 241.375 L 122.703125 241.710938 L 122.046875 241.671875 L 122.046875 241.878906 L 120.277344 242.332031 C 118.484375 242.792969 116.835938 243.511719 115.382812 244.460938 C 110.679688 247.515625 107.214844 252.882812 105.628906 259.574219 C 105.007812 262.171875 104.648438 264.964844 104.488281 268.367188 L 104.433594 269.589844 L 104.40625 269.589844 L 104.40625 270.160156 L 104.339844 271.554688 L 104.40625 271.554688 L 104.40625 272.546875 C 104.40625 274.171875 104.433594 275.796875 104.464844 277.417969 L 104.964844 302.265625 C 104.964844 302.265625 115.988281 302.28125 116.761719 302.28125 L 124.394531 302.277344 L 124.394531 302.273438 L 125.421875 302.269531 C 127.8125 302.261719 130.199219 302.257812 132.585938 302.257812 C 134.347656 302.257812 136.109375 302.261719 137.871094 302.269531 L 140.6875 302.285156 L 140.878906 299.472656 C 141.546875 289.671875 142.050781 280.835938 141.5 271.921875 Z M 141.5 271.921875 " style=" stroke:none;fill-rule:nonzero;fill:rgb(100%,100%,100%);fill-opacity:1;" />
<path d="M 125.632812 389.886719 C 127.972656 389.882812 130.304688 389.878906 132.640625 389.878906 C 134.382812 389.878906 136.125 389.878906 137.871094 389.890625 L 140.6875 389.902344 L 140.878906 387.09375 C 141.546875 377.285156 142.050781 368.445312 141.5 359.535156 L 141.441406 358.632812 L 141.492188 358.632812 L 141.367188 357.40625 L 141.324219 356.679688 L 141.292969 356.679688 L 141.160156 355.375 C 140.742188 351.292969 140.101562 347.550781 139.207031 343.929688 C 138.25 340.121094 136.6875 335.367188 133.050781 332.363281 C 130.957031 330.640625 128.253906 329.636719 125.234375 329.464844 L 124.003906 329.394531 L 124 329.023438 L 122.792969 329.328125 L 122.046875 329.285156 L 122.046875 329.511719 L 120.296875 329.949219 C 118.507812 330.398438 116.851562 331.113281 115.382812 332.074219 C 110.679688 335.125 107.21875 340.496094 105.628906 347.195312 C 105.007812 349.78125 104.648438 352.574219 104.488281 355.980469 L 104.429688 357.199219 L 104.402344 357.199219 L 104.402344 357.769531 L 104.339844 359.164062 L 104.402344 359.164062 L 104.402344 360.160156 C 104.402344 361.773438 104.433594 363.386719 104.464844 365.039062 L 104.964844 389.882812 L 114.457031 389.898438 L 122.433594 389.890625 L 122.433594 389.898438 Z M 125.632812 389.886719 " style=" stroke:none;fill-rule:nonzero;fill:rgb(100%,100%,100%);fill-opacity:1;" />
<path d="M 52.246094 360.160156 C 52.246094 361.789062 52.273438 363.417969 52.304688 365.039062 L 52.804688 389.882812 L 62.296875 389.898438 L 70.273438 389.890625 L 70.273438 389.898438 L 73.457031 389.890625 C 75.792969 389.882812 78.136719 389.878906 80.480469 389.878906 C 82.222656 389.878906 83.964844 389.882812 85.710938 389.890625 L 88.527344 389.90625 L 88.71875 387.09375 C 89.382812 377.285156 89.890625 368.4375 89.328125 359.53125 L 89.273438 358.632812 L 89.332031 358.632812 L 89.175781 357.105469 L 89.148438 356.679688 L 89.132812 356.679688 L 89 355.375 C 88.578125 351.273438 87.933594 347.527344 87.035156 343.9375 C 86.09375 340.140625 84.546875 335.390625 80.890625 332.363281 C 78.792969 330.636719 76.089844 329.636719 73.0625 329.464844 L 71.839844 329.398438 L 71.839844 329.03125 L 70.640625 329.328125 L 69.875 329.285156 L 69.875 329.515625 L 68.140625 329.949219 C 66.363281 330.390625 64.707031 331.105469 63.207031 332.074219 C 58.515625 335.128906 55.054688 340.5 53.464844 347.195312 C 52.847656 349.78125 52.488281 352.574219 52.328125 355.980469 L 52.269531 357.199219 L 52.246094 357.199219 L 52.246094 357.753906 L 52.179688 359.164062 L 52.246094 359.160156 Z M 52.246094 360.160156 " style=" stroke:none;fill-rule:nonzero;fill:rgb(100%,100%,100%);fill-opacity:1;" />
<path d="M 52.246094 272.550781 C 52.246094 274.179688 52.273438 275.808594 52.304688 277.417969 L 52.804688 302.265625 C 52.804688 302.265625 63.824219 302.285156 64.597656 302.285156 L 72.234375 302.28125 L 72.234375 302.273438 L 73.261719 302.269531 C 75.644531 302.265625 78.035156 302.257812 80.421875 302.257812 C 82.183594 302.257812 83.945312 302.261719 85.710938 302.269531 L 88.527344 302.285156 L 88.71875 299.472656 C 89.382812 289.667969 89.890625 280.828125 89.328125 271.921875 L 89.273438 271.023438 L 89.332031 271.023438 L 89.175781 269.484375 L 89.148438 269.070312 L 89.132812 269.070312 L 89 267.765625 C 88.578125 263.660156 87.9375 259.917969 87.039062 256.328125 C 86.097656 252.53125 84.546875 247.78125 80.890625 244.753906 C 78.796875 243.03125 76.089844 242.027344 73.0625 241.855469 L 71.84375 241.789062 L 71.839844 241.382812 L 70.550781 241.714844 L 69.875 241.675781 L 69.875 241.886719 L 68.121094 242.335938 C 66.34375 242.789062 64.691406 243.503906 63.207031 244.46875 C 58.511719 247.523438 55.054688 252.890625 53.464844 259.574219 C 52.847656 262.160156 52.488281 264.957031 52.328125 268.371094 L 52.269531 269.59375 L 52.246094 269.59375 L 52.246094 270.148438 L 52.179688 271.558594 L 52.246094 271.554688 Z M 52.246094 272.550781 " style=" stroke:none;fill-rule:nonzero;fill:rgb(100%,100%,100%);fill-opacity:1;" />
<path d="M 291.015625 445.160156 L 293.910156 445.207031 L 297.8125 370.460938 C 297.953125 367.671875 297.933594 364.773438 296.042969 362.726562 C 294.171875 360.695312 291.34375 360.417969 288.566406 360.417969 L 258.375 360.648438 L 258.375 360.644531 L 230.160156 360.867188 C 227.554688 360.882812 224.851562 361.039062 222.917969 362.789062 C 220.511719 364.957031 220.464844 368.632812 220.4375 370.824219 L 219.320312 444.523438 L 222.359375 444.527344 C 234.355469 444.550781 245.148438 444.605469 255.355469 444.699219 L 258.386719 444.722656 L 258.386719 444.714844 L 259.394531 444.726562 C 270.5 444.84375 280.839844 444.984375 291.015625 445.160156 Z M 291.015625 445.160156 " style=" stroke:none;fill-rule:nonzero;fill:rgb(68.627451%,47.45098%,47.45098%);fill-opacity:1;" />
<path d="M 434.394531 449.734375 C 448.527344 450.40625 463.03125 451.167969 477.496094 451.996094 L 480.664062 452.175781 L 480.664062 449 C 480.664062 448.890625 480.660156 448.78125 480.648438 448.671875 L 484.929688 215.117188 L 367.695312 215.574219 L 366.8125 216.53125 C 366.472656 216.898438 366.210938 217.148438 365.925781 217.371094 C 364.429688 218.574219 362.496094 219.207031 360.332031 219.207031 C 359.78125 219.207031 359.21875 219.164062 358.660156 219.082031 L 355.261719 218.570312 L 352.113281 446.566406 L 355.0625 446.65625 C 381.582031 447.46875 408.273438 448.503906 434.394531 449.734375 Z M 410.179688 392.835938 C 410.109375 393.570312 410.007812 394.679688 409.398438 395.167969 C 408.9375 395.539062 408.074219 395.558594 407.4375 395.570312 C 407.4375 395.570312 375.726562 396.171875 375.675781 396.171875 C 374.398438 396.171875 373.640625 395.960938 373.21875 395.488281 C 372.691406 394.898438 372.679688 393.808594 372.671875 392.988281 C 372.65625 392.03125 372.679688 391.128906 373.167969 390.566406 C 373.265625 390.453125 373.425781 390.300781 373.792969 390.152344 L 375.703125 389.375 L 375.210938 365 C 375.097656 359.253906 374.976562 353.3125 376.320312 347.644531 C 377.792969 341.449219 380.957031 336.503906 385.230469 333.726562 C 387.546875 332.214844 390.347656 331.386719 393.113281 331.386719 C 395.988281 331.386719 398.644531 332.273438 400.59375 333.886719 C 403.8125 336.542969 405.222656 340.910156 406.089844 344.414062 C 409.632812 358.6875 408.601562 373.882812 407.691406 387.289062 L 407.550781 389.359375 L 409.4375 390.222656 C 409.707031 390.34375 409.824219 390.460938 409.894531 390.546875 C 410.332031 391.09375 410.238281 392.132812 410.179688 392.835938 Z M 425.328125 302.957031 C 425.425781 302.84375 425.585938 302.695312 425.964844 302.539062 L 427.875 301.761719 L 427.382812 277.324219 C 427.265625 271.589844 427.148438 265.660156 428.484375 260.035156 C 429.964844 253.828125 433.132812 248.878906 437.398438 246.105469 C 439.71875 244.597656 442.515625 243.769531 445.273438 243.769531 C 448.152344 243.769531 450.8125 244.65625 452.761719 246.269531 C 455.976562 248.925781 457.386719 253.289062 458.253906 256.792969 C 461.796875 271.03125 460.761719 286.246094 459.851562 299.675781 L 459.710938 301.746094 L 461.601562 302.609375 C 461.871094 302.730469 461.984375 302.847656 462.0625 302.941406 C 462.492188 303.476562 462.398438 304.519531 462.339844 305.222656 C 462.269531 305.960938 462.167969 307.074219 461.578125 307.546875 C 461.105469 307.925781 460.234375 307.945312 459.597656 307.957031 L 427.824219 308.558594 C 426.554688 308.558594 425.800781 308.347656 425.382812 307.878906 C 424.851562 307.285156 424.84375 306.199219 424.835938 305.394531 C 424.828125 304.613281 424.816406 303.542969 425.328125 302.957031 Z M 425.3125 390.585938 C 425.464844 390.40625 425.679688 390.265625 425.964844 390.148438 L 427.875 389.371094 L 427.382812 364.933594 C 427.265625 359.203125 427.148438 353.277344 428.484375 347.648438 C 429.964844 341.445312 433.132812 336.5 437.402344 333.722656 C 439.722656 332.214844 442.519531 331.382812 445.28125 331.382812 C 448.15625 331.382812 450.816406 332.269531 452.761719 333.878906 C 455.976562 336.539062 457.386719 340.90625 458.253906 344.414062 C 461.796875 358.652344 460.761719 373.867188 459.851562 387.285156 L 459.710938 389.359375 L 461.597656 390.21875 C 461.871094 390.34375 461.984375 390.460938 462.058594 390.550781 C 462.488281 391.089844 462.398438 392.132812 462.335938 392.835938 C 462.269531 393.574219 462.167969 394.683594 461.578125 395.160156 C 461.105469 395.539062 460.234375 395.558594 459.597656 395.570312 L 428.191406 396.164062 C 428.121094 396.167969 427.878906 396.171875 427.835938 396.171875 C 426.558594 396.171875 425.800781 395.960938 425.378906 395.488281 C 424.851562 394.898438 424.839844 393.808594 424.835938 393.003906 C 424.828125 392.179688 424.816406 391.15625 425.3125 390.585938 Z M 373.167969 302.957031 C 373.265625 302.839844 373.425781 302.6875 373.796875 302.539062 L 375.707031 301.761719 L 375.214844 277.386719 C 375.097656 271.640625 374.976562 265.695312 376.320312 260.035156 C 377.804688 253.820312 380.96875 248.875 385.226562 246.105469 C 387.550781 244.597656 390.347656 243.769531 393.109375 243.769531 C 395.988281 243.769531 398.644531 244.65625 400.59375 246.273438 C 403.8125 248.925781 405.222656 253.289062 406.09375 256.789062 C 409.632812 271.0625 408.601562 286.261719 407.691406 299.675781 L 407.550781 301.746094 L 409.441406 302.609375 C 409.710938 302.730469 409.828125 302.847656 409.898438 302.941406 C 410.328125 303.476562 410.238281 304.519531 410.175781 305.222656 C 410.109375 305.957031 410.007812 307.070312 409.394531 307.554688 C 408.9375 307.925781 408.070312 307.945312 407.4375 307.957031 L 375.664062 308.558594 C 374.394531 308.558594 373.640625 308.347656 373.21875 307.878906 C 372.691406 307.285156 372.679688 306.195312 372.675781 305.375 C 372.660156 304.652344 372.640625 303.558594 373.167969 302.957031 Z M 373.167969 302.957031 " style=" stroke:none;fill-rule:nonzero;fill:rgb(96.862745%,70.196078%,43.529412%);fill-opacity:1;" />
<path d="M 41.675781 447.667969 C 74.082031 446.472656 106.199219 445.617188 137.140625 445.117188 C 140.425781 445.058594 143.714844 445.015625 147.003906 444.976562 L 155 444.867188 L 156.066406 216.097656 L 151.097656 220.296875 C 149.21875 221.886719 147.519531 222.890625 145.761719 223.460938 C 144.824219 223.761719 143.796875 223.917969 142.785156 223.917969 C 140.242188 223.917969 137.042969 222.894531 135.679688 220.023438 C 135.359375 219.339844 135.167969 218.652344 135.089844 217.917969 L 134.808594 215.222656 L 37.046875 215.414062 L 38.585938 447.78125 Z M 141.386719 392.835938 C 141.320312 393.570312 141.21875 394.683594 140.609375 395.167969 C 140.148438 395.539062 139.285156 395.554688 138.648438 395.570312 C 138.648438 395.570312 106.9375 396.167969 106.886719 396.167969 C 105.609375 396.167969 104.851562 395.960938 104.429688 395.488281 C 103.902344 394.898438 103.890625 393.808594 103.882812 392.988281 C 103.867188 392.03125 103.890625 391.128906 104.359375 390.585938 C 104.519531 390.402344 104.726562 390.261719 105.003906 390.148438 L 106.917969 389.371094 L 106.425781 365 C 106.308594 359.257812 106.1875 353.320312 107.53125 347.644531 C 109.003906 341.449219 112.167969 336.503906 116.4375 333.726562 C 118.761719 332.214844 121.5625 331.382812 124.328125 331.382812 C 127.203125 331.382812 129.859375 332.273438 131.804688 333.886719 C 135.007812 336.527344 136.425781 340.902344 137.304688 344.414062 C 140.84375 358.6875 139.8125 373.882812 138.902344 387.289062 L 138.761719 389.359375 L 140.648438 390.21875 C 140.917969 390.34375 141.039062 390.460938 141.109375 390.554688 C 141.539062 391.089844 141.449219 392.128906 141.386719 392.835938 Z M 104.378906 302.957031 C 104.476562 302.839844 104.636719 302.6875 105.003906 302.539062 L 106.917969 301.761719 L 106.425781 277.386719 C 106.308594 271.640625 106.1875 265.699219 107.53125 260.03125 C 109.007812 253.828125 112.167969 248.882812 116.4375 246.105469 C 118.757812 244.601562 121.558594 243.773438 124.320312 243.773438 C 127.199219 243.773438 129.855469 244.660156 131.804688 246.273438 C 135.003906 248.914062 136.425781 253.285156 137.300781 256.792969 C 140.84375 271.0625 139.8125 286.265625 138.902344 299.675781 L 138.761719 301.75 L 140.648438 302.609375 C 140.917969 302.730469 141.035156 302.847656 141.109375 302.941406 C 141.539062 303.480469 141.449219 304.519531 141.386719 305.226562 C 141.320312 305.960938 141.21875 307.070312 140.605469 307.558594 C 140.148438 307.929688 139.28125 307.949219 138.648438 307.960938 L 106.875 308.558594 C 105.605469 308.558594 104.851562 308.351562 104.429688 307.878906 C 103.902344 307.289062 103.890625 306.199219 103.886719 305.375 C 103.871094 304.652344 103.851562 303.558594 104.378906 302.957031 Z M 52.1875 302.976562 C 52.351562 302.789062 52.546875 302.660156 52.84375 302.539062 L 54.757812 301.761719 L 54.265625 277.386719 C 54.148438 271.636719 54.027344 265.695312 55.375 260.03125 C 56.847656 253.828125 60.011719 248.882812 64.277344 246.105469 C 66.597656 244.601562 69.394531 243.773438 72.152344 243.773438 C 75.03125 243.773438 77.691406 244.660156 79.644531 246.273438 C 82.84375 248.914062 84.265625 253.285156 85.144531 256.792969 C 88.667969 271 87.644531 286.234375 86.742188 299.675781 L 86.605469 301.734375 L 88.472656 302.601562 C 88.753906 302.730469 88.867188 302.847656 88.941406 302.941406 C 89.386719 303.496094 89.28125 304.570312 89.214844 305.238281 C 89.148438 305.96875 89.046875 307.078125 88.457031 307.550781 C 87.984375 307.925781 87.121094 307.945312 86.488281 307.960938 L 54.714844 308.558594 C 53.445312 308.558594 52.691406 308.347656 52.269531 307.878906 C 51.75 307.292969 51.730469 306.207031 51.714844 305.390625 C 51.707031 304.613281 51.699219 303.542969 52.1875 302.976562 Z M 52.171875 390.605469 C 52.347656 390.410156 52.558594 390.265625 52.84375 390.148438 L 54.757812 389.371094 L 54.265625 365 C 54.148438 359.25 54.027344 353.304688 55.375 347.640625 C 56.84375 341.445312 60.007812 336.503906 64.28125 333.722656 C 66.601562 332.214844 69.398438 331.382812 72.164062 331.382812 C 75.039062 331.382812 77.695312 332.269531 79.644531 333.882812 C 82.847656 336.527344 84.265625 340.902344 85.144531 344.414062 C 88.671875 358.625 87.644531 373.851562 86.742188 387.289062 L 86.605469 389.34375 L 88.472656 390.210938 C 88.757812 390.34375 88.867188 390.457031 88.941406 390.554688 C 89.386719 391.109375 89.28125 392.179688 89.21875 392.851562 C 89.148438 393.585938 89.046875 394.695312 88.457031 395.164062 C 87.988281 395.539062 87.125 395.558594 86.488281 395.570312 C 86.488281 395.570312 54.769531 396.171875 54.714844 396.171875 C 53.445312 396.171875 52.691406 395.960938 52.269531 395.492188 C 51.75 394.90625 51.730469 393.820312 51.714844 393.003906 C 51.707031 392.179688 51.699219 391.15625 52.171875 390.605469 Z M 52.171875 390.605469 " style=" stroke:none;fill-rule:nonzero;fill:rgb(96.862745%,70.196078%,43.529412%);fill-opacity:1;" />
<path d="M 452.074219 125 C 449.109375 120.410156 445.75 115.210938 440.511719 112.664062 C 436.292969 110.601562 431.28125 110.554688 426.824219 110.507812 C 406.957031 110.304688 388 110.28125 372.078125 110.28125 C 365.5625 110.28125 359.101562 110.285156 352.703125 110.289062 C 346.554688 110.296875 340.347656 110.300781 334.09375 110.300781 C 314.574219 110.300781 299.515625 110.25 285.269531 110.140625 L 277.621094 110.078125 L 283.1875 115.324219 C 283.867188 115.964844 284.546875 116.609375 285.222656 117.253906 L 286.230469 118.214844 C 312.214844 142.855469 339.082031 168.332031 362.503906 196.292969 C 365.339844 199.6875 367.59375 202.574219 368.679688 206.21875 C 369.132812 207.753906 369.28125 209.507812 369.101562 211.164062 L 368.742188 214.503906 L 483.957031 214.050781 C 484.363281 214.050781 484.761719 214.050781 485.144531 214.039062 L 485.316406 214.035156 L 485.46875 214.011719 L 485.566406 214.027344 L 485.835938 214.019531 C 490.269531 213.886719 495.707031 213.230469 498.40625 209.308594 C 502.109375 203.921875 498.207031 196.5625 494.945312 191.496094 Z M 452.074219 125 " style=" stroke:none;fill-rule:nonzero;fill:rgb(92.941176%,42.745098%,40%);fill-opacity:1;" />
<path d="M 361.683594 196.984375 C 338.34375 169.117188 311.515625 143.664062 285.5 118.980469 L 285.261719 118.757812 C 281.144531 114.855469 277.035156 110.960938 272.9375 107.050781 C 268.628906 102.9375 264.65625 99.476562 259.660156 98.761719 C 259.078125 98.675781 258.488281 98.632812 257.902344 98.632812 C 250.933594 98.632812 245.363281 104.480469 240.382812 109.703125 C 239.457031 110.667969 238.558594 111.605469 237.671875 112.480469 C 231.207031 118.898438 224.023438 126.066406 215.074219 135.039062 L 211.449219 138.664062 C 205.140625 144.972656 198.621094 151.5 192.207031 157.847656 L 141.425781 208.128906 C 136.753906 212.753906 135.191406 216.496094 136.644531 219.5625 C 137.605469 221.59375 139.945312 222.855469 142.753906 222.855469 C 143.679688 222.855469 144.605469 222.710938 145.40625 222.445312 C 148.804688 221.351562 151.480469 218.625 153.859375 216.199219 L 244.578125 123.640625 C 247.441406 120.71875 250.691406 117.40625 255.042969 116.273438 C 256.113281 115.992188 257.203125 115.851562 258.285156 115.851562 C 265.957031 115.851562 272.886719 122.902344 277.429688 128.203125 L 347.003906 209.429688 C 348.671875 211.382812 350.75 213.8125 353.175781 215.570312 L 353.902344 216.097656 L 354.800781 216.136719 C 355.019531 216.148438 355.144531 216.292969 355.191406 216.355469 L 355.734375 217.125 L 356.625 217.445312 C 357.871094 217.890625 359.179688 218.128906 360.402344 218.128906 C 362.292969 218.128906 363.976562 217.574219 365.269531 216.535156 C 368.242188 214.15625 368.589844 209.679688 367.652344 206.53125 C 366.628906 203.058594 364.34375 200.152344 361.683594 196.984375 Z M 361.683594 196.984375 " style=" stroke:none;fill-rule:nonzero;fill:rgb(92.941176%,42.745098%,40%);fill-opacity:1;" />
<path d="M 276.535156 194.859375 C 270.402344 191.164062 263.855469 189.289062 257.074219 189.289062 C 249.753906 189.289062 242.089844 191.492188 234.292969 195.839844 C 225.535156 200.726562 218.335938 208.082031 214.019531 216.546875 C 204.847656 234.578125 208.214844 258.328125 222.027344 273.011719 C 231.15625 282.726562 244.398438 288.300781 258.359375 288.300781 C 265.179688 288.300781 271.921875 286.886719 277.863281 284.214844 C 296.433594 275.875 308.390625 255.160156 306.289062 234.96875 C 304.613281 218.800781 295.15625 206.054688 276.535156 194.859375 Z M 273.523438 274.445312 C 268.898438 276.527344 263.628906 277.628906 258.285156 277.628906 C 247.445312 277.628906 236.757812 273.152344 229.699219 265.65625 C 218.859375 254.128906 216.21875 235.488281 223.417969 221.328125 C 226.789062 214.699219 232.441406 208.925781 239.335938 205.078125 C 245.503906 201.632812 251.523438 199.886719 257.21875 199.886719 C 262.445312 199.886719 267.558594 201.367188 272.40625 204.28125 C 286.875 212.984375 294.535156 223.296875 295.832031 235.800781 C 297.480469 251.644531 288.101562 267.898438 273.523438 274.445312 Z M 273.523438 274.445312 " style=" stroke:none;fill-rule:nonzero;fill:rgb(92.941176%,42.745098%,40%);fill-opacity:1;" />
<path d="M 140.664062 207.371094 L 191.457031 157.089844 C 199.320312 149.300781 207.375 141.230469 214.304688 134.28125 C 219.605469 128.984375 225.035156 123.554688 230.460938 118.144531 L 235.546875 113.082031 L 228.371094 113.019531 C 207.082031 112.839844 186.0625 112.726562 166.359375 112.628906 L 163.304688 112.613281 C 141.867188 112.5 119.699219 112.378906 97.007812 112.179688 C 96.171875 112.171875 95.320312 112.164062 94.460938 112.164062 C 89.121094 112.164062 83.511719 112.464844 78.65625 114.652344 C 71.5625 117.839844 66.765625 124.503906 62.078125 131.628906 C 47.257812 154.148438 33.152344 177.570312 20.15625 201.246094 C 18.421875 204.398438 17.003906 207.699219 18.335938 210.46875 C 19.996094 213.957031 24.992188 214.359375 28.605469 214.359375 L 28.679688 214.359375 L 135.613281 214.148438 L 136.472656 212.632812 C 137.429688 210.949219 138.839844 209.179688 140.664062 207.371094 Z M 140.664062 207.371094 " style=" stroke:none;fill-rule:nonzero;fill:rgb(92.941176%,42.745098%,40%);fill-opacity:1;" />
<path d="M 159.121094 444.820312 C 174.503906 444.640625 190.167969 444.539062 205.679688 444.519531 L 208.660156 444.515625 L 209.054688 370.273438 C 209.074219 365.742188 209.101562 358.902344 213.0625 354.46875 C 217.09375 349.960938 223.558594 349.351562 229.351562 349.351562 C 230.121094 349.351562 230.878906 349.363281 231.628906 349.378906 L 286.453125 350.578125 C 292.59375 350.710938 298.902344 351.21875 302.667969 355.765625 C 306.03125 359.824219 305.859375 365.640625 305.738281 369.894531 L 303.570312 445.378906 L 306.597656 445.441406 C 317.8125 445.660156 326.949219 445.871094 335.347656 446.097656 C 338.175781 446.171875 341.015625 446.257812 343.851562 446.339844 L 351.042969 446.546875 L 354.207031 217.59375 L 352.894531 216.683594 C 350.222656 214.832031 348.089844 212.335938 346.203125 210.128906 L 276.613281 128.898438 C 272.21875 123.761719 265.53125 116.933594 258.230469 116.933594 C 257.242188 116.933594 256.261719 117.058594 255.328125 117.304688 C 251.558594 118.277344 248.695312 120.96875 245.34375 124.390625 L 156.40625 215.128906 L 157.097656 216.925781 C 157.132812 217.019531 157.136719 217.074219 157.136719 217.09375 L 156.074219 444.855469 Z M 213.070312 216.058594 C 217.460938 207.425781 224.816406 199.914062 233.777344 194.910156 C 241.800781 190.429688 249.644531 188.160156 257.09375 188.160156 C 263.972656 188.160156 270.695312 190.105469 277.078125 193.941406 C 295.75 205.167969 305.652344 218.554688 307.351562 234.859375 C 309.5 255.492188 297.285156 276.660156 278.300781 285.195312 C 272.277344 287.90625 265.414062 289.339844 258.453125 289.339844 C 244.339844 289.339844 230.429688 283.507812 221.25 273.742188 C 207.132812 258.742188 203.695312 234.480469 213.070312 216.058594 Z M 213.070312 216.058594 " style=" stroke:none;fill-rule:nonzero;fill:rgb(97.647059%,84.705882%,53.72549%);fill-opacity:1;" />
<path d="M 511.960938 459.648438 C 511.640625 456.148438 509.585938 453.121094 506.464844 451.546875 C 501.929688 449.257812 495.554688 449.34375 489.929688 449.421875 C 487.992188 449.449219 486.160156 449.472656 484.664062 449.390625 C 484.683594 449.246094 484.714844 449.101562 484.714844 448.949219 L 488.953125 217.917969 C 493.355469 217.488281 498.667969 216.113281 501.761719 211.609375 C 507.433594 203.359375 500.605469 192.769531 498.359375 189.289062 L 455.511719 122.832031 C 452.417969 118.03125 448.566406 112.058594 442.292969 109.003906 C 437.234375 106.539062 431.480469 106.480469 426.859375 106.433594 C 401.421875 106.183594 376.648438 106.203125 352.695312 106.222656 C 328.746094 106.242188 303.984375 106.257812 278.570312 106.007812 C 278.558594 106.007812 278.546875 106.007812 278.535156 106.007812 C 278.289062 106.007812 278.050781 106.035156 277.820312 106.082031 C 277.128906 105.421875 276.429688 104.761719 275.738281 104.101562 C 272.226562 100.75 267.484375 96.234375 261.339844 94.929688 L 261.082031 60.640625 C 267.753906 57.339844 276.113281 59.191406 282.027344 61.382812 C 284.8125 62.414062 287.628906 63.679688 290.355469 64.902344 C 295.292969 67.113281 300.394531 69.398438 305.914062 70.65625 C 309.617188 71.5 313.335938 71.851562 317.023438 71.851562 C 327 71.851562 336.804688 69.289062 345.742188 66.953125 C 347.007812 66.625 347.984375 65.621094 348.289062 64.347656 C 348.589844 63.078125 348.164062 61.742188 347.183594 60.878906 C 341.382812 55.78125 336.4375 49.828125 332.484375 43.195312 C 331.589844 41.699219 331.457031 41.09375 331.503906 40.851562 C 331.597656 40.371094 332.714844 39.394531 333.191406 38.972656 L 349.695312 24.5 C 350.949219 23.398438 351.261719 21.570312 350.445312 20.113281 C 349.628906 18.65625 347.902344 17.96875 346.308594 18.46875 C 336.183594 21.628906 324.070312 20.125 309.285156 13.867188 C 307.265625 13.015625 305.210938 12.089844 303.222656 11.191406 C 297.160156 8.460938 290.886719 5.632812 284.132812 4.117188 C 275.421875 2.164062 267.167969 2.945312 260.671875 6.203125 L 260.652344 3.511719 C 260.636719 1.566406 259.058594 0.00390625 257.117188 0.00390625 C 257.109375 0.00390625 257.097656 0.00390625 257.089844 0.00390625 C 255.136719 0.015625 253.566406 1.613281 253.582031 3.5625 L 254.269531 94.96875 C 247.402344 96.488281 242.011719 102.101562 237.496094 106.828125 C 236.777344 107.582031 236.078125 108.304688 235.386719 109.003906 C 211.753906 108.796875 188.6875 108.675781 166.378906 108.558594 C 143.972656 108.445312 120.804688 108.324219 97.066406 108.113281 C 90.726562 108.054688 83.546875 107.992188 76.980469 110.941406 C 68.90625 114.566406 63.714844 121.734375 58.679688 129.390625 C 43.78125 152.019531 29.621094 175.535156 16.585938 199.289062 C 15.179688 201.851562 12.25 207.1875 14.660156 212.226562 C 17.542969 218.253906 25.152344 218.429688 28.382812 218.429688 C 28.488281 218.429688 28.589844 218.429688 28.6875 218.429688 L 32.996094 218.421875 L 34.488281 444.933594 C 31.378906 445.054688 28.253906 445.15625 25.148438 445.28125 C 19.75 445.5 12.351562 445.796875 6.613281 449.640625 C 2.964844 452.085938 0.449219 456.238281 0.0546875 460.472656 C -0.265625 463.898438 0.832031 467.03125 3.140625 469.296875 C 3.800781 469.941406 4.683594 470.304688 5.605469 470.308594 L 493.421875 472.214844 C 493.699219 472.214844 493.988281 472.214844 494.285156 472.214844 C 498.234375 472.214844 503.726562 472.015625 507.867188 468.875 C 510.761719 466.679688 512.289062 463.230469 511.960938 459.648438 Z M 255.378906 363.667969 L 255.386719 441.703125 C 244.382812 441.601562 233.375 441.546875 222.371094 441.523438 L 223.433594 370.871094 C 223.464844 368.558594 223.609375 366.207031 224.929688 365.015625 C 226.078125 363.980469 228.0625 363.882812 230.171875 363.867188 Z M 259.425781 441.734375 L 259.417969 363.636719 L 288.101562 363.414062 C 290.363281 363.40625 292.667969 363.488281 293.835938 364.753906 C 294.945312 365.960938 294.929688 368.15625 294.816406 370.304688 L 291.0625 442.15625 C 280.523438 441.984375 269.980469 441.835938 259.425781 441.734375 Z M 296.808594 362.019531 C 294.519531 359.535156 291.101562 359.359375 288.070312 359.375 L 257.464844 359.613281 C 257.441406 359.613281 257.421875 359.605469 257.394531 359.605469 C 257.367188 359.605469 257.34375 359.613281 257.3125 359.613281 L 230.140625 359.828125 C 227.9375 359.84375 224.605469 359.871094 222.222656 362.015625 C 219.699219 364.296875 219.4375 367.75 219.394531 370.808594 L 218.328125 441.515625 C 216.46875 441.511719 214.609375 441.5 212.75 441.5 L 213.125 370.292969 C 213.148438 365.105469 213.398438 360.199219 216.09375 357.179688 C 219.386719 353.496094 225.796875 353.320312 231.546875 353.445312 L 286.359375 354.640625 C 291.335938 354.75 296.867188 355.136719 299.535156 358.359375 C 301.730469 361.007812 301.796875 365.269531 301.667969 369.777344 L 299.585938 442.3125 C 298.09375 442.285156 296.597656 442.257812 295.101562 442.230469 L 298.851562 370.515625 C 298.96875 368.292969 299.160156 364.574219 296.808594 362.019531 Z M 304.976562 353.847656 C 300.410156 348.332031 293.050781 347.71875 286.511719 347.578125 L 231.699219 346.378906 C 224.375 346.214844 216.117188 346.546875 210.820312 352.472656 C 206.121094 357.738281 206.082031 365.273438 206.054688 370.257812 L 205.679688 441.515625 C 190.125 441.539062 174.585938 441.636719 159.085938 441.816406 L 160.132812 217.105469 C 160.136719 216.664062 160.046875 216.242188 159.898438 215.847656 L 247.484375 126.488281 C 250.503906 123.410156 253.050781 120.992188 256.074219 120.203125 C 262.777344 118.460938 269.707031 125.441406 274.335938 130.84375 L 343.921875 212.082031 C 345.972656 214.476562 348.257812 217.121094 351.1875 219.144531 L 348.085938 443.460938 C 343.863281 443.335938 339.636719 443.203125 335.429688 443.09375 C 325.855469 442.84375 316.261719 442.632812 306.65625 442.441406 L 308.734375 369.980469 C 308.859375 365.515625 309.054688 358.765625 304.976562 353.847656 Z M 358.214844 222.046875 C 361.75 222.574219 365.21875 221.785156 367.808594 219.714844 C 368.253906 219.359375 368.644531 218.972656 369.015625 218.574219 L 481.878906 218.128906 L 477.648438 448.820312 C 477.648438 448.878906 477.664062 448.933594 477.664062 448.996094 C 463.324219 448.179688 448.855469 447.421875 434.53125 446.742188 C 408.214844 445.496094 381.601562 444.46875 355.148438 443.664062 Z M 352.703125 113.292969 C 376.640625 113.273438 401.390625 113.253906 426.792969 113.503906 C 430.90625 113.546875 435.570312 113.59375 439.195312 115.359375 C 443.695312 117.550781 446.816406 122.390625 449.570312 126.664062 L 492.421875 193.121094 C 496.808594 199.925781 497.960938 204.664062 495.9375 207.605469 C 494.125 210.242188 490.101562 210.890625 485.75 211.023438 C 485.679688 211.015625 485.613281 211 485.546875 211 C 485.523438 210.996094 485.5 210.996094 485.480469 210.996094 C 485.339844 210.996094 485.207031 211.023438 485.070312 211.039062 C 484.703125 211.046875 484.332031 211.050781 483.960938 211.050781 L 372.085938 211.492188 C 372.320312 209.371094 372.105469 207.234375 371.550781 205.367188 C 370.304688 201.160156 367.757812 197.898438 364.800781 194.371094 C 341.292969 166.300781 314.351562 140.746094 288.296875 116.035156 C 287.277344 115.066406 286.261719 114.101562 285.246094 113.132812 C 308.332031 113.324219 330.859375 113.308594 352.703125 113.292969 Z M 261.027344 53.046875 L 261.019531 51.679688 L 306.453125 20.34375 C 306.480469 20.355469 306.507812 20.367188 306.535156 20.378906 C 310.753906 22.164062 314.785156 23.585938 318.65625 24.664062 L 279.023438 53.054688 C 272.320312 51.355469 266.226562 51.355469 261.027344 53.046875 Z M 337.800781 61.691406 C 327.972656 64.109375 317.402344 66.023438 307.488281 63.765625 C 306.867188 63.621094 306.25 63.464844 305.632812 63.292969 L 327.074219 47.855469 C 330.152344 52.847656 333.730469 57.488281 337.800781 61.691406 Z M 328.535156 33.660156 C 327.257812 34.777344 325.121094 36.652344 324.570312 39.507812 C 324.226562 41.285156 324.597656 42.929688 325.128906 44.277344 L 300.914062 61.710938 C 298.382812 60.742188 295.855469 59.617188 293.25 58.449219 C 290.417969 57.179688 287.492188 55.871094 284.488281 54.753906 C 284.28125 54.679688 284.082031 54.617188 283.878906 54.542969 L 323.863281 25.902344 C 328.089844 26.757812 332.125 27.1875 335.96875 27.136719 Z M 302.101562 18.433594 L 260.980469 46.796875 L 260.871094 32.269531 C 260.886719 32.257812 260.90625 32.257812 260.921875 32.246094 L 290.539062 13.46875 C 293.777344 14.695312 297 16.140625 300.324219 17.636719 C 300.90625 17.902344 301.507812 18.167969 302.101562 18.433594 Z M 282.589844 11.015625 C 283.609375 11.246094 284.613281 11.515625 285.613281 11.808594 L 260.835938 27.515625 L 260.738281 14.492188 C 265.960938 10.339844 273.898438 9.066406 282.589844 11.015625 Z M 242.609375 111.710938 C 247.71875 106.363281 253.007812 100.839844 259.234375 101.730469 C 263.347656 102.320312 266.933594 105.46875 270.863281 109.21875 C 275.042969 113.207031 279.234375 117.183594 283.429688 121.164062 C 309.34375 145.738281 336.132812 171.152344 359.382812 198.910156 C 361.820312 201.824219 363.910156 204.472656 364.773438 207.378906 C 365.457031 209.671875 365.199219 212.75 363.394531 214.195312 C 361.863281 215.417969 359.53125 215.296875 357.628906 214.621094 C 357.023438 213.765625 356.046875 213.195312 354.929688 213.140625 C 352.859375 211.636719 351.046875 209.539062 349.289062 207.484375 L 279.703125 126.25 C 273.835938 119.402344 264.820312 110.621094 254.289062 113.367188 C 249.132812 114.710938 245.417969 118.5 242.433594 121.542969 L 151.710938 214.101562 C 149.589844 216.265625 147.183594 218.71875 144.488281 219.59375 C 142.644531 220.195312 140.058594 219.761719 139.355469 218.28125 C 138.269531 215.976562 141.503906 212.269531 143.527344 210.261719 L 194.3125 159.984375 C 201.964844 152.40625 209.707031 144.65625 217.191406 137.160156 C 224.585938 129.753906 232.230469 122.097656 239.785156 114.617188 C 240.707031 113.703125 241.644531 112.71875 242.609375 111.710938 Z M 28.679688 211.359375 C 28.652344 211.359375 28.628906 211.359375 28.605469 211.359375 C 24.28125 211.359375 21.738281 210.625 21.042969 209.175781 C 20.296875 207.617188 21.507812 205.023438 22.789062 202.6875 C 35.730469 179.101562 49.792969 155.746094 64.585938 133.273438 C 69.027344 126.527344 73.542969 120.234375 79.882812 117.386719 C 85.039062 115.074219 91.398438 115.128906 97.007812 115.179688 C 120.757812 115.390625 143.933594 115.511719 166.347656 115.628906 C 186.445312 115.730469 207.160156 115.839844 228.347656 116.011719 C 222.914062 121.421875 217.488281 126.855469 212.191406 132.160156 C 204.710938 139.648438 196.980469 147.394531 189.34375 154.957031 L 138.558594 205.238281 C 136.503906 207.269531 134.945312 209.242188 133.863281 211.152344 Z M 40.070312 218.40625 L 132.109375 218.226562 C 132.21875 219.277344 132.496094 220.304688 132.96875 221.296875 C 134.78125 225.136719 138.839844 226.917969 142.789062 226.917969 C 144.128906 226.917969 145.453125 226.714844 146.675781 226.316406 C 149.140625 225.515625 151.222656 224.117188 153.035156 222.585938 L 152.011719 441.910156 C 147.035156 441.976562 142.050781 442.03125 137.082031 442.113281 C 105.375 442.628906 73.332031 443.5 41.5625 444.667969 Z M 503.597656 463.246094 C 501.25 465.027344 497.460938 465.152344 493.453125 465.144531 L 7.394531 463.246094 C 7.125 462.640625 7.023438 461.933594 7.097656 461.132812 C 7.296875 459.023438 8.683594 456.765625 10.554688 455.515625 C 14.328125 452.988281 19.527344 452.585938 25.4375 452.34375 C 62.484375 450.851562 100.085938 449.789062 137.195312 449.183594 C 202.914062 448.113281 269.546875 448.441406 335.242188 450.160156 C 368.085938 451.023438 401.378906 452.246094 434.195312 453.804688 C 450.796875 454.59375 467.609375 455.480469 484.167969 456.445312 C 485.933594 456.546875 487.921875 456.523438 490.027344 456.492188 C 494.601562 456.429688 500.292969 456.351562 503.285156 457.859375 C 504.625 458.535156 504.875 459.785156 504.921875 460.292969 C 504.972656 460.839844 504.941406 462.222656 503.597656 463.246094 Z M 503.597656 463.246094 " style=" stroke:none;fill-rule:nonzero;fill:rgb(0%,0%,0%);fill-opacity:1;" />
<path d="M 310.339844 234.546875 C 308.539062 217.246094 298.167969 203.121094 278.628906 191.371094 C 264.359375 182.785156 248.777344 183.09375 232.3125 192.289062 C 222.84375 197.578125 215.058594 205.535156 210.398438 214.699219 C 200.46875 234.207031 204.113281 259.90625 219.0625 275.804688 C 229.132812 286.511719 243.835938 292.335938 258.453125 292.335938 C 265.691406 292.335938 272.914062 290.90625 279.535156 287.929688 C 299.660156 278.882812 312.617188 256.429688 310.339844 234.546875 Z M 276.636719 281.480469 C 259.316406 289.269531 237.269531 284.84375 224.214844 270.960938 C 211.238281 257.160156 208.078125 234.847656 216.699219 217.90625 C 220.730469 209.976562 227.5 203.074219 235.761719 198.460938 C 243.128906 194.347656 250.253906 192.289062 257.082031 192.289062 C 263.308594 192.289062 269.292969 194 274.988281 197.425781 C 292.734375 208.101562 301.734375 220.128906 303.308594 235.28125 C 305.277344 254.21875 294.0625 273.648438 276.636719 281.480469 Z M 276.636719 281.480469 " style=" stroke:none;fill-rule:nonzero;fill:rgb(0%,0%,0%);fill-opacity:1;" />
<path d="M 273.953125 201.714844 C 262.855469 195.035156 250.714844 195.289062 237.875 202.457031 C 230.472656 206.59375 224.390625 212.808594 220.75 219.964844 C 212.992188 235.207031 215.839844 255.289062 227.519531 267.710938 C 235.382812 276.074219 246.875 280.625 258.289062 280.625 C 263.945312 280.625 269.585938 279.507812 274.757812 277.183594 C 290.476562 270.117188 300.597656 252.582031 298.816406 235.492188 C 297.410156 221.980469 289.277344 210.933594 273.953125 201.714844 Z M 273.101562 273.496094 C 259.011719 279.832031 241.078125 276.234375 230.460938 264.941406 C 219.910156 253.71875 217.339844 235.574219 224.347656 221.796875 C 227.628906 215.347656 233.132812 209.734375 239.84375 205.984375 C 245.839844 202.636719 251.640625 200.960938 257.207031 200.960938 C 262.304688 200.960938 267.203125 202.367188 271.871094 205.175781 C 286.230469 213.8125 293.515625 223.578125 294.800781 235.90625 C 296.402344 251.316406 287.277344 267.125 273.101562 273.496094 Z M 273.101562 273.496094 " style=" stroke:none;fill-rule:nonzero;fill:rgb(0%,0%,0%);fill-opacity:1;" />
<path d="M 257.195312 210.960938 C 256.082031 211 255.207031 211.929688 255.242188 213.046875 L 256.179688 241.910156 L 236.152344 243.371094 C 235.042969 243.453125 234.203125 244.417969 234.285156 245.53125 C 234.363281 246.59375 235.25 247.40625 236.296875 247.40625 C 236.347656 247.40625 236.398438 247.402344 236.445312 247.398438 L 258.410156 245.796875 C 259.492188 245.71875 260.316406 244.800781 260.28125 243.71875 L 259.277344 212.914062 C 259.242188 211.800781 258.304688 210.941406 257.195312 210.960938 Z M 257.195312 210.960938 " style=" stroke:none;fill-rule:nonzero;fill:rgb(0%,0%,0%);fill-opacity:1;" />
<path d="M 50.03125 309.878906 C 51.394531 311.398438 53.378906 311.558594 54.714844 311.558594 C 54.910156 311.558594 55.09375 311.554688 55.257812 311.550781 L 86.542969 310.953125 C 87.488281 310.9375 89.070312 310.90625 90.335938 309.890625 C 91.921875 308.621094 92.105469 306.589844 92.207031 305.496094 C 92.300781 304.46875 92.476562 302.558594 91.289062 301.070312 C 90.839844 300.507812 90.296875 300.136719 89.730469 299.875 C 90.707031 285.441406 91.644531 270.542969 88.046875 256.074219 C 87.066406 252.121094 85.441406 247.167969 81.554688 243.957031 C 76.585938 239.847656 68.636719 239.695312 62.644531 243.59375 C 57.722656 246.792969 54.105469 252.382812 52.453125 259.339844 C 51.019531 265.359375 51.144531 271.503906 51.265625 277.445312 L 51.714844 299.761719 C 51.074219 300.015625 50.449219 300.402344 49.925781 301.003906 C 48.683594 302.445312 48.703125 304.3125 48.714844 305.425781 C 48.730469 306.558594 48.753906 308.449219 50.03125 309.878906 Z M 85.722656 299.273438 C 81.5625 299.253906 77.40625 299.257812 73.25 299.269531 L 73.074219 272.292969 L 86.339844 272.105469 C 86.898438 281.140625 86.332031 290.296875 85.722656 299.273438 Z M 69.210938 299.277344 C 66.90625 299.28125 64.597656 299.285156 62.296875 299.285156 L 55.746094 299.273438 L 55.304688 277.363281 C 55.273438 275.769531 55.246094 274.160156 55.242188 272.550781 L 69.035156 272.351562 Z M 88.1875 305.125 C 88.101562 306.066406 87.972656 306.609375 87.8125 306.738281 C 87.617188 306.894531 86.8125 306.910156 86.46875 306.917969 L 55.179688 307.511719 C 54.683594 307.519531 53.367188 307.546875 53.042969 307.183594 C 52.777344 306.886719 52.765625 305.871094 52.757812 305.382812 C 52.753906 304.910156 52.742188 303.929688 52.984375 303.652344 C 53.265625 303.324219 54.480469 303.3125 54.957031 303.3125 C 54.976562 303.3125 54.996094 303.3125 55.015625 303.3125 L 62.292969 303.324219 C 65.554688 303.328125 68.820312 303.320312 72.085938 303.3125 C 76.84375 303.300781 81.605469 303.289062 86.367188 303.316406 C 87.769531 303.324219 88.066406 303.511719 88.132812 303.589844 C 88.25 303.734375 88.265625 304.253906 88.1875 305.125 Z M 84.128906 257.046875 C 85.03125 260.679688 85.632812 264.359375 86.011719 268.070312 L 73.050781 268.253906 L 72.898438 244.851562 C 75.1875 244.980469 77.34375 245.714844 78.980469 247.070312 C 81.960938 249.53125 83.296875 253.695312 84.128906 257.046875 Z M 64.851562 246.976562 C 66.09375 246.171875 67.460938 245.597656 68.859375 245.246094 L 69.011719 268.3125 L 55.324219 268.507812 C 55.453125 265.71875 55.75 262.953125 56.386719 260.273438 C 57.796875 254.332031 60.804688 249.613281 64.851562 246.976562 Z M 64.851562 246.976562 " style=" stroke:none;fill-rule:nonzero;fill:rgb(0%,0%,0%);fill-opacity:1;" />
<path d="M 102.195312 309.878906 C 103.554688 311.398438 105.542969 311.558594 106.875 311.558594 C 107.074219 311.558594 107.257812 311.554688 107.421875 311.550781 L 138.707031 310.953125 C 139.652344 310.9375 141.230469 310.90625 142.5 309.890625 C 144.085938 308.621094 144.273438 306.585938 144.371094 305.496094 C 144.464844 304.46875 144.640625 302.558594 143.453125 301.070312 C 143.003906 300.507812 142.460938 300.136719 141.894531 299.875 C 142.871094 285.441406 143.808594 270.542969 140.214844 256.070312 C 139.230469 252.117188 137.605469 247.167969 133.71875 243.953125 C 128.753906 239.847656 120.800781 239.695312 114.808594 243.589844 C 109.890625 246.792969 106.269531 252.382812 104.617188 259.335938 C 103.1875 265.359375 103.308594 271.503906 103.429688 277.445312 L 103.878906 299.761719 C 103.238281 300.015625 102.613281 300.402344 102.09375 301.003906 C 100.847656 302.441406 100.871094 304.308594 100.882812 305.425781 C 100.894531 306.558594 100.917969 308.449219 102.195312 309.878906 Z M 137.886719 299.273438 C 133.726562 299.253906 129.570312 299.257812 125.414062 299.269531 L 125.238281 272.292969 L 138.503906 272.105469 C 139.0625 281.140625 138.496094 290.296875 137.886719 299.273438 Z M 121.375 299.277344 C 119.070312 299.28125 116.761719 299.285156 114.460938 299.285156 L 107.910156 299.273438 L 107.46875 277.363281 C 107.4375 275.769531 107.40625 274.160156 107.40625 272.550781 L 121.199219 272.351562 Z M 140.347656 305.128906 C 140.261719 306.066406 140.136719 306.609375 139.972656 306.738281 C 139.78125 306.894531 138.972656 306.910156 138.628906 306.917969 L 107.34375 307.511719 C 106.84375 307.523438 105.53125 307.546875 105.203125 307.183594 C 104.9375 306.886719 104.925781 305.871094 104.921875 305.382812 C 104.914062 304.910156 104.90625 303.929688 105.148438 303.648438 C 105.429688 303.324219 106.640625 303.3125 107.121094 303.3125 C 107.140625 303.3125 107.160156 303.3125 107.175781 303.3125 L 114.453125 303.324219 C 117.71875 303.328125 120.984375 303.320312 124.246094 303.3125 C 129.007812 303.300781 133.765625 303.289062 138.53125 303.316406 C 139.929688 303.324219 140.230469 303.511719 140.296875 303.589844 C 140.410156 303.738281 140.429688 304.253906 140.347656 305.128906 Z M 136.292969 257.046875 C 137.195312 260.679688 137.792969 264.359375 138.175781 268.070312 L 125.214844 268.253906 L 125.0625 244.851562 C 127.347656 244.980469 129.507812 245.714844 131.144531 247.070312 C 134.121094 249.53125 135.460938 253.695312 136.292969 257.046875 Z M 117.011719 246.980469 C 118.253906 246.171875 119.621094 245.597656 121.023438 245.246094 L 121.171875 268.3125 L 107.488281 268.507812 C 107.613281 265.722656 107.910156 262.953125 108.546875 260.273438 C 109.960938 254.332031 112.964844 249.613281 117.011719 246.980469 Z M 117.011719 246.980469 " style=" stroke:none;fill-rule:nonzero;fill:rgb(0%,0%,0%);fill-opacity:1;" />
<path d="M 89.730469 387.488281 C 90.710938 373.054688 91.644531 358.15625 88.050781 343.683594 C 87.066406 339.734375 85.441406 334.78125 81.554688 331.570312 C 76.589844 327.460938 68.636719 327.308594 62.648438 331.207031 C 57.726562 334.40625 54.105469 339.996094 52.453125 346.953125 C 51.023438 352.972656 51.148438 359.117188 51.265625 365.058594 L 51.71875 387.375 C 51.078125 387.628906 50.453125 388.015625 49.929688 388.617188 C 48.683594 390.054688 48.707031 391.921875 48.71875 393.039062 C 48.730469 394.171875 48.753906 396.0625 50.03125 397.492188 C 51.394531 399.011719 53.382812 399.171875 54.71875 399.171875 C 54.914062 399.171875 55.09375 399.167969 55.257812 399.164062 L 86.542969 398.570312 C 87.488281 398.550781 89.070312 398.519531 90.335938 397.503906 C 91.921875 396.238281 92.109375 394.203125 92.210938 393.109375 C 92.304688 392.082031 92.476562 390.175781 91.289062 388.683594 C 90.84375 388.121094 90.296875 387.75 89.730469 387.488281 Z M 55.746094 386.886719 L 55.304688 364.976562 C 55.273438 363.382812 55.246094 361.773438 55.242188 360.164062 L 69.035156 359.964844 L 69.210938 386.886719 C 66.90625 386.894531 64.601562 386.898438 62.296875 386.898438 Z M 73.25 386.882812 L 73.078125 359.90625 L 86.339844 359.71875 C 86.902344 368.753906 86.332031 377.910156 85.722656 386.886719 C 81.566406 386.867188 77.40625 386.875 73.25 386.882812 Z M 84.128906 344.660156 C 85.03125 348.292969 85.632812 351.972656 86.011719 355.679688 L 73.050781 355.867188 L 72.898438 332.460938 C 75.183594 332.589844 77.34375 333.328125 78.980469 334.679688 C 81.960938 337.144531 83.296875 341.308594 84.128906 344.660156 Z M 64.851562 334.589844 C 66.09375 333.785156 67.460938 333.210938 68.859375 332.855469 L 69.011719 355.925781 L 55.324219 356.121094 C 55.453125 353.332031 55.75 350.566406 56.386719 347.886719 C 57.796875 341.945312 60.804688 337.222656 64.851562 334.589844 Z M 88.1875 392.738281 C 88.101562 393.679688 87.972656 394.21875 87.8125 394.351562 C 87.617188 394.507812 86.8125 394.523438 86.46875 394.527344 L 55.183594 395.125 C 54.6875 395.132812 53.367188 395.160156 53.042969 394.792969 C 52.777344 394.5 52.765625 393.484375 52.757812 392.992188 C 52.753906 392.523438 52.742188 391.542969 52.984375 391.261719 C 53.265625 390.9375 54.480469 390.925781 54.957031 390.925781 C 54.980469 390.925781 55 390.925781 55.015625 390.925781 L 62.292969 390.933594 C 65.570312 390.941406 68.851562 390.933594 72.132812 390.925781 C 76.878906 390.914062 81.621094 390.902344 86.367188 390.929688 C 87.769531 390.9375 88.070312 391.121094 88.132812 391.203125 C 88.25 391.347656 88.265625 391.867188 88.1875 392.738281 Z M 88.1875 392.738281 " style=" stroke:none;fill-rule:nonzero;fill:rgb(0%,0%,0%);fill-opacity:1;" />
<path d="M 142.5 397.503906 C 144.085938 396.234375 144.273438 394.203125 144.371094 393.109375 C 144.464844 392.082031 144.640625 390.175781 143.453125 388.683594 C 143.003906 388.121094 142.460938 387.753906 141.894531 387.488281 C 142.871094 373.054688 143.808594 358.15625 140.214844 343.683594 C 139.230469 339.730469 137.605469 334.78125 133.71875 331.570312 C 128.753906 327.460938 120.800781 327.308594 114.808594 331.207031 C 109.890625 334.40625 106.269531 340 104.617188 346.953125 C 103.1875 352.976562 103.308594 359.117188 103.429688 365.058594 L 103.878906 387.375 C 103.238281 387.632812 102.613281 388.015625 102.09375 388.621094 C 100.847656 390.054688 100.871094 391.921875 100.882812 393.039062 C 100.894531 394.171875 100.914062 396.0625 102.195312 397.492188 C 103.558594 399.011719 105.546875 399.171875 106.878906 399.171875 C 107.074219 399.171875 107.257812 399.167969 107.417969 399.164062 L 138.707031 398.570312 C 139.652344 398.546875 141.230469 398.519531 142.5 397.503906 Z M 107.910156 386.886719 L 107.46875 364.976562 C 107.4375 363.382812 107.40625 361.773438 107.40625 360.164062 L 121.199219 359.964844 L 121.375 386.886719 C 119.066406 386.894531 116.765625 386.898438 114.457031 386.898438 Z M 125.414062 386.882812 L 125.238281 359.90625 L 138.503906 359.71875 C 139.0625 368.753906 138.492188 377.910156 137.886719 386.886719 C 133.726562 386.867188 129.570312 386.875 125.414062 386.882812 Z M 136.292969 344.660156 C 137.195312 348.292969 137.792969 351.972656 138.175781 355.679688 L 125.214844 355.867188 L 125.0625 332.460938 C 127.347656 332.59375 129.507812 333.328125 131.144531 334.679688 C 134.121094 337.144531 135.460938 341.304688 136.292969 344.660156 Z M 117.011719 334.589844 C 118.253906 333.785156 119.621094 333.210938 121.023438 332.855469 L 121.171875 355.925781 L 107.488281 356.121094 C 107.613281 353.332031 107.910156 350.566406 108.546875 347.886719 C 109.960938 341.945312 112.964844 337.222656 117.011719 334.589844 Z M 107.34375 395.125 C 106.847656 395.132812 105.527344 395.160156 105.203125 394.792969 C 104.9375 394.496094 104.925781 393.480469 104.921875 392.996094 C 104.914062 392.523438 104.90625 391.542969 105.148438 391.261719 C 105.429688 390.9375 106.640625 390.925781 107.121094 390.925781 C 107.140625 390.925781 107.160156 390.925781 107.179688 390.925781 L 114.453125 390.933594 C 117.734375 390.941406 121.015625 390.933594 124.296875 390.925781 C 129.039062 390.914062 133.785156 390.902344 138.53125 390.929688 C 139.929688 390.9375 140.230469 391.121094 140.296875 391.203125 C 140.414062 391.347656 140.429688 391.867188 140.351562 392.742188 C 140.265625 393.679688 140.136719 394.222656 139.976562 394.351562 C 139.78125 394.507812 138.972656 394.523438 138.628906 394.53125 Z M 107.34375 395.125 " style=" stroke:none;fill-rule:nonzero;fill:rgb(0%,0%,0%);fill-opacity:1;" />
<path d="M 410.683594 299.875 C 411.664062 285.441406 412.597656 270.542969 409.003906 256.074219 C 408.019531 252.121094 406.394531 247.171875 402.507812 243.957031 C 397.542969 239.847656 389.589844 239.699219 383.597656 243.59375 C 378.679688 246.792969 375.058594 252.386719 373.40625 259.339844 C 371.976562 265.359375 372.101562 271.503906 372.21875 277.445312 L 372.671875 299.761719 C 372.027344 300.015625 371.40625 300.402344 370.882812 301.007812 C 369.640625 302.441406 369.660156 304.308594 369.671875 305.425781 C 369.683594 306.558594 369.707031 308.449219 370.984375 309.878906 C 372.347656 311.398438 374.332031 311.558594 375.667969 311.558594 C 375.863281 311.558594 376.046875 311.554688 376.210938 311.550781 L 407.496094 310.957031 C 408.441406 310.9375 410.023438 310.90625 411.289062 309.890625 C 412.875 308.621094 413.0625 306.589844 413.164062 305.5 C 413.257812 304.472656 413.433594 302.566406 412.242188 301.070312 C 411.796875 300.511719 411.25 300.140625 410.683594 299.875 Z M 376.699219 299.273438 L 376.257812 277.363281 C 376.226562 275.769531 376.195312 274.160156 376.195312 272.550781 L 389.988281 272.351562 L 390.164062 299.277344 C 387.859375 299.28125 385.550781 299.285156 383.25 299.285156 Z M 394.203125 299.269531 L 394.027344 272.292969 L 407.292969 272.105469 C 407.851562 281.140625 407.28125 290.296875 406.675781 299.273438 C 402.515625 299.253906 398.359375 299.257812 394.203125 299.269531 Z M 405.082031 257.046875 C 405.984375 260.679688 406.582031 264.359375 406.964844 268.070312 L 394.003906 268.253906 L 393.851562 244.851562 C 396.136719 244.980469 398.296875 245.714844 399.933594 247.070312 C 402.914062 249.53125 404.25 253.695312 405.082031 257.046875 Z M 385.800781 246.976562 C 387.042969 246.171875 388.414062 245.597656 389.8125 245.246094 L 389.964844 268.3125 L 376.277344 268.507812 C 376.402344 265.71875 376.699219 262.953125 377.335938 260.273438 C 378.75 254.332031 381.757812 249.613281 385.800781 246.976562 Z M 409.140625 305.128906 C 409.054688 306.066406 408.925781 306.609375 408.765625 306.738281 C 408.570312 306.894531 407.761719 306.910156 407.417969 306.917969 L 376.132812 307.511719 C 375.636719 307.519531 374.320312 307.546875 373.996094 307.183594 C 373.726562 306.886719 373.71875 305.871094 373.710938 305.382812 C 373.707031 304.910156 373.695312 303.929688 373.9375 303.652344 C 374.21875 303.324219 375.429688 303.3125 375.910156 303.3125 C 375.929688 303.3125 375.949219 303.3125 375.96875 303.3125 L 383.242188 303.324219 C 386.507812 303.328125 389.773438 303.320312 393.035156 303.3125 C 397.796875 303.300781 402.554688 303.289062 407.320312 303.316406 C 408.722656 303.324219 409.019531 303.511719 409.085938 303.589844 C 409.203125 303.738281 409.21875 304.253906 409.140625 305.128906 Z M 409.140625 305.128906 " style=" stroke:none;fill-rule:nonzero;fill:rgb(0%,0%,0%);fill-opacity:1;" />
<path d="M 423.148438 309.878906 C 424.507812 311.398438 426.492188 311.558594 427.828125 311.558594 C 428.023438 311.558594 428.207031 311.554688 428.371094 311.550781 L 459.660156 310.953125 C 460.605469 310.9375 462.183594 310.90625 463.453125 309.890625 C 465.039062 308.621094 465.222656 306.589844 465.324219 305.496094 C 465.417969 304.46875 465.59375 302.5625 464.402344 301.070312 C 463.957031 300.507812 463.414062 300.136719 462.847656 299.875 C 463.824219 285.441406 464.761719 270.542969 461.164062 256.074219 C 460.183594 252.121094 458.558594 247.167969 454.671875 243.957031 C 449.703125 239.847656 441.753906 239.695312 435.761719 243.59375 C 430.84375 246.792969 427.222656 252.386719 425.570312 259.339844 C 424.136719 265.359375 424.261719 271.503906 424.382812 277.445312 L 424.832031 299.761719 C 424.1875 300.019531 423.566406 300.402344 423.042969 301.003906 C 421.800781 302.441406 421.820312 304.308594 421.832031 305.425781 C 421.847656 306.558594 421.867188 308.449219 423.148438 309.878906 Z M 458.839844 299.273438 C 454.679688 299.253906 450.523438 299.257812 446.367188 299.269531 L 446.191406 272.292969 L 459.457031 272.105469 C 460.015625 281.140625 459.445312 290.296875 458.839844 299.273438 Z M 442.328125 299.277344 C 440.019531 299.28125 437.714844 299.285156 435.414062 299.285156 L 428.863281 299.273438 L 428.421875 277.363281 C 428.390625 275.769531 428.359375 274.160156 428.359375 272.550781 L 442.152344 272.351562 Z M 461.300781 305.128906 C 461.214844 306.066406 461.089844 306.609375 460.925781 306.738281 C 460.730469 306.894531 459.925781 306.910156 459.582031 306.914062 L 428.296875 307.511719 C 427.800781 307.523438 426.480469 307.546875 426.15625 307.179688 C 425.890625 306.882812 425.878906 305.867188 425.875 305.382812 C 425.867188 304.910156 425.855469 303.929688 426.097656 303.648438 C 426.378906 303.324219 427.59375 303.3125 428.070312 303.3125 C 428.09375 303.3125 428.109375 303.3125 428.128906 303.3125 L 435.40625 303.324219 C 438.671875 303.328125 441.933594 303.320312 445.199219 303.3125 C 449.957031 303.296875 454.71875 303.285156 459.480469 303.316406 C 460.882812 303.324219 461.183594 303.507812 461.246094 303.589844 C 461.363281 303.738281 461.382812 304.253906 461.300781 305.128906 Z M 457.246094 257.046875 C 458.148438 260.679688 458.746094 264.359375 459.128906 268.070312 L 446.164062 268.253906 L 446.011719 244.847656 C 448.300781 244.980469 450.460938 245.714844 452.097656 247.070312 C 455.074219 249.53125 456.414062 253.695312 457.246094 257.046875 Z M 437.964844 246.980469 C 439.207031 246.171875 440.574219 245.597656 441.976562 245.246094 L 442.125 268.3125 L 428.441406 268.507812 C 428.566406 265.722656 428.863281 262.953125 429.5 260.273438 C 430.914062 254.332031 433.917969 249.613281 437.964844 246.980469 Z M 437.964844 246.980469 " style=" stroke:none;fill-rule:nonzero;fill:rgb(0%,0%,0%);fill-opacity:1;" />
<path d="M 410.683594 387.488281 C 411.664062 373.054688 412.597656 358.15625 409.003906 343.683594 C 408.019531 339.734375 406.394531 334.78125 402.507812 331.570312 C 397.542969 327.460938 389.589844 327.308594 383.601562 331.207031 C 378.679688 334.40625 375.058594 339.996094 373.40625 346.953125 C 371.976562 352.972656 372.101562 359.117188 372.21875 365.058594 L 372.671875 387.375 C 372.027344 387.628906 371.40625 388.015625 370.882812 388.617188 C 369.640625 390.054688 369.660156 391.921875 369.671875 393.039062 C 369.683594 394.167969 369.707031 396.0625 370.984375 397.492188 C 372.347656 399.011719 374.335938 399.171875 375.671875 399.171875 C 375.867188 399.171875 376.046875 399.167969 376.210938 399.164062 L 407.496094 398.570312 C 408.441406 398.550781 410.023438 398.519531 411.289062 397.503906 C 412.878906 396.234375 413.0625 394.203125 413.164062 393.109375 C 413.257812 392.085938 413.433594 390.175781 412.242188 388.683594 C 411.796875 388.121094 411.25 387.75 410.683594 387.488281 Z M 376.699219 386.886719 L 376.257812 364.976562 C 376.226562 363.382812 376.195312 361.773438 376.195312 360.164062 L 389.988281 359.964844 L 390.164062 386.886719 C 387.859375 386.894531 385.554688 386.898438 383.25 386.898438 Z M 394.203125 386.882812 L 394.027344 359.90625 L 407.292969 359.71875 C 407.851562 368.753906 407.28125 377.910156 406.675781 386.886719 C 402.519531 386.867188 398.359375 386.875 394.203125 386.882812 Z M 405.082031 344.660156 C 405.984375 348.292969 406.582031 351.972656 406.964844 355.679688 L 394.003906 355.867188 L 393.851562 332.460938 C 396.136719 332.589844 398.296875 333.328125 399.933594 334.679688 C 402.914062 337.144531 404.25 341.308594 405.082031 344.660156 Z M 385.800781 334.589844 C 387.042969 333.785156 388.414062 333.210938 389.8125 332.855469 L 389.964844 355.925781 L 376.277344 356.121094 C 376.402344 353.332031 376.699219 350.566406 377.335938 347.886719 C 378.75 341.945312 381.757812 337.222656 385.800781 334.589844 Z M 409.140625 392.742188 C 409.054688 393.679688 408.929688 394.21875 408.765625 394.351562 C 408.570312 394.507812 407.761719 394.523438 407.417969 394.527344 L 376.132812 395.125 C 375.636719 395.132812 374.320312 395.160156 373.992188 394.792969 C 373.726562 394.496094 373.714844 393.480469 373.710938 392.992188 C 373.707031 392.523438 373.695312 391.539062 373.933594 391.261719 C 374.21875 390.933594 375.429688 390.921875 375.910156 390.921875 C 375.929688 390.921875 375.949219 390.921875 375.96875 390.921875 L 383.242188 390.933594 C 386.523438 390.9375 389.804688 390.929688 393.085938 390.921875 C 397.832031 390.910156 402.570312 390.902344 407.320312 390.925781 C 408.722656 390.933594 409.019531 391.121094 409.085938 391.203125 C 409.203125 391.347656 409.21875 391.867188 409.140625 392.742188 Z M 409.140625 392.742188 " style=" stroke:none;fill-rule:nonzero;fill:rgb(0%,0%,0%);fill-opacity:1;" />
<path d="M 463.453125 397.503906 C 465.039062 396.234375 465.222656 394.199219 465.324219 393.109375 C 465.417969 392.082031 465.59375 390.171875 464.40625 388.683594 C 463.957031 388.121094 463.414062 387.75 462.847656 387.488281 C 463.824219 373.054688 464.761719 358.15625 461.167969 343.683594 C 460.183594 339.730469 458.558594 334.78125 454.671875 331.566406 C 449.707031 327.460938 441.753906 327.308594 435.761719 331.207031 C 430.84375 334.40625 427.222656 339.996094 425.570312 346.953125 C 424.140625 352.972656 424.261719 359.117188 424.382812 365.058594 L 424.832031 387.375 C 424.191406 387.632812 423.566406 388.015625 423.042969 388.621094 C 421.800781 390.054688 421.820312 391.921875 421.835938 393.039062 C 421.847656 394.171875 421.867188 396.0625 423.148438 397.492188 C 424.507812 399.011719 426.5 399.171875 427.832031 399.171875 C 428.027344 399.171875 428.210938 399.167969 428.371094 399.164062 L 459.660156 398.570312 C 460.605469 398.546875 462.1875 398.519531 463.453125 397.503906 Z M 428.863281 386.886719 L 428.421875 364.976562 C 428.390625 363.382812 428.359375 361.773438 428.359375 360.164062 L 442.152344 359.964844 L 442.328125 386.886719 C 440.023438 386.894531 437.71875 386.898438 435.414062 386.898438 Z M 446.367188 386.882812 L 446.191406 359.90625 L 459.457031 359.71875 C 460.015625 368.753906 459.445312 377.910156 458.839844 386.886719 C 454.679688 386.867188 450.523438 386.875 446.367188 386.882812 Z M 457.246094 344.660156 C 458.148438 348.292969 458.746094 351.972656 459.128906 355.679688 L 446.164062 355.867188 L 446.011719 332.460938 C 448.300781 332.59375 450.460938 333.328125 452.097656 334.679688 C 455.074219 337.144531 456.414062 341.308594 457.246094 344.660156 Z M 437.964844 334.589844 C 439.207031 333.785156 440.574219 333.210938 441.976562 332.855469 L 442.125 355.925781 L 428.441406 356.121094 C 428.566406 353.332031 428.863281 350.566406 429.5 347.886719 C 430.914062 341.945312 433.917969 337.222656 437.964844 334.589844 Z M 428.296875 395.125 C 427.800781 395.132812 426.480469 395.160156 426.15625 394.792969 C 425.890625 394.496094 425.878906 393.480469 425.875 392.996094 C 425.867188 392.523438 425.855469 391.542969 426.097656 391.261719 C 426.378906 390.9375 427.59375 390.925781 428.070312 390.925781 C 428.09375 390.925781 428.113281 390.925781 428.128906 390.925781 L 435.40625 390.933594 C 438.683594 390.941406 441.96875 390.933594 445.246094 390.925781 C 449.992188 390.914062 454.738281 390.902344 459.480469 390.929688 C 460.882812 390.9375 461.183594 391.121094 461.246094 391.203125 C 461.363281 391.347656 461.382812 391.867188 461.300781 392.742188 C 461.214844 393.679688 461.089844 394.222656 460.925781 394.351562 C 460.730469 394.507812 459.925781 394.523438 459.582031 394.527344 Z M 428.296875 395.125 " style=" stroke:none;fill-rule:nonzero;fill:rgb(0%,0%,0%);fill-opacity:1;" />
</g>
</svg>