<?xml version="1.0" encoding="iso-8859-1"?>
<!-- Generator: Adobe Illustrator 19.0.0, SVG Export Plug-In . SVG Version: 6.00 Build 0)  -->
<svg version="1.1" id="Capa_1" xmlns="http://www.w3.org/2000/svg" xmlns:xlink="http://www.w3.org/1999/xlink" x="0px" y="0px"
	 viewBox="0 0 512 512" style="enable-background:new 0 0 512 512;" xml:space="preserve">
<path style="fill:#FDA42D;" d="M510.398,228.612H320.766c0-44.464,36.174-80.638,80.638-80.638h28.357
	C474.224,147.974,510.398,184.148,510.398,228.612z"/>
<path style="fill:#35B25B;" d="M191.234,228.612H1.602c0-44.464,36.174-80.638,80.638-80.638h28.357
	C155.061,147.974,191.234,184.148,191.234,228.612z"/>
<path style="fill:#EA0016;" d="M350.766,228.612H161.134c0-44.464,36.174-80.638,80.638-80.638h28.357
	C314.592,147.974,350.766,184.148,350.766,228.612z"/>
<path style="fill:#FFDFCF;" d="M96.318,177.974c-31.78,0-57.635-25.854-57.635-57.635s25.855-57.635,57.635-57.635
	s57.635,25.854,57.635,57.635S128.098,177.974,96.318,177.974z"/>
<path style="fill:#EE7F2A;" d="M510.398,228.612H320.766c0-44.464,36.174-80.638,80.638-80.638h28.357
	C474.224,147.974,510.398,184.148,510.398,228.612z"/>
<path style="fill:#C30010;" d="M256.05,228.612h94.716c0-44.464-36.174-80.638-80.638-80.638H256.05V228.612z"/>
<path style="fill:#FFDFCF;" d="M255.85,177.974c-31.78,0-57.635-25.854-57.635-57.635s25.855-57.635,57.635-57.635
	s57.635,25.854,57.635,57.635S287.629,177.974,255.85,177.974z"/>
<path style="fill:#FFCEBF;" d="M256.05,62.71v115.259c31.687-0.109,57.434-25.917,57.434-57.63S287.738,62.819,256.05,62.71z"/>
<path style="fill:#FFDFCF;" d="M415.482,177.974c-31.78,0-57.635-25.854-57.635-57.635s25.855-57.635,57.635-57.635
	s57.635,25.854,57.635,57.635S447.262,177.974,415.482,177.974z"/>
<path style="fill:#FFCEBF;" d="M415.482,177.974c-31.78,0-57.635-25.854-57.635-57.635s25.855-57.635,57.635-57.635
	s57.635,25.854,57.635,57.635S447.262,177.974,415.482,177.974z"/>
<path style="fill:#265185;" d="M512,449.296H0V212.872h512V449.296z"/>
<rect x="256.05" y="212.87" style="fill:#183866;" width="255.95" height="236.42"/>
<g>
	<polygon style="fill:#D9EFFD;" points="66.296,306.481 90.182,306.481 90.182,384.714 120.182,384.714 120.182,306.481 
		144.068,306.481 144.068,276.481 66.296,276.481 	"/>
	<polygon style="fill:#D9EFFD;" points="229.451,306.481 229.523,276.481 166.135,276.329 166.135,384.664 229.496,384.664 
		229.496,354.664 196.135,354.664 196.135,343.843 218.82,343.843 218.82,313.843 196.135,313.843 196.135,306.401 	"/>
	<path style="fill:#D9EFFD;" d="M256.05,384.714h30v-30.87h21.134v30.87h30V276.365H256.05V384.714z M307.185,306.365v17.478H286.05
		v-17.478H307.185z"/>
</g>
<path style="fill:#B2E0F9;" d="M256.05,384.714h30v-30.87h21.134v30.87h30V276.365H256.05V384.714z M307.185,306.365v17.478H286.05
	v-17.478H307.185z"/>
<polygon style="fill:#D9EFFD;" points="410.276,276.365 402.224,291.491 394.429,276.365 362.44,276.365 362.44,384.714 
	392.44,384.714 392.44,333.559 403.007,356.116 413.574,334.01 413.574,384.714 443.574,384.714 443.574,276.365 "/>
<polygon style="fill:#B2E0F9;" points="410.276,276.365 402.224,291.491 394.429,276.365 362.44,276.365 362.44,384.714 
	392.44,384.714 392.44,333.559 403.007,356.116 413.574,334.01 413.574,384.714 443.574,384.714 443.574,276.365 "/>
<g>
</g>
<g>
</g>
<g>
</g>
<g>
</g>
<g>
</g>
<g>
</g>
<g>
</g>
<g>
</g>
<g>
</g>
<g>
</g>
<g>
</g>
<g>
</g>
<g>
</g>
<g>
</g>
<g>
</g>
</svg>
