<svg viewBox="0 0 512 512" xmlns="http://www.w3.org/2000/svg"><path d="m7.515625 7.515625h280.546875v280.546875h-280.546875zm0 0" fill="#48c8ef"/><path d="m288.0625 223.9375v64.125h-64.125v216.421875h280.546875v-280.546875zm0 0" fill="#e76e54"/><path d="m205.585938 115h22.359374v-30.058594h-62.121093v-32.914062h-34.066407v32.914062h-64.125v30.058594h107.832032c-2.003906 24.074219-11.964844 46.167969-27.675782 63.273438-8.882812-9.667969-15.933593-20.929688-20.742187-33.246094l-27.941406 10.980468c4.257812 10.851563 9.949219 21.191407 16.980469 30.820313 2.671874 3.652344 5.519531 7.128906 8.496093 10.460937-7.179687 4.351563-14.960937 7.914063-23.25 10.546876l-22.21875 7.0625 9.101563 28.648437 22.222656-7.0625c13.492188-4.285156 26.03125-10.535156 37.351562-18.5 11.320313 7.964844 23.859376 14.214844 37.351563 18.503906l22.222656 7.0625 9.097657-28.65625-22.222657-7.054687c-8.289062-2.632813-16.0625-6.199219-23.242187-10.550782 2.976562-3.335937 5.820312-6.8125 8.492187-10.460937 15.496094-21.183594 24.417969-45.855469 26.097657-71.828125zm0 0" fill="#e4edfb"/><path d="m307.101562 350.183594v107.210937h34.066407v-31.0625h46.089843v31.0625h34.066407v-107.210937c0-31.542969-25.570313-57.109375-57.113281-57.109375-31.542969 0-57.109376 25.566406-57.109376 57.109375zm34.066407 40.078125v-40.078125c0-12.726563 10.316406-23.042969 23.042969-23.042969 12.726562 0 23.046874 10.316406 23.046874 23.042969v40.078125zm0 0" fill="#e4edfb"/><path d="m308.101562 308.101562v-84.164062h-20.039062v64.125h-64.125v20.039062zm0 0" fill="#dd523c"/><path d="m295.578125 0h-295.578125v295.578125h295.578125zm-15.03125 280.546875h-265.515625v-265.515625h265.515625zm0 0"/><path d="m313.113281 216.421875v15.03125h183.855469v265.515625h-265.515625v-183.855469h-15.03125v198.886719h295.578125v-295.578125zm0 0"/><path d="m147.78125 166.609375c-5.710938-7.410156-10.3125-15.554687-13.734375-24.316406l-2.738281-7.015625-41.945313 16.484375 2.746094 6.996093c4.496094 11.453126 10.519531 22.390626 17.914063 32.511719.933593 1.273438 1.90625 2.554688 2.914062 3.832031-4.46875 2.195313-9.113281 4.058594-13.878906 5.574219l-29.382813 9.335938 13.652344 42.972656 29.386719-9.335937c12.441406-3.953126 24.21875-9.527344 35.074218-16.589844 10.859376 7.0625 22.636719 12.632812 35.074219 16.589844l29.390625 9.339843 13.644532-42.980469-29.382813-9.328124c-4.757813-1.511719-9.398437-3.378907-13.875-5.578126 1.007813-1.277343 1.980469-2.558593 2.910156-3.835937 14.84375-20.289063 24.074219-43.929687 26.90625-68.75h23.003907v-45.085937h-62.121094v-32.917969h-49.097656v32.914062h-64.125v45.089844h106.835937c-2.691406 16.023437-9.3125 31.246094-19.171875 44.09375zm-72.632812-59.125v-15.027344h64.125v-32.914062h19.035156v32.914062h62.121094v15.027344h-21.886719l-.457031 7.03125c-1.585938 24.519531-10.113282 47.988281-24.664063 67.875-2.398437 3.28125-5.101563 6.613281-8.03125 9.894531l-6.015625 6.746094 7.726562 4.683594c7.796876 4.726562 16.160157 8.523437 24.863282 11.289062l15.058594 4.78125-4.546876 14.328125-15.058593-4.785156c-12.652344-4.023437-24.527344-9.90625-35.304688-17.488281l-4.324219-3.042969-4.324218 3.042969c-10.773438 7.582031-22.652344 13.464844-35.304688 17.484375l-15.058594 4.785156-4.550781-14.324219 15.0625-4.785156c8.71875-2.773438 17.082031-6.566406 24.863281-11.28125l7.730469-4.6875-6.019531-6.742188c-2.925781-3.28125-5.632812-6.609374-8.03125-9.890624-5.125-7.015626-9.515625-14.464844-13.105469-22.222657l13.964844-5.488281c4.90625 10.46875 11.355469 20.085938 19.238281 28.667969l5.53125 6.027343 5.535156-6.027343c17.015626-18.523438 27.539063-42.578125 29.632813-67.734375l.675781-8.136719zm0 0"/><path d="m394.769531 350.183594c0-16.847656-13.707031-30.558594-30.558593-30.558594-16.851563 0-30.558594 13.710938-30.558594 30.558594v47.59375h61.117187zm-15.027343 32.5625h-31.0625v-32.5625c0-8.5625 6.96875-15.53125 15.53125-15.53125s15.53125 6.96875 15.53125 15.53125zm0 0"/><path d="m348.679688 433.847656h31.0625v31.058594h49.09375v-114.722656c0-35.632813-28.988282-64.625-64.625-64.625-35.632813 0-64.625 28.992187-64.625 64.625v114.722656h49.09375zm-15.027344 16.03125h-19.039063v-99.695312c0-27.347656 22.25-49.597656 49.597657-49.597656 27.347656 0 49.597656 22.25 49.597656 49.597656v99.695312h-19.039063v-31.0625h-61.117187zm0 0"/><path d="m326.136719 39.078125h15.03125v15.027344h-15.03125zm0 0"/><path d="m428.835938 86.667969v79.046875l-27.25-27.25-10.625 10.628906 45.390624 45.390625 45.390626-45.390625-10.625-10.628906-27.25 27.25v-79.046875c0-26.242188-21.351563-47.589844-47.59375-47.589844h-40.078126v15.027344h40.078126c17.957031 0 32.5625 14.609375 32.5625 32.5625zm0 0"/><path d="m170.832031 457.894531h15.03125v15.027344h-15.03125zm0 0"/><path d="m83.164062 425.332031v-79.046875l27.25 27.25 10.625-10.628906-45.390624-45.390625-45.390626 45.390625 10.625 10.628906 27.25-27.25v79.046875c0 26.242188 21.351563 47.589844 47.59375 47.589844h40.078126v-15.027344h-40.078126c-17.957031 0-32.5625-14.609375-32.5625-32.5625zm0 0"/><g fill="#fff"><path d="m264.015625 46.089844h-40.078125v-15.027344h40.078125zm-55.109375 0h-15.027344v-15.027344h15.027344zm0 0"/><path d="m481.941406 294.074219h-15.03125v-32.5625h-32.5625v-15.03125h47.59375zm0 0"/></g></svg>